<svg xmlns="http://www.w3.org/2000/svg" xmlns:xlink="http://www.w3.org/1999/xlink" viewBox="0 0 750 500"><defs><style>.cls-1,.cls-10,.cls-100,.cls-101,.cls-102,.cls-103,.cls-104,.cls-105,.cls-106,.cls-107,.cls-108,.cls-109,.cls-11,.cls-110,.cls-111,.cls-112,.cls-113,.cls-114,.cls-115,.cls-116,.cls-117,.cls-118,.cls-12,.cls-13,.cls-14,.cls-15,.cls-16,.cls-17,.cls-18,.cls-19,.cls-20,.cls-21,.cls-22,.cls-23,.cls-24,.cls-25,.cls-26,.cls-27,.cls-28,.cls-29,.cls-30,.cls-31,.cls-32,.cls-33,.cls-34,.cls-35,.cls-36,.cls-37,.cls-38,.cls-39,.cls-4,.cls-40,.cls-41,.cls-42,.cls-43,.cls-44,.cls-45,.cls-46,.cls-47,.cls-48,.cls-49,.cls-5,.cls-50,.cls-51,.cls-52,.cls-53,.cls-54,.cls-55,.cls-56,.cls-57,.cls-58,.cls-59,.cls-6,.cls-60,.cls-61,.cls-62,.cls-63,.cls-64,.cls-65,.cls-66,.cls-67,.cls-68,.cls-69,.cls-7,.cls-70,.cls-71,.cls-72,.cls-73,.cls-74,.cls-75,.cls-76,.cls-77,.cls-78,.cls-79,.cls-8,.cls-80,.cls-81,.cls-82,.cls-83,.cls-84,.cls-85,.cls-86,.cls-87,.cls-88,.cls-89,.cls-9,.cls-90,.cls-91,.cls-92,.cls-93,.cls-94,.cls-95,.cls-96,.cls-97,.cls-98,.cls-99{fill:none;}.cls-2{fill:url(#Degradado_sin_nombre_54);}.cls-3{clip-path:url(#clip-path);}.cls-10,.cls-100,.cls-101,.cls-102,.cls-103,.cls-104,.cls-105,.cls-106,.cls-107,.cls-108,.cls-109,.cls-11,.cls-110,.cls-111,.cls-112,.cls-113,.cls-114,.cls-115,.cls-116,.cls-117,.cls-118,.cls-12,.cls-13,.cls-14,.cls-15,.cls-16,.cls-17,.cls-18,.cls-19,.cls-20,.cls-21,.cls-22,.cls-23,.cls-24,.cls-25,.cls-26,.cls-27,.cls-28,.cls-29,.cls-30,.cls-31,.cls-32,.cls-33,.cls-34,.cls-35,.cls-36,.cls-37,.cls-38,.cls-39,.cls-4,.cls-40,.cls-41,.cls-42,.cls-43,.cls-44,.cls-45,.cls-46,.cls-47,.cls-48,.cls-49,.cls-5,.cls-50,.cls-51,.cls-52,.cls-53,.cls-54,.cls-55,.cls-56,.cls-57,.cls-58,.cls-59,.cls-6,.cls-60,.cls-61,.cls-62,.cls-63,.cls-64,.cls-65,.cls-66,.cls-67,.cls-68,.cls-69,.cls-7,.cls-70,.cls-71,.cls-72,.cls-73,.cls-74,.cls-75,.cls-76,.cls-77,.cls-78,.cls-79,.cls-8,.cls-80,.cls-81,.cls-82,.cls-83,.cls-84,.cls-85,.cls-86,.cls-87,.cls-88,.cls-89,.cls-9,.cls-90,.cls-91,.cls-92,.cls-93,.cls-94,.cls-95,.cls-96,.cls-97,.cls-98,.cls-99{stroke-miterlimit:10;stroke-width:1.07px;}.cls-4{stroke:url(#Degradado_sin_nombre_11);}.cls-5{stroke:url(#Degradado_sin_nombre_11-2);}.cls-6{stroke:url(#Degradado_sin_nombre_11-3);}.cls-7{stroke:url(#Degradado_sin_nombre_11-4);}.cls-8{stroke:url(#Degradado_sin_nombre_11-5);}.cls-9{stroke:url(#Degradado_sin_nombre_11-6);}.cls-10{stroke:url(#Degradado_sin_nombre_11-7);}.cls-11{stroke:url(#Degradado_sin_nombre_11-8);}.cls-12{stroke:url(#Degradado_sin_nombre_11-9);}.cls-13{stroke:url(#Degradado_sin_nombre_11-10);}.cls-14{stroke:url(#Degradado_sin_nombre_11-11);}.cls-15{stroke:url(#Degradado_sin_nombre_11-12);}.cls-16{stroke:url(#Degradado_sin_nombre_11-13);}.cls-17{stroke:url(#Degradado_sin_nombre_11-14);}.cls-18{stroke:url(#Degradado_sin_nombre_11-15);}.cls-19{stroke:url(#Degradado_sin_nombre_11-16);}.cls-20{stroke:url(#Degradado_sin_nombre_11-17);}.cls-21{stroke:url(#Degradado_sin_nombre_11-18);}.cls-22{stroke:url(#Degradado_sin_nombre_11-19);}.cls-23{stroke:url(#Degradado_sin_nombre_11-20);}.cls-24{stroke:url(#Degradado_sin_nombre_11-21);}.cls-25{stroke:url(#Degradado_sin_nombre_11-22);}.cls-26{stroke:url(#Degradado_sin_nombre_11-23);}.cls-27{stroke:url(#Degradado_sin_nombre_11-24);}.cls-28{stroke:url(#Degradado_sin_nombre_11-25);}.cls-29{stroke:url(#Degradado_sin_nombre_11-26);}.cls-30{stroke:url(#Degradado_sin_nombre_11-27);}.cls-31{stroke:url(#Degradado_sin_nombre_11-28);}.cls-32{stroke:url(#Degradado_sin_nombre_11-29);}.cls-33{stroke:url(#Degradado_sin_nombre_11-30);}.cls-34{stroke:url(#Degradado_sin_nombre_11-31);}.cls-35{stroke:url(#Degradado_sin_nombre_11-32);}.cls-36{stroke:url(#Degradado_sin_nombre_11-33);}.cls-37{stroke:url(#Degradado_sin_nombre_11-34);}.cls-38{stroke:url(#Degradado_sin_nombre_11-35);}.cls-39{stroke:url(#Degradado_sin_nombre_11-36);}.cls-40{stroke:url(#Degradado_sin_nombre_11-37);}.cls-41{stroke:url(#Degradado_sin_nombre_11-38);}.cls-42{stroke:url(#Degradado_sin_nombre_11-39);}.cls-43{stroke:url(#Degradado_sin_nombre_11-40);}.cls-44{stroke:url(#Degradado_sin_nombre_11-41);}.cls-45{stroke:url(#Degradado_sin_nombre_11-42);}.cls-46{stroke:url(#Degradado_sin_nombre_11-43);}.cls-47{stroke:url(#Degradado_sin_nombre_11-44);}.cls-48{stroke:url(#Degradado_sin_nombre_11-45);}.cls-49{stroke:url(#Degradado_sin_nombre_11-46);}.cls-50{stroke:url(#Degradado_sin_nombre_11-47);}.cls-51{stroke:url(#Degradado_sin_nombre_11-48);}.cls-52{stroke:url(#Degradado_sin_nombre_11-49);}.cls-53{stroke:url(#Degradado_sin_nombre_11-50);}.cls-54{stroke:url(#Degradado_sin_nombre_11-51);}.cls-55{stroke:url(#Degradado_sin_nombre_11-52);}.cls-56{stroke:url(#Degradado_sin_nombre_11-53);}.cls-57{stroke:url(#Degradado_sin_nombre_11-54);}.cls-58{stroke:url(#Degradado_sin_nombre_11-55);}.cls-59{stroke:url(#Degradado_sin_nombre_11-56);}.cls-60{stroke:url(#Degradado_sin_nombre_11-57);}.cls-61{stroke:url(#Degradado_sin_nombre_11-58);}.cls-62{stroke:url(#Degradado_sin_nombre_11-59);}.cls-63{stroke:url(#Degradado_sin_nombre_11-60);}.cls-64{stroke:url(#Degradado_sin_nombre_11-61);}.cls-65{stroke:url(#Degradado_sin_nombre_11-62);}.cls-66{stroke:url(#Degradado_sin_nombre_11-63);}.cls-67{stroke:url(#Degradado_sin_nombre_11-64);}.cls-68{stroke:url(#Degradado_sin_nombre_11-65);}.cls-69{stroke:url(#Degradado_sin_nombre_11-66);}.cls-70{stroke:url(#Degradado_sin_nombre_11-67);}.cls-71{stroke:url(#Degradado_sin_nombre_11-68);}.cls-72{stroke:url(#Degradado_sin_nombre_11-69);}.cls-73{stroke:url(#Degradado_sin_nombre_11-70);}.cls-74{stroke:url(#Degradado_sin_nombre_11-71);}.cls-75{stroke:url(#Degradado_sin_nombre_11-72);}.cls-76{stroke:url(#Degradado_sin_nombre_11-73);}.cls-77{stroke:url(#Degradado_sin_nombre_11-74);}.cls-78{stroke:url(#Degradado_sin_nombre_11-75);}.cls-79{stroke:url(#Degradado_sin_nombre_11-76);}.cls-80{stroke:url(#Degradado_sin_nombre_11-77);}.cls-81{stroke:url(#Degradado_sin_nombre_11-78);}.cls-82{stroke:url(#Degradado_sin_nombre_11-79);}.cls-83{stroke:url(#Degradado_sin_nombre_11-80);}.cls-84{stroke:url(#Degradado_sin_nombre_11-81);}.cls-85{stroke:url(#Degradado_sin_nombre_11-82);}.cls-86{stroke:url(#Degradado_sin_nombre_11-83);}.cls-87{stroke:url(#Degradado_sin_nombre_11-84);}.cls-88{stroke:url(#Degradado_sin_nombre_11-85);}.cls-89{stroke:url(#Degradado_sin_nombre_11-86);}.cls-90{stroke:url(#Degradado_sin_nombre_11-87);}.cls-91{stroke:url(#Degradado_sin_nombre_11-88);}.cls-92{stroke:url(#Degradado_sin_nombre_11-89);}.cls-93{stroke:url(#Degradado_sin_nombre_11-90);}.cls-94{stroke:url(#Degradado_sin_nombre_11-91);}.cls-95{stroke:url(#Degradado_sin_nombre_11-92);}.cls-96{stroke:url(#Degradado_sin_nombre_11-93);}.cls-97{stroke:url(#Degradado_sin_nombre_11-94);}.cls-98{stroke:url(#Degradado_sin_nombre_11-95);}.cls-99{stroke:url(#Degradado_sin_nombre_11-96);}.cls-100{stroke:url(#Degradado_sin_nombre_11-97);}.cls-101{stroke:url(#Degradado_sin_nombre_11-98);}.cls-102{stroke:url(#Degradado_sin_nombre_11-99);}.cls-103{stroke:url(#Degradado_sin_nombre_11-100);}.cls-104{stroke:url(#Degradado_sin_nombre_11-101);}.cls-105{stroke:url(#Degradado_sin_nombre_11-102);}.cls-106{stroke:url(#Degradado_sin_nombre_11-103);}.cls-107{stroke:url(#Degradado_sin_nombre_11-104);}.cls-108{stroke:url(#Degradado_sin_nombre_11-105);}.cls-109{stroke:url(#Degradado_sin_nombre_11-106);}.cls-110{stroke:url(#Degradado_sin_nombre_11-107);}.cls-111{stroke:url(#Degradado_sin_nombre_11-108);}.cls-112{stroke:url(#Degradado_sin_nombre_11-109);}.cls-113{stroke:url(#Degradado_sin_nombre_11-110);}.cls-114{stroke:url(#Degradado_sin_nombre_11-111);}.cls-115{stroke:url(#Degradado_sin_nombre_11-112);}.cls-116{stroke:url(#Degradado_sin_nombre_11-113);}.cls-117{stroke:url(#Degradado_sin_nombre_11-114);}.cls-118{stroke:url(#Degradado_sin_nombre_11-115);}</style><linearGradient id="Degradado_sin_nombre_54" x1="764.35" y1="-73.72" x2="105.89" y2="473.75" gradientUnits="userSpaceOnUse"><stop offset="0" stop-color="#212934"/><stop offset="1" stop-color="#090d12"/></linearGradient><clipPath id="clip-path"><rect class="cls-1" width="750" height="500"/></clipPath><linearGradient id="Degradado_sin_nombre_11" x1="977.69" y1="178.67" x2="793.93" y2="331.45" gradientUnits="userSpaceOnUse"><stop offset="0" stop-color="#212934"/><stop offset="1" stop-color="#323e4f"/></linearGradient><linearGradient id="Degradado_sin_nombre_11-2" x1="967.25" y1="176.37" x2="783.78" y2="328.9" xlink:href="#Degradado_sin_nombre_11"/><linearGradient id="Degradado_sin_nombre_11-3" x1="956.92" y1="174.07" x2="773.54" y2="326.53" xlink:href="#Degradado_sin_nombre_11"/><linearGradient id="Degradado_sin_nombre_11-4" x1="946.7" y1="171.77" x2="763.17" y2="324.36" xlink:href="#Degradado_sin_nombre_11"/><linearGradient id="Degradado_sin_nombre_11-5" x1="936.62" y1="169.45" x2="752.67" y2="322.39" xlink:href="#Degradado_sin_nombre_11"/><linearGradient id="Degradado_sin_nombre_11-6" x1="928.69" y1="166.87" x2="743.77" y2="320.62" xlink:href="#Degradado_sin_nombre_11"/><linearGradient id="Degradado_sin_nombre_11-7" x1="921.68" y1="163.92" x2="735.09" y2="319.06" xlink:href="#Degradado_sin_nombre_11"/><linearGradient id="Degradado_sin_nombre_11-8" x1="915.17" y1="160.57" x2="726.16" y2="317.72" xlink:href="#Degradado_sin_nombre_11"/><linearGradient id="Degradado_sin_nombre_11-9" x1="909.16" y1="156.8" x2="716.99" y2="316.57" xlink:href="#Degradado_sin_nombre_11"/><linearGradient id="Degradado_sin_nombre_11-10" x1="903.64" y1="152.62" x2="707.6" y2="315.61" xlink:href="#Degradado_sin_nombre_11"/><linearGradient id="Degradado_sin_nombre_11-11" x1="898.58" y1="148.06" x2="698.01" y2="314.81" xlink:href="#Degradado_sin_nombre_11"/><linearGradient id="Degradado_sin_nombre_11-12" x1="893.89" y1="143.19" x2="688.25" y2="314.16" xlink:href="#Degradado_sin_nombre_11"/><linearGradient id="Degradado_sin_nombre_11-13" x1="889.5" y1="138.07" x2="676.22" y2="315.4" xlink:href="#Degradado_sin_nombre_11"/><linearGradient id="Degradado_sin_nombre_11-14" x1="885.36" y1="132.75" x2="663.77" y2="316.99" xlink:href="#Degradado_sin_nombre_11"/><linearGradient id="Degradado_sin_nombre_11-15" x1="881.43" y1="127.25" x2="651.31" y2="318.58" xlink:href="#Degradado_sin_nombre_11"/><linearGradient id="Degradado_sin_nombre_11-16" x1="877.65" y1="121.64" x2="638.86" y2="320.17" xlink:href="#Degradado_sin_nombre_11"/><linearGradient id="Degradado_sin_nombre_11-17" x1="874" y1="115.91" x2="626.41" y2="321.76" xlink:href="#Degradado_sin_nombre_11"/><linearGradient id="Degradado_sin_nombre_11-18" x1="870.46" y1="110.08" x2="613.95" y2="323.35" xlink:href="#Degradado_sin_nombre_11"/><linearGradient id="Degradado_sin_nombre_11-19" x1="867.02" y1="104.18" x2="601.5" y2="324.95" xlink:href="#Degradado_sin_nombre_11"/><linearGradient id="Degradado_sin_nombre_11-20" x1="863.67" y1="98.21" x2="589.05" y2="326.54" xlink:href="#Degradado_sin_nombre_11"/><linearGradient id="Degradado_sin_nombre_11-21" x1="860.37" y1="92.19" x2="576.6" y2="328.13" xlink:href="#Degradado_sin_nombre_11"/><linearGradient id="Degradado_sin_nombre_11-22" x1="857.14" y1="86.12" x2="564.15" y2="329.72" xlink:href="#Degradado_sin_nombre_11"/><linearGradient id="Degradado_sin_nombre_11-23" x1="853.96" y1="80.01" x2="551.7" y2="331.32" xlink:href="#Degradado_sin_nombre_11"/><linearGradient id="Degradado_sin_nombre_11-24" x1="842.54" y1="80.72" x2="546.32" y2="327.01" xlink:href="#Degradado_sin_nombre_11"/><linearGradient id="Degradado_sin_nombre_11-25" x1="831.1" y1="81.45" x2="540.93" y2="322.71" xlink:href="#Degradado_sin_nombre_11"/><linearGradient id="Degradado_sin_nombre_11-26" x1="819.66" y1="82.17" x2="535.53" y2="318.4" xlink:href="#Degradado_sin_nombre_11"/><linearGradient id="Degradado_sin_nombre_11-27" x1="808.21" y1="82.89" x2="530.13" y2="314.1" xlink:href="#Degradado_sin_nombre_11"/><linearGradient id="Degradado_sin_nombre_11-28" x1="796.76" y1="83.61" x2="524.71" y2="309.8" xlink:href="#Degradado_sin_nombre_11"/><linearGradient id="Degradado_sin_nombre_11-29" x1="785.27" y1="84.3" x2="519.27" y2="305.47" xlink:href="#Degradado_sin_nombre_11"/><linearGradient id="Degradado_sin_nombre_11-30" x1="773.76" y1="84.98" x2="513.8" y2="301.12" xlink:href="#Degradado_sin_nombre_11"/><linearGradient id="Degradado_sin_nombre_11-31" x1="762.25" y1="85.65" x2="508.33" y2="296.77" xlink:href="#Degradado_sin_nombre_11"/><linearGradient id="Degradado_sin_nombre_11-32" x1="750.73" y1="86.33" x2="502.86" y2="292.42" xlink:href="#Degradado_sin_nombre_11"/><linearGradient id="Degradado_sin_nombre_11-33" x1="739.22" y1="87.01" x2="497.38" y2="288.08" xlink:href="#Degradado_sin_nombre_11"/><linearGradient id="Degradado_sin_nombre_11-34" x1="727.7" y1="87.69" x2="491.91" y2="283.74" xlink:href="#Degradado_sin_nombre_11"/><linearGradient id="Degradado_sin_nombre_11-35" x1="716.18" y1="88.38" x2="486.43" y2="279.4" xlink:href="#Degradado_sin_nombre_11"/><linearGradient id="Degradado_sin_nombre_11-36" x1="704.66" y1="89.06" x2="480.95" y2="275.06" xlink:href="#Degradado_sin_nombre_11"/><linearGradient id="Degradado_sin_nombre_11-37" x1="693.13" y1="89.75" x2="475.47" y2="270.72" xlink:href="#Degradado_sin_nombre_11"/><linearGradient id="Degradado_sin_nombre_11-38" x1="681.61" y1="90.44" x2="469.99" y2="266.39" xlink:href="#Degradado_sin_nombre_11"/><linearGradient id="Degradado_sin_nombre_11-39" x1="670.05" y1="91.13" x2="464.23" y2="262.25" xlink:href="#Degradado_sin_nombre_11"/><linearGradient id="Degradado_sin_nombre_11-40" x1="658.55" y1="91.82" x2="457.41" y2="259.04" xlink:href="#Degradado_sin_nombre_11"/><linearGradient id="Degradado_sin_nombre_11-41" x1="647.05" y1="92.5" x2="450.59" y2="255.85" xlink:href="#Degradado_sin_nombre_11"/><linearGradient id="Degradado_sin_nombre_11-42" x1="635.56" y1="93.19" x2="443.77" y2="252.65" xlink:href="#Degradado_sin_nombre_11"/><linearGradient id="Degradado_sin_nombre_11-43" x1="624.06" y1="93.88" x2="436.95" y2="249.45" xlink:href="#Degradado_sin_nombre_11"/><linearGradient id="Degradado_sin_nombre_11-44" x1="612.56" y1="94.58" x2="430.13" y2="246.26" xlink:href="#Degradado_sin_nombre_11"/><linearGradient id="Degradado_sin_nombre_11-45" x1="601.07" y1="95.27" x2="423.29" y2="243.07" xlink:href="#Degradado_sin_nombre_11"/><linearGradient id="Degradado_sin_nombre_11-46" x1="589.57" y1="95.96" x2="416.48" y2="239.87" xlink:href="#Degradado_sin_nombre_11"/><linearGradient id="Degradado_sin_nombre_11-47" x1="579.34" y1="99.09" x2="412.82" y2="237.55" xlink:href="#Degradado_sin_nombre_11"/><linearGradient id="Degradado_sin_nombre_11-48" x1="569.3" y1="102.06" x2="409.08" y2="235.28" xlink:href="#Degradado_sin_nombre_11"/><linearGradient id="Degradado_sin_nombre_11-49" x1="559.45" y1="104.86" x2="403.03" y2="234.91" xlink:href="#Degradado_sin_nombre_11"/><linearGradient id="Degradado_sin_nombre_11-50" x1="549.79" y1="107.46" x2="395.23" y2="235.97" xlink:href="#Degradado_sin_nombre_11"/><linearGradient id="Degradado_sin_nombre_11-51" x1="540.36" y1="109.85" x2="387.39" y2="237.04" xlink:href="#Degradado_sin_nombre_11"/><linearGradient id="Degradado_sin_nombre_11-52" x1="531.18" y1="112.01" x2="379.51" y2="238.1" xlink:href="#Degradado_sin_nombre_11"/><linearGradient id="Degradado_sin_nombre_11-53" x1="522.27" y1="113.91" x2="371.61" y2="239.17" xlink:href="#Degradado_sin_nombre_11"/><linearGradient id="Degradado_sin_nombre_11-54" x1="513.64" y1="115.54" x2="363.68" y2="240.23" xlink:href="#Degradado_sin_nombre_11"/><linearGradient id="Degradado_sin_nombre_11-55" x1="505.33" y1="116.9" x2="355.71" y2="241.29" xlink:href="#Degradado_sin_nombre_11"/><linearGradient id="Degradado_sin_nombre_11-56" x1="497.32" y1="117.97" x2="347.71" y2="242.36" xlink:href="#Degradado_sin_nombre_11"/><linearGradient id="Degradado_sin_nombre_11-57" x1="489.61" y1="118.77" x2="339.68" y2="243.42" xlink:href="#Degradado_sin_nombre_11"/><linearGradient id="Degradado_sin_nombre_11-58" x1="482.18" y1="119.3" x2="331.62" y2="244.48" xlink:href="#Degradado_sin_nombre_11"/><linearGradient id="Degradado_sin_nombre_11-59" x1="475.07" y1="119.54" x2="323.52" y2="245.54" xlink:href="#Degradado_sin_nombre_11"/><linearGradient id="Degradado_sin_nombre_11-60" x1="468.21" y1="119.54" x2="315.39" y2="246.6" xlink:href="#Degradado_sin_nombre_11"/><linearGradient id="Degradado_sin_nombre_11-61" x1="461.56" y1="119.35" x2="307.23" y2="247.66" xlink:href="#Degradado_sin_nombre_11"/><linearGradient id="Degradado_sin_nombre_11-62" x1="455.08" y1="118.98" x2="299.04" y2="248.72" xlink:href="#Degradado_sin_nombre_11"/><linearGradient id="Degradado_sin_nombre_11-63" x1="448.74" y1="118.48" x2="290.82" y2="249.78" xlink:href="#Degradado_sin_nombre_11"/><linearGradient id="Degradado_sin_nombre_11-64" x1="442.49" y1="117.87" x2="282.57" y2="250.84" xlink:href="#Degradado_sin_nombre_11"/><linearGradient id="Degradado_sin_nombre_11-65" x1="436.36" y1="117.15" x2="274.29" y2="251.9" xlink:href="#Degradado_sin_nombre_11"/><linearGradient id="Degradado_sin_nombre_11-66" x1="430.34" y1="116.3" x2="260.42" y2="257.58" xlink:href="#Degradado_sin_nombre_11"/><linearGradient id="Degradado_sin_nombre_11-67" x1="424.44" y1="115.34" x2="246.05" y2="263.65" xlink:href="#Degradado_sin_nombre_11"/><linearGradient id="Degradado_sin_nombre_11-68" x1="418.68" y1="114.23" x2="231.65" y2="269.73" xlink:href="#Degradado_sin_nombre_11"/><linearGradient id="Degradado_sin_nombre_11-69" x1="413.06" y1="112.97" x2="217.22" y2="275.8" xlink:href="#Degradado_sin_nombre_11"/><linearGradient id="Degradado_sin_nombre_11-70" x1="400.66" y1="124.4" x2="215.89" y2="278.02" xlink:href="#Degradado_sin_nombre_11"/><linearGradient id="Degradado_sin_nombre_11-71" x1="388.26" y1="135.81" x2="214.45" y2="280.32" xlink:href="#Degradado_sin_nombre_11"/><linearGradient id="Degradado_sin_nombre_11-72" x1="375.88" y1="147.22" x2="212.9" y2="282.73" xlink:href="#Degradado_sin_nombre_11"/><linearGradient id="Degradado_sin_nombre_11-73" x1="363.51" y1="158.62" x2="211.19" y2="285.27" xlink:href="#Degradado_sin_nombre_11"/><linearGradient id="Degradado_sin_nombre_11-74" x1="351.16" y1="170.01" x2="209.29" y2="287.97" xlink:href="#Degradado_sin_nombre_11"/><linearGradient id="Degradado_sin_nombre_11-75" x1="338.84" y1="181.38" x2="207.15" y2="290.87" xlink:href="#Degradado_sin_nombre_11"/><linearGradient id="Degradado_sin_nombre_11-76" x1="326.55" y1="192.72" x2="204.69" y2="294.04" xlink:href="#Degradado_sin_nombre_11"/><linearGradient id="Degradado_sin_nombre_11-77" x1="314.29" y1="204.05" x2="201.86" y2="297.53" xlink:href="#Degradado_sin_nombre_11"/><linearGradient id="Degradado_sin_nombre_11-78" x1="302.1" y1="215.33" x2="198.54" y2="301.42" xlink:href="#Degradado_sin_nombre_11"/><linearGradient id="Degradado_sin_nombre_11-79" x1="289.94" y1="226.49" x2="194.89" y2="305.52" xlink:href="#Degradado_sin_nombre_11"/><linearGradient id="Degradado_sin_nombre_11-80" x1="277.89" y1="237.56" x2="191.24" y2="309.6" xlink:href="#Degradado_sin_nombre_11"/><linearGradient id="Degradado_sin_nombre_11-81" x1="266" y1="248.49" x2="187.61" y2="313.67" xlink:href="#Degradado_sin_nombre_11"/><linearGradient id="Degradado_sin_nombre_11-82" x1="254.34" y1="259.23" x2="183.98" y2="317.73" xlink:href="#Degradado_sin_nombre_11"/><linearGradient id="Degradado_sin_nombre_11-83" x1="243.08" y1="269.65" x2="180.37" y2="321.79" xlink:href="#Degradado_sin_nombre_11"/><linearGradient id="Degradado_sin_nombre_11-84" x1="232.9" y1="279.23" x2="176.77" y2="325.9" xlink:href="#Degradado_sin_nombre_11"/><linearGradient id="Degradado_sin_nombre_11-85" x1="226.48" y1="286.03" x2="173.17" y2="330.36" xlink:href="#Degradado_sin_nombre_11"/><linearGradient id="Degradado_sin_nombre_11-86" x1="223.17" y1="290.58" x2="169.57" y2="335.14" xlink:href="#Degradado_sin_nombre_11"/><linearGradient id="Degradado_sin_nombre_11-87" x1="220.72" y1="294.68" x2="165.97" y2="340.2" xlink:href="#Degradado_sin_nombre_11"/><linearGradient id="Degradado_sin_nombre_11-88" x1="218.71" y1="298.62" x2="162.25" y2="345.56" xlink:href="#Degradado_sin_nombre_11"/><linearGradient id="Degradado_sin_nombre_11-89" x1="216.99" y1="302.49" x2="158.11" y2="351.44" xlink:href="#Degradado_sin_nombre_11"/><linearGradient id="Degradado_sin_nombre_11-90" x1="215.46" y1="306.33" x2="147.67" y2="362.7" xlink:href="#Degradado_sin_nombre_11"/><linearGradient id="Degradado_sin_nombre_11-91" x1="214.06" y1="310.16" x2="135.37" y2="375.58" xlink:href="#Degradado_sin_nombre_11"/><linearGradient id="Degradado_sin_nombre_11-92" x1="212.72" y1="313.93" x2="123" y2="388.53" xlink:href="#Degradado_sin_nombre_11"/><linearGradient id="Degradado_sin_nombre_11-93" x1="203.68" y1="323.53" x2="118.92" y2="394" xlink:href="#Degradado_sin_nombre_11"/><linearGradient id="Degradado_sin_nombre_11-94" x1="196.16" y1="333.97" x2="116.04" y2="400.58" xlink:href="#Degradado_sin_nombre_11"/><linearGradient id="Degradado_sin_nombre_11-95" x1="195.77" y1="339.75" x2="113.79" y2="407.92" xlink:href="#Degradado_sin_nombre_11"/><linearGradient id="Degradado_sin_nombre_11-96" x1="197.37" y1="343.94" x2="107.17" y2="418.94" xlink:href="#Degradado_sin_nombre_11"/><linearGradient id="Degradado_sin_nombre_11-97" x1="198.98" y1="348.19" x2="97.71" y2="432.38" xlink:href="#Degradado_sin_nombre_11"/><linearGradient id="Degradado_sin_nombre_11-98" x1="200.58" y1="352.5" x2="88.22" y2="445.92" xlink:href="#Degradado_sin_nombre_11"/><linearGradient id="Degradado_sin_nombre_11-99" x1="202.17" y1="356.89" x2="78.71" y2="459.54" xlink:href="#Degradado_sin_nombre_11"/><linearGradient id="Degradado_sin_nombre_11-100" x1="203.75" y1="361.35" x2="69.16" y2="473.26" xlink:href="#Degradado_sin_nombre_11"/><linearGradient id="Degradado_sin_nombre_11-101" x1="205.31" y1="365.88" x2="59.57" y2="487.05" xlink:href="#Degradado_sin_nombre_11"/><linearGradient id="Degradado_sin_nombre_11-102" x1="206.85" y1="370.46" x2="49.94" y2="500.92" xlink:href="#Degradado_sin_nombre_11"/><linearGradient id="Degradado_sin_nombre_11-103" x1="208.36" y1="375.09" x2="40.27" y2="514.85" xlink:href="#Degradado_sin_nombre_11"/><linearGradient id="Degradado_sin_nombre_11-104" x1="209.84" y1="379.75" x2="30.54" y2="528.83" xlink:href="#Degradado_sin_nombre_11"/><linearGradient id="Degradado_sin_nombre_11-105" x1="211.27" y1="384.45" x2="20.75" y2="542.85" xlink:href="#Degradado_sin_nombre_11"/><linearGradient id="Degradado_sin_nombre_11-106" x1="212.65" y1="389.16" x2="10.9" y2="556.9" xlink:href="#Degradado_sin_nombre_11"/><linearGradient id="Degradado_sin_nombre_11-107" x1="213.98" y1="393.88" x2="0.99" y2="570.97" xlink:href="#Degradado_sin_nombre_11"/><linearGradient id="Degradado_sin_nombre_11-108" x1="215.26" y1="398.6" x2="-9" y2="585.05" xlink:href="#Degradado_sin_nombre_11"/><linearGradient id="Degradado_sin_nombre_11-109" x1="216.49" y1="403.31" x2="-19.05" y2="599.14" xlink:href="#Degradado_sin_nombre_11"/><linearGradient id="Degradado_sin_nombre_11-110" x1="217.65" y1="408" x2="-29.17" y2="613.21" xlink:href="#Degradado_sin_nombre_11"/><linearGradient id="Degradado_sin_nombre_11-111" x1="218.77" y1="412.67" x2="-39.35" y2="627.28" xlink:href="#Degradado_sin_nombre_11"/><linearGradient id="Degradado_sin_nombre_11-112" x1="219.83" y1="417.31" x2="-49.6" y2="641.33" xlink:href="#Degradado_sin_nombre_11"/><linearGradient id="Degradado_sin_nombre_11-113" x1="220.85" y1="421.94" x2="-59.9" y2="655.36" xlink:href="#Degradado_sin_nombre_11"/><linearGradient id="Degradado_sin_nombre_11-114" x1="221.83" y1="426.53" x2="-70.25" y2="669.38" xlink:href="#Degradado_sin_nombre_11"/><linearGradient id="Degradado_sin_nombre_11-115" x1="222.77" y1="431.1" x2="-80.65" y2="683.38" xlink:href="#Degradado_sin_nombre_11"/></defs><title>bg1v1.0</title><g id="BACKGROUND"><rect class="cls-2" width="750" height="500"/></g><g id="OBJECTS"><g class="cls-3"><path class="cls-4" d="M1044.44,546.13c6.43-45-11.11-92.5-44.38-123.3q-4-3.69-8.27-7.06c-32.86-25.77-75-35.28-114.68-47.65C836.27,355.4,795,337,770.8,302.1a115.5,115.5,0,0,1-12.36-23c-9.87-24.59-12-52.36-9.57-79.63.64-7.18,1.6-14.33,2.81-21.37,3.4-19.72,8.57-39.08,13.91-58.44,6.2-22.52,12.58-45.07,16.67-67.72q1-5.7,1.84-11.44c2.71-19.19,3.49-38.59,1.42-57.33-2.08-19-7.11-37.41-16.35-54.44"/><path class="cls-5" d="M1029.46,547.94c6.35-44.21-11-90.83-43.5-121.26q-3.9-3.65-8.09-7c-32.1-25.52-73.33-35-111.82-48.12-40.79-13.88-80.73-34.64-103.48-70.65a118,118,0,0,1-11.42-23.62c-8.89-25.08-10-53-6.77-80.52.84-7.24,2-14.45,3.38-21.57,3.87-19.9,9.36-39.52,14.75-59.22,6.26-22.91,12.3-46,15.56-68.92q.81-5.75,1.37-11.53a214.74,214.74,0,0,0-1.66-56.77c-3.16-18.54-9.2-36.23-19.24-52.62"/><path class="cls-6" d="M1014.6,549.75c6.27-43.43-10.83-89.17-42.63-119.21q-3.81-3.6-7.9-6.9c-31.35-25.26-71.68-34.81-109-48.59-40.77-15.07-79.39-38.18-100.65-75.27A119.35,119.35,0,0,1,744,275.59c-7.91-25.59-8-53.73-4-81.43,1-7.29,2.39-14.56,4-21.75,4.34-20.1,10.15-40,15.59-60,6.33-23.3,12-46.94,14.44-70.11q.62-5.82.91-11.64a199.49,199.49,0,0,0-4.74-56.19A147.65,147.65,0,0,0,748-76.35"/><path class="cls-7" d="M999.86,551.56c6.18-42.65-10.7-87.5-41.76-117.16-2.48-2.37-5.06-4.65-7.71-6.82-30.6-25-70-34.65-106.11-49.07-40.76-16.28-78-41.72-97.81-79.89a121.65,121.65,0,0,1-9.55-24.76c-6.93-26.09-6-54.43-1.18-82.33,1.26-7.35,2.79-14.68,4.52-21.94,4.82-20.3,10.94-40.41,16.44-60.79,6.38-23.7,11.74-47.88,13.32-71.31q.39-5.88.44-11.74a185.36,185.36,0,0,0-7.82-55.63,150.25,150.25,0,0,0-25-49"/><path class="cls-8" d="M985.23,553.37c6.1-41.87-10.56-85.83-40.88-115.12q-3.65-3.51-7.53-6.74C907,406.77,868.45,397,833.57,382c-40.75-17.54-76.69-45.27-95-84.53A124,124,0,0,1,730,272.13c-6-26.59-4-55.12,1.61-83.23,1.47-7.41,3.2-14.8,5.09-22.13,5.29-20.49,11.74-40.86,17.29-61.58,6.44-24.09,11.46-48.82,12.2-72.5q.18-6,0-11.84a172.73,172.73,0,0,0-10.91-55.06,153.7,153.7,0,0,0-27.91-47.18"/><path class="cls-9" d="M972.48,555.18c6-41.09-10.43-84.17-40-113.07q-3.54-3.47-7.33-6.66C896,411,858.42,401,824.74,385.44c-40.76-18.82-75.35-48.81-92.15-89.15a126.38,126.38,0,0,1-7.67-25.9c-5-27.09-1.95-55.8,4.4-84.13C731,178.8,732.91,171.35,735,164c5.77-20.69,12.53-41.31,18.13-62.37,6.5-24.48,11.18-49.75,11.08-73.69,0-4-.17-8-.48-12a162.78,162.78,0,0,0-14-54.49,159.47,159.47,0,0,0-30.8-45.36"/><path class="cls-10" d="M960.21,557c5.92-40.31-10.29-82.5-39.14-111q-3.47-3.42-7.15-6.58c-28.35-24.24-65-34.43-97.54-50.49-40.75-20.13-74-52.35-89.31-93.77a129.16,129.16,0,0,1-6.73-26.47c-4-27.59.06-56.5,7.19-85,1.89-7.52,4-15,6.23-22.51,6.24-20.88,13.33-41.75,19-63.14,6.57-24.88,10.91-50.7,10-74.89q-.24-6.09-1-12a153.17,153.17,0,0,0-17.07-53.92A165.83,165.83,0,0,0,711-86.43"/><path class="cls-11" d="M947.93,558.8c5.85-39.53-10.14-80.83-38.26-109-2.24-2.25-4.57-4.41-7-6.5-27.6-24-63.36-34.43-94.68-50.95-40.75-21.5-72.64-55.9-86.48-98.41a132.45,132.45,0,0,1-5.79-27c-3-28.1,2.06-57.19,10-85.93,2.09-7.58,4.39-15.15,6.79-22.7,6.72-21.07,14.12-42.2,19.82-63.93C759,69.1,763,42.74,761.21,18.29q-.45-6.15-1.42-12.16a145.41,145.41,0,0,0-20.14-53.34C730-62.86,717.94-76.39,703.06-88.95"/><path class="cls-12" d="M935.66,560.61c5.76-38.74-10-79.17-37.38-106.93q-3.28-3.33-6.78-6.42c-26.84-23.73-61.67-34.48-91.82-51.43-40.73-22.89-71.3-59.44-83.65-103a136.28,136.28,0,0,1-4.85-27.61c-2-28.59,4.07-57.87,12.78-86.83,2.3-7.63,4.79-15.26,7.37-22.88,7.19-21.27,14.91-42.64,20.66-64.72,6.69-25.66,10.34-52.57,7.73-77.27-.44-4.14-1.07-8.24-1.88-12.26a139.15,139.15,0,0,0-23.23-52.78c-10.74-15.16-23.79-28-39.47-39.92"/><path class="cls-13" d="M923.39,562.42c5.68-38-9.87-77.5-36.51-104.88q-3.2-3.29-6.59-6.35c-26.09-23.46-60-34.55-89-51.89-40.7-24.34-69.94-63-80.81-107.66a141.28,141.28,0,0,1-3.92-28.18c-1.05-29.1,6.09-58.57,15.58-87.73,2.51-7.69,5.19-15.38,7.94-23.07,7.66-21.46,15.7-43.09,21.5-65.5,6.75-26.06,10.07-53.51,6.62-78.47a125.41,125.41,0,0,0-2.35-12.36c-5-20.31-14.58-37.64-26.31-52.21S703.7-82.71,687.21-94"/><path class="cls-14" d="M911.12,564.23c5.6-37.18-9.73-75.83-35.64-102.84q-3.11-3.24-6.4-6.26c-25.34-23.21-58.23-34.68-86.11-52.37a175,175,0,0,1-78-112.28,145.06,145.06,0,0,1-3-28.75c-.07-29.6,8.1-59.26,18.37-88.63,2.72-7.75,5.59-15.51,8.51-23.26,8.14-21.66,16.49-43.54,22.35-66.29,6.81-26.45,9.78-54.45,5.5-79.66a119.91,119.91,0,0,0-2.82-12.47c-5.8-20.42-16.58-37.53-29.39-51.64s-28-25.64-45.25-36.29"/><path class="cls-15" d="M898.85,566.05c5.51-36.41-9.59-74.18-34.76-100.8q-3-3.19-6.22-6.18c-24.59-23-56.49-34.83-83.25-52.85a176.35,176.35,0,0,1-75.15-116.91,148.8,148.8,0,0,1-2-29.31c.9-30.11,10.1-59.95,21.17-89.54,2.92-7.8,6-15.62,9.07-23.45,8.61-21.85,17.29-44,23.2-67.07,6.87-26.84,9.5-55.38,4.37-80.85A112,112,0,0,0,752-13.48C745.31-34,733.38-50.91,719.49-64.55S689.45-89,671.35-99"/><path class="cls-16" d="M886.58,567.86c5.43-35.63-9.46-72.51-33.89-98.76q-2.93-3.14-6-6.1c-23.84-22.7-54.73-35-80.39-53.31-40.49-28.9-65.91-73.62-72.32-121.54a153.78,153.78,0,0,1-1.1-29.89c1.88-30.6,12.11-60.64,24-90.43,3.13-7.86,6.38-15.74,9.64-23.64,9.09-22,18.08-44.43,24-67.85,6.94-27.24,9.23-56.33,3.26-82A112.78,112.78,0,0,0,750-18.39c-7.51-20.67-20.59-37.32-35.56-50.5s-32.12-23.29-51-32.66"/><path class="cls-17" d="M874.31,569.67c5.34-34.85-9.32-70.85-33-96.71q-2.84-3.09-5.84-6c-23.08-22.45-53-35.2-77.54-53.79C717.56,382.65,693.36,336,688.43,287a158.94,158.94,0,0,1-.16-30.46c2.86-31.11,14.12-61.33,26.75-91.33,3.34-7.92,6.79-15.86,10.22-23.83,9.56-22.24,18.87-44.87,24.88-68.64,7-27.63,8.94-57.26,2.14-83.24a108.58,108.58,0,0,0-4.21-12.78c-8.36-20.79-22.59-37.22-38.64-49.93s-34.2-22.12-53.92-30.85"/><path class="cls-18" d="M862,571.48c5.26-34.07-9.18-69.18-32.14-94.66q-2.76-3.06-5.66-5.95c-22.33-22.19-51.14-35.42-74.68-54.26-40.18-32.15-63.21-80.7-66.65-130.79a163.36,163.36,0,0,1,.78-31c3.84-31.61,16.13-62,29.54-92.24,3.55-8,7.19-16,10.79-24,10-22.44,19.66-45.32,25.73-69.43,7-28,8.66-58.2,1-84.43a104,104,0,0,0-4.68-12.88c-9.2-20.92-24.56-37.16-41.71-49.37s-36.3-20.94-56.81-29"/><path class="cls-19" d="M849.77,573.29c5.17-33.29-9-67.51-31.27-92.62-1.77-2-3.6-4-5.47-5.86-21.58-21.93-49.31-35.67-71.82-54.73-40-33.85-61.86-84.26-63.82-135.42a169,169,0,0,1,1.72-31.6c4.81-32.1,18.14-62.71,32.34-93.13,3.75-8,7.58-16.09,11.35-24.2C733.31,113.1,743.26,90,749.37,65.52c7.12-28.43,8.39-59.14-.09-85.63a103.48,103.48,0,0,0-5.14-13c-10.06-21-26.57-37.05-44.8-48.79s-38.38-19.76-59.7-27.22"/><path class="cls-20" d="M837.5,575.1c5.09-32.5-8.91-65.85-30.4-90.57-1.71-2-3.48-3.9-5.28-5.78-20.83-21.68-47.46-35.93-69-55.21-39.68-35.59-60.51-87.8-61-140a174.77,174.77,0,0,1,2.65-32.17c5.8-32.61,20.15-63.4,35.14-94,4-8.08,8-16.21,11.92-24.39,11-22.83,21.25-46.22,27.42-71,7.18-28.82,8.1-60.08-1.22-86.82A101.63,101.63,0,0,0,742.18-38c-10.91-21.16-28.57-36.95-47.88-48.23s-40.46-18.58-62.59-25.4"/><path class="cls-21" d="M825.23,576.91c5-31.72-8.77-64.18-29.52-88.52q-2.49-2.92-5.11-5.71C770.53,461.26,745,446.49,724.5,427c-39.35-37.36-59.16-91.34-58.15-144.66a179.69,179.69,0,0,1,3.59-32.74c6.78-33.11,22.16-64.09,37.93-94.93,4.17-8.14,8.38-16.33,12.49-24.59,11.46-23,22-46.66,28.27-71.78,7.23-29.21,7.82-61-2.34-88a100.38,100.38,0,0,0-6.07-13.2c-11.76-21.28-30.57-36.84-51-47.65s-42.54-17.41-65.48-23.6"/><path class="cls-22" d="M813,578.72c4.92-30.94-8.64-62.51-28.65-86.48q-2.4-2.87-4.91-5.62c-19.32-21.17-43.69-36.48-63.25-56.15-39-39.19-57.81-94.89-55.32-149.3a185.72,185.72,0,0,1,4.53-33.3c7.76-33.62,24.17-64.79,40.72-95.84,4.38-8.19,8.78-16.44,13.07-24.77,11.93-23.21,22.83-47.11,29.1-72.56,7.3-29.61,7.55-62-3.45-89.21a99.31,99.31,0,0,0-6.53-13.3c-12.62-21.41-32.59-36.74-54-47.09s-44.63-16.23-68.37-21.78"/><path class="cls-23" d="M800.69,580.53c4.83-30.16-8.5-60.85-27.78-84.43q-2.29-2.82-4.73-5.55c-18.56-20.91-41.75-36.75-60.38-56.62C669.3,392.88,651.33,335.5,655.31,280a192,192,0,0,1,5.47-33.88C669.51,212,687,180.66,704.3,149.4c4.58-8.25,9.18-16.56,13.63-25,12.4-23.41,23.62-47.55,30-73.35,7.36-30,7.26-62.9-4.57-90.4a99.22,99.22,0,0,0-7-13.4c-13.46-21.53-34.59-36.64-57.13-46.52s-46.71-15.06-71.26-20"/><path class="cls-24" d="M788.42,582.34c4.75-29.38-8.36-59.18-26.9-82.38-1.48-1.86-3-3.68-4.54-5.47-17.82-20.65-39.81-37.05-57.54-57.1-38-42.94-55.11-102-49.65-158.54a198.15,198.15,0,0,1,6.41-34.45c9.71-34.62,28.18-66.16,46.31-97.63,4.79-8.31,9.58-16.68,14.2-25.15,12.88-23.61,24.42-48,30.8-74.14,7.42-30.39,7-63.83-5.69-91.6a100.5,100.5,0,0,0-7.47-13.5c-14.31-21.65-36.59-36.53-60.2-45.95s-48.8-13.87-74.15-18.15"/><path class="cls-25" d="M776.15,584.15c4.66-28.6-8.22-57.51-26-80.34q-2.13-2.73-4.36-5.38c-17.06-20.4-37.83-37.33-54.67-57.57C653.74,396,637.32,335.34,644.27,277.68a203.69,203.69,0,0,1,7.35-35c10.69-35.12,30.19-66.86,49.1-98.54,5-8.36,10-16.8,14.77-25.33C728.85,95,740.7,70.35,747.13,43.88c7.48-30.79,6.71-64.78-6.8-92.8a100.28,100.28,0,0,0-7.94-13.6C717.23-84.3,693.8-99,669.11-107.9s-50.88-12.7-77-16.34"/><path class="cls-26" d="M763.88,586c4.58-27.82-8.09-55.85-25.15-78.29s-38.61-41.15-56-63.35c-44.18-56.43-58-135.28-35.7-203.39,11.67-35.62,32.2-67.54,51.89-99.43s39-64.8,47.83-101.23,5.8-77.44-16.32-107.69c-16-21.91-40.6-36.34-66.37-44.82s-53-11.52-79.93-14.52"/><path class="cls-27" d="M569.43-132.64c8.49,2.2,17.68,4.39,27.11,6.46s19.08,4.06,28.66,6.37a281.93,281.93,0,0,1,28.32,8.36c25.32,9,49.65,23.11,65.56,44.8,22,30,25.47,70.37,17.43,106.48q-.88,3.95-1.93,7.85c-5.59,21-14.54,40.88-24.71,60.15-5.84,11.13-12.23,21.94-18.71,32.7-2.48,4.12-5,8.25-7.49,12.4-16.72,27.7-33.1,55.79-43,86.56a212.68,212.68,0,0,0-8,35.21c-8.19,58.29,7.26,120,43.48,166.57,12,15.48,26.09,29.16,39.56,43.31,6.74,7.08,13.33,14.29,19.41,21.92a159.4,159.4,0,0,1,16.15,24.32c9.3,17.49,14.64,36.88,11.77,56.31"/><path class="cls-28" d="M554.71-138.51A260.31,260.31,0,0,0,582-128.82c9.89,2.93,20.25,5.51,30.54,8.3S633-114.44,643-110.67c24.88,9.4,48.93,23.32,64.73,44.8C729.54-36.2,733.52,3.61,726.24,39.38q-.79,3.91-1.76,7.79C719.36,68,710.87,87.74,701.32,107c-5.51,11.12-11.65,21.86-17.94,32.58q-3.61,6.15-7.29,12.37c-16.26,27.59-32.15,55.56-41.72,86.12A215.55,215.55,0,0,0,626.59,273c-7.93,57.82,7.36,118.89,43,165.25C682,454.35,696.74,468.49,711,483c7.11,7.24,14.08,14.59,20.56,22.37a167.06,167.06,0,0,1,17.32,24.83c10,17.88,16,37.93,13.38,58.13"/><path class="cls-29" d="M540-144.39a157.5,157.5,0,0,0,27.39,12.93c10.34,3.8,21.41,7,32.42,10.24s21.93,7.07,32.61,11.33c24.47,9.75,48.22,23.52,63.92,44.79C718-35.71,722.48,3.5,716,38.94q-.72,3.89-1.58,7.72c-4.66,20.66-12.68,40.27-21.61,59.44-5.18,11.12-11.08,21.79-17.19,32.48-2.34,4.08-4.71,8.17-7.08,12.32-15.79,27.49-31.21,55.35-40.47,85.69a217.58,217.58,0,0,0-7.54,34.67c-7.67,57.34,7.37,117.82,42.49,163.92,12.79,16.79,28.23,31.38,43.2,46.16,7.48,7.4,14.85,14.88,21.72,22.81a174.16,174.16,0,0,1,18.48,25.35c10.78,18.27,17.46,39,15,60"/><path class="cls-30" d="M525.24-150.27c7,5.79,16.73,11.52,27.53,16.18s22.57,8.39,34.31,12.16,23.36,8.07,34.74,12.82c24.07,10.06,47.51,23.73,63.1,44.79,21.55,29.09,26.51,67.7,20.75,102.81q-.63,3.85-1.41,7.65c-4.19,20.5-11.73,40-20,59.09-4.85,11.13-10.51,21.72-16.43,32.38q-3.4,6.07-6.87,12.27c-15.33,27.38-30.27,55.14-39.24,85.27a220.17,220.17,0,0,0-7.3,34.4c-7.4,56.86,7.37,116.75,42,162.58,13.19,17.46,29.31,32.49,45,47.6,7.86,7.55,15.62,15.17,22.88,23.25a181.51,181.51,0,0,1,19.64,25.86c11.53,18.67,18.87,40,16.61,61.78"/><path class="cls-31" d="M510.49-156.15c6.49,7,16.42,13.91,27.67,19.42s23.73,9.84,36.19,14.1,24.81,9,36.88,14.31C634.91-98,658-84.4,673.52-63.55c21.4,28.81,26.85,66.82,21.85,101.6-.36,2.54-.78,5.07-1.24,7.58-3.72,20.33-10.78,39.7-18.49,58.73A325.33,325.33,0,0,1,660,136.64c-2.2,4-4.43,8.09-6.67,12.22-14.87,27.28-29.32,54.93-38,84.84a222.53,222.53,0,0,0-7,34.13c-7.13,56.38,7.36,115.69,41.51,161.25,13.59,18.13,30.38,33.61,46.83,49,8.23,7.71,16.39,15.47,24,23.7a189.6,189.6,0,0,1,20.81,26.37c12.26,19.06,20.28,41.06,18.21,63.6"/><path class="cls-32" d="M495.73-162c6,8.18,16.11,16.29,27.81,22.66s24.89,11.28,38.08,16,26.26,10,39,15.8c23.3,10.55,46.08,24.13,61.47,44.77,21.26,28.51,27.2,65.92,23,100.38-.31,2.51-.67,5-1.07,7.51-3.25,20.16-9.83,39.42-16.94,58.38a284.39,284.39,0,0,1-14.91,32.16c-2.12,4-4.29,8.05-6.46,12.18-14.4,27.18-28.38,54.72-36.76,84.41a225.33,225.33,0,0,0-6.8,33.86c-6.88,55.91,7.33,114.65,41,159.92,14,18.8,31.45,34.72,48.65,50.46,8.6,7.87,17.15,15.77,25.2,24.14a199.12,199.12,0,0,1,22,26.88C752,547,760.64,569.62,758.78,593"/><path class="cls-33" d="M481-167.91c5.49,9.38,15.79,18.67,27.95,25.91s26.05,12.72,40,18,27.71,11,41.16,17.28C613-96,635.41-82.42,650.7-62c21.11,28.22,27.54,65,24.06,99.15q-.37,3.75-.9,7.45c-2.78,20-8.87,39.13-15.38,58a246.93,246.93,0,0,1-14.16,32.06c-2,4-4.14,8-6.24,12.13-14,27.08-27.44,54.51-35.53,84A229.42,229.42,0,0,0,596,264.39C589.38,319.82,603.3,378,636.51,423,650.88,442.46,669,458.82,687,474.88c9,8,17.92,16.06,26.36,24.58a206,206,0,0,1,23.13,27.39c13.75,19.86,23.1,43.15,21.44,67.26"/><path class="cls-34" d="M466.2-173.78c5,10.57,15.48,21,28.09,29.14s27.22,14.16,41.85,19.89,29.16,11.92,43.3,18.77C602-95,624.1-81.44,639.28-61.22c21,27.93,27.88,64.15,25.17,97.94q-.3,3.7-.74,7.38C661.4,63.92,655.8,83,649.89,101.76c-3.51,11.17-8.19,21.44-13.4,32-2,4-4,8-6,12.09C617,172.8,604,200.1,596.17,229.36a233.48,233.48,0,0,0-6.32,33.31c-6.34,54.95,7.28,112.57,40,157.27,14.76,20.14,33.59,36.94,52.29,53.32,9.35,8.19,18.68,16.36,27.51,25a213.71,213.71,0,0,1,24.3,27.9c14.49,20.25,24.5,44.2,23,69.08"/><path class="cls-35" d="M451.43-179.66c4.49,11.77,15.16,23.42,28.23,32.39s28.38,15.6,43.73,21.82S554-112.6,568.83-105.2c22.22,11.11,43.95,24.75,59,44.76,20.82,27.64,28.23,63.25,26.28,96.72-.15,2.44-.33,4.88-.56,7.3-1.85,19.66-7,38.57-12.27,57.31-3.17,11.18-7.61,21.37-12.64,31.86-1.89,3.94-3.85,7.93-5.83,12-13,26.89-25.56,54.07-33.05,83.12a236.83,236.83,0,0,0-6.07,33c-6.08,54.48,7.23,111.55,39.53,155.94,15.15,20.82,34.67,38.06,54.11,54.75C687.07,480,696.8,488.3,706,497.12a222.33,222.33,0,0,1,25.47,28.41c15.22,20.64,25.9,45.24,24.65,70.91"/><path class="cls-36" d="M436.65-185.54c4,13,14.85,25.81,28.37,35.63s29.54,17,45.62,23.75,32.09,13.78,47.58,21.75c21.88,11.25,43.23,24.94,58.2,44.74C637.1-32.32,645,2.7,643.8,35.83q-.12,3.63-.39,7.24c-1.38,19.5-6,38.29-10.71,57-2.83,11.2-7,21.3-11.88,31.75-1.82,3.92-3.71,7.9-5.63,12-12.49,26.79-24.61,53.86-31.8,82.69a241.9,241.9,0,0,0-5.83,32.78c-5.81,54,7.19,110.51,39,154.6,15.53,21.5,35.74,39.18,55.93,56.19,10.09,8.5,20.21,17,29.82,25.91A231.65,231.65,0,0,1,729,524.86c16,21,27.31,46.3,26.26,72.74"/><path class="cls-37" d="M421.87-191.42c3.49,14.17,14.53,28.19,28.52,38.87s30.69,18.49,47.5,25.69,33.55,14.7,49.71,23.23C569.15-92.25,590.12-78.48,605-58.89c20.53,27.06,28.91,61.48,28.49,94.28q-.06,3.59-.22,7.17c-.91,19.33-5,38-9.16,56.6-2.48,11.2-6.46,21.22-11.12,31.64-1.75,3.9-3.57,7.85-5.42,11.95-12,26.68-23.67,53.65-30.57,82.26a245.92,245.92,0,0,0-5.58,32.51C565.86,311,578.54,367,610,410.8c15.91,22.18,36.81,40.28,57.74,57.61,10.47,8.66,21,17.25,31,26.36a240.22,240.22,0,0,1,27.79,29.43c16.71,21.44,28.72,47.34,27.87,74.57"/><path class="cls-38" d="M407.08-197.3c3,15.37,14.22,30.57,28.66,42.12s31.86,19.93,49.39,27.61,35,15.61,51.85,24.72c21.22,11.5,41.81,25.36,56.57,44.74,20.39,26.76,29.26,60.58,29.6,93.05,0,2.38,0,4.74,0,7.11-.45,19.16-4.08,37.73-7.61,56.24-2.13,11.22-5.88,21.15-10.36,31.54-1.67,3.87-3.43,7.81-5.21,11.9-11.57,26.58-22.72,53.44-29.33,81.84a251.32,251.32,0,0,0-5.34,32.23c-5.28,53,7.08,108.48,38.06,152,16.29,22.86,37.88,41.4,59.57,59,10.83,8.82,21.74,17.55,32.13,26.81a246.76,246.76,0,0,1,29,29.94c17.46,21.83,30.13,48.38,29.49,76.39"/><path class="cls-39" d="M392.3-203.18c2.5,16.56,13.9,33,28.8,45.36s33,21.37,51.27,29.55,36.51,16.49,54,26.2c20.9,11.62,41.1,25.56,55.75,44.73,20.24,26.48,29.61,59.7,30.7,91.84q.12,3.53.12,7c0,19-3.1,37.46-6,55.89-1.8,11.23-5.31,21.08-9.61,31.43-1.59,3.85-3.28,7.78-5,11.87-11.11,26.46-21.78,53.22-28.09,81.4a258.35,258.35,0,0,0-5.1,32c-5,52.57,7,107.46,37.57,150.62,16.66,23.55,39,42.51,61.38,60.47,11.21,9,22.51,17.85,33.3,27.26a255.53,255.53,0,0,1,30.12,30.45c18.2,22.22,31.54,49.43,31.09,78.21"/><path class="cls-40" d="M377.51-209c2,17.75,13.59,35.33,28.94,48.59s34.18,22.82,53.16,31.48,38,17.38,56.12,27.7c20.59,11.72,40.39,25.76,54.94,44.72,20.1,26.18,30,58.8,31.81,90.62q.19,3.48.29,7c.49,18.83-2.13,37.19-4.49,55.53-1.45,11.25-4.74,21-8.85,31.33-1.52,3.83-3.14,7.73-4.79,11.82-10.65,26.36-20.84,53-26.86,81a267.83,267.83,0,0,0-4.85,31.69c-4.74,52.09,7,106.45,37.07,149.29,17,24.24,40,43.63,63.21,61.91,11.58,9.13,23.27,18.14,34.45,27.69a264.53,264.53,0,0,1,31.29,31c18.94,22.62,32.95,50.47,32.7,80"/><path class="cls-41" d="M362.72-214.93c1.5,19,13.27,37.71,29.08,51.84s35.34,24.26,55,33.4,39.5,18.26,58.26,29.19c20.28,11.81,39.68,26,54.13,44.71,19.95,25.9,30.29,57.92,32.91,89.4q.29,3.45.46,6.9c1,18.66-1.16,36.91-2.93,55.18-1.1,11.25-4.17,20.92-8.09,31.22-1.45,3.8-3,7.69-4.59,11.77-10.18,26.26-19.89,52.8-25.62,80.54a274,274,0,0,0-4.6,31.42c-4.48,51.62,6.88,105.45,36.58,148,17.41,24.93,41.1,44.74,65,63.34,12,9.29,24,18.44,35.61,28.14a273.43,273.43,0,0,1,32.46,31.47c19.67,23,34.35,51.53,34.31,81.87"/><path class="cls-42" d="M347.88-220.81c1,20.15,13,40.09,29.23,55.08S413.61-140,434-130.39s41,19.11,60.41,30.67c20,11.91,39,26.17,53.3,44.71,19.81,25.6,30.64,57,34,88.18q.38,3.4.63,6.83c1.43,18.49-.18,36.63-1.38,54.82-.74,11.27-3.59,20.85-7.33,31.12-1.37,3.77-2.86,7.64-4.37,11.72-9.73,26.15-19,52.59-24.38,80.12a277.86,277.86,0,0,0-4.36,31.15c-4.22,51.13,6.8,104.43,36.08,146.63,17.77,25.61,42.17,45.85,66.84,64.76,12.33,9.45,24.81,18.74,36.77,28.59a282.38,282.38,0,0,1,33.62,32c20.42,23.41,35.76,52.57,35.92,83.69"/><path class="cls-43" d="M333.12-226.69c.5,21.35,12.64,42.47,29.36,58.33s37.67,27.14,58.81,37.26,42.53,20,62.54,32.16c19.68,12,38.26,26.38,52.49,44.71C556-28.92,567.3,1.9,571.45,32.72c.3,2.26.57,4.51.8,6.77,1.9,18.33.8,36.35.18,54.46-.39,11.29-3,20.78-6.58,31-1.3,3.76-2.71,7.61-4.16,11.68-9.27,26-18,52.37-23.15,79.69a290.22,290.22,0,0,0-4.11,30.88c-3.95,50.66,6.72,103.43,35.59,145.3,18.14,26.31,43.25,47,68.66,66.2,12.7,9.61,25.58,19,37.93,29a290.56,290.56,0,0,1,34.78,32.49c21.16,23.81,37.17,53.61,37.53,85.52"/><path class="cls-44" d="M318.35-232.57c0,22.55,12.33,44.85,29.51,61.57s38.82,28.58,60.69,39.2S452.6-111,473.23-98.16c19.39,12.08,37.54,26.58,51.68,44.7,19.51,25,31.32,55.25,36.22,85.74.36,2.23.69,4.46,1,6.69,2.37,18.17,1.8,36.08,1.74,54.11,0,11.3-2.45,20.71-5.81,30.91-1.23,3.73-2.59,7.56-4,11.64-8.86,25.91-17.07,52.15-21.91,79.25a301.51,301.51,0,0,0-3.87,30.61c-3.68,50.18,6.64,102.43,35.1,144,18.5,27,44.32,48.08,70.48,67.63,13.07,9.77,26.34,19.33,39.08,29.47a299,299,0,0,1,35.95,33c21.9,24.2,38.58,54.66,39.14,87.34"/><path class="cls-45" d="M303.59-238.45c-.5,23.75,12,47.24,29.64,64.81s40,30,62.58,41.13,45.59,21.62,66.82,35.14c19.1,12.15,36.83,26.78,50.86,44.69,19.37,24.73,31.67,54.35,37.33,84.52q.63,3.3,1.14,6.62c2.84,18,2.78,35.8,3.3,53.75.32,11.32-1.9,20.63-5.06,30.81-1.17,3.7-2.45,7.52-3.75,11.59-8.4,25.81-16.13,51.94-20.67,78.82-1.69,10-2.93,20.16-3.63,30.34-3.42,49.71,6.56,101.43,34.61,142.64,18.85,27.7,45.39,49.19,72.3,69.06,13.44,9.93,27.1,19.63,40.24,29.92s25.79,21.23,37.11,33.52c22.64,24.59,40,55.7,40.75,89.17"/><path class="cls-46" d="M288.82-244.32c-1,24.94,11.7,49.61,29.79,68s41.14,31.47,64.46,43.06,47.13,22.43,69,36.62c18.81,12.23,36.11,27,50,44.68,19.22,24.44,32,53.47,38.44,83.3q.71,3.27,1.31,6.56c3.31,17.83,3.77,35.52,4.85,53.4.68,11.32-1.32,20.55-4.3,30.7-1.09,3.68-2.3,7.48-3.55,11.54-7.93,25.71-15.18,51.73-19.42,78.4-1.59,9.95-2.74,20-3.38,30.06-3.16,49.23,6.46,100.43,34.11,141.31,19.2,28.4,46.46,50.31,74.12,70.5,13.81,10.08,27.87,19.92,41.4,30.36s26.58,21.53,38.27,34c23.38,25,41.4,56.76,42.36,91"/><path class="cls-47" d="M274.05-250.2c-1.49,26.13,11.39,52,29.93,71.29s42.31,32.91,66.35,45S419-110.69,441.42-95.81a211.55,211.55,0,0,1,49.23,44.68A214.75,214.75,0,0,1,530.2,31c.52,2.16,1,4.32,1.48,6.49,3.77,17.66,4.76,35.23,6.4,53,1,11.33-.75,20.48-3.54,30.59-1,3.66-2.16,7.44-3.34,11.5-7.47,25.6-14.23,51.52-18.18,78-1.48,9.87-2.55,19.8-3.14,29.79-2.89,48.75,6.37,99.44,33.62,140,19.55,29.1,47.53,51.41,75.94,71.92,14.18,10.24,28.63,20.22,42.55,30.81s27.37,21.84,39.44,34.53c24.12,25.39,42.8,57.8,44,92.82"/><path class="cls-48" d="M259.29-256.08c-2,27.33,11.07,54.37,30.07,74.53s43.47,34.36,68.23,46.93,50.24,24,73.23,39.59a217.59,217.59,0,0,1,48.41,44.68,225.84,225.84,0,0,1,40.65,80.86q.89,3.19,1.66,6.42c4.24,17.49,5.78,34.95,8,52.68,1.42,11.34-.18,20.41-2.79,30.49-.94,3.63-2,7.4-3.13,11.45-7,25.5-13.29,51.31-16.94,77.54-1.37,9.79-2.36,19.63-2.9,29.53-2.62,48.27,6.23,98.47,33.13,138.65,19.86,29.83,48.61,52.53,77.76,73.35,14.55,10.4,29.4,20.52,43.71,31.25s28.16,22.15,40.6,35c24.87,25.78,44.21,58.84,45.58,94.65"/><path class="cls-49" d="M244.52-262c-2.49,28.53,10.76,56.76,30.21,77.78s44.63,35.79,70.12,48.85,51.82,24.79,75.37,41.09c44.65,30.89,77,78.41,91.17,130.65,4.71,17.33,6.76,34.67,9.52,52.33,2.41,15.43-1,26.48-4.95,41.79-9,34.87-16.58,70.31-18.36,106.37-2.35,47.79,6.18,97.44,32.64,137.32,20.24,30.52,49.68,53.64,79.57,74.79s61,41.07,86.64,67.25,45.62,59.89,47.19,96.47"/><path class="cls-50" d="M232.72-253c-2.2,28.68,11.26,56.91,31,77.94a180.74,180.74,0,0,0,33.18,27.34,358.13,358.13,0,0,0,37.68,21.08c25.75,12.73,52.41,23.83,76.27,39.34C455.63-58.16,488.55-13,504.07,37.4c2.14,7,3.84,14,5.32,21,2.09,9.86,3.74,19.8,5.6,29.88,2.74,15.06-.13,26-3.59,41.06-5.84,25.82-11.12,52.11-14,78.79q-1.47,13.27-2.06,26.69c-1.52,36.21,2.82,73.49,16.24,106.86a182.76,182.76,0,0,0,15.27,29.87C545,400.08,571,422.45,598.12,442.77c1.92,1.43,3.84,2.86,5.77,4.27,28.27,20.77,57.93,40.32,82.51,65.41.81.83,1.61,1.66,2.41,2.5,25,26.31,44.27,60.16,44.85,96.17"/><path class="cls-51" d="M220.91-244c-1.91,28.84,11.77,57.08,31.7,78.11a179.08,179.08,0,0,0,33.53,27.25A343.51,343.51,0,0,0,324.2-118c26,12.41,53,22.88,77.18,37.6A225.94,225.94,0,0,1,496.74,38.39c2.33,6.72,4.22,13.47,5.91,20.29,2.39,9.56,4.32,19.24,6.41,29.09,3.09,14.7.7,25.52-2.22,40.34-5,25.45-9.55,51.56-12.08,78.07-.85,8.8-1.46,17.64-1.76,26.52-1.24,36,2.89,73,15.75,106.29a185.81,185.81,0,0,0,14.64,29.84c17.46,28.6,42.48,51.3,69,71.92,1.87,1.45,3.74,2.9,5.62,4.33,27.6,21.07,56.82,40.82,80.85,66.05.79.83,1.57,1.66,2.35,2.5,24.45,26.46,42.93,60.44,42.52,95.89"/><path class="cls-52" d="M209.07-235.1c-1.61,29,12.29,57.25,32.44,78.27a178,178,0,0,0,33.88,27.16,329.79,329.79,0,0,0,38.46,20.4c26.27,12.08,53.59,21.92,78.09,35.85a222.67,222.67,0,0,1,97.45,112.8c2.5,6.46,4.6,13,6.5,19.59,2.67,9.28,4.89,18.7,7.22,28.31,3.42,14.34,1.55,25-.85,39.62-4.13,25.1-8,51-10.12,77.36-.72,8.74-1.24,17.52-1.48,26.34-1,35.75,3,72.53,15.26,105.73a189.77,189.77,0,0,0,14,29.81c16.72,28.65,40.78,51.66,66.57,72.58,1.82,1.48,3.65,2.94,5.49,4.4,26.93,21.37,55.7,41.33,79.18,66.68.77.83,1.54,1.67,2.3,2.52,23.87,26.6,41.58,60.71,40.18,95.59"/><path class="cls-53" d="M197.21-226.14C195.88-197,210-168.73,230.39-147.71a177.56,177.56,0,0,0,34.23,27.07,319.83,319.83,0,0,0,38.84,20.06c26.53,11.75,54.17,21,79,34.1,45.28,24,80.07,61.83,99.55,106.84,2.69,6.22,5,12.51,7.08,18.91,3,9,5.49,18.14,8.05,27.52,3.79,14,2.39,24.58.51,38.9-3.26,24.74-6.4,50.45-8.16,76.65-.6,8.68-1,17.4-1.18,26.16-.68,35.52,3,72.05,14.77,105.16a194.13,194.13,0,0,0,13.39,29.78c16,28.7,39.11,52,64.22,73.26q2.66,2.24,5.34,4.46c26.26,21.67,54.58,41.84,77.52,67.32.75.83,1.5,1.68,2.24,2.53,23.3,26.74,40.24,61,37.85,95.29"/><path class="cls-54" d="M185.3-217.19c-1,29.3,13.3,57.57,33.93,78.6a176.3,176.3,0,0,0,34.58,27A306.8,306.8,0,0,0,293-91.9c26.79,11.42,54.73,20,79.9,32.37C418.33-37.29,453.78-1.86,474.58,41.35c2.87,6,5.36,12,7.67,18.22,3.26,8.68,6.07,17.58,8.86,26.74,4.14,13.59,3.24,24.1,1.87,38.17-2.38,24.39-4.81,49.89-6.19,75.94-.47,8.62-.79,17.28-.89,26C485.5,261.68,489,298,500.18,331A199.75,199.75,0,0,0,513,360.75c15.27,28.75,37.42,52.4,61.84,73.92,1.73,1.52,3.46,3,5.21,4.52,25.59,22,53.47,42.35,75.85,68q1.11,1.26,2.19,2.55c22.72,26.87,38.89,61.25,35.52,95"/><path class="cls-55" d="M173.37-208.23c-.74,29.45,13.8,57.73,34.67,78.76A175.37,175.37,0,0,0,243-102.59a298.13,298.13,0,0,0,39.63,19.38c27.05,11.09,55.29,19.09,80.8,30.62C408.88-32,445,.94,467.12,42.34c3.06,5.72,5.75,11.55,8.26,17.52,3.56,8.39,6.65,17,9.67,26,4.49,13.23,4.1,23.63,3.24,37.45-1.49,24-3.23,49.34-4.23,75.22-.34,8.56-.56,17.17-.59,25.81-.13,35.05,3.19,71.09,13.79,104a205.14,205.14,0,0,0,12.14,29.72c14.55,28.8,35.74,52.77,59.48,74.6,1.68,1.54,3.36,3.06,5.06,4.58,24.92,22.28,52.36,42.86,74.19,68.59.72.85,1.43,1.71,2.14,2.57,22.14,27,37.54,61.51,33.18,94.7"/><path class="cls-56" d="M161.4-199.28c-.45,29.61,14.31,57.9,35.42,78.93a174.71,174.71,0,0,0,35.27,26.79,288.83,288.83,0,0,0,40,19c27.31,10.77,55.83,18.17,81.7,28.88,45.57,18.87,82.39,49.39,105.83,89,3.23,5.46,6.11,11.07,8.84,16.83,3.84,8.1,7.23,16.47,10.49,25.17,4.82,12.87,4.95,23.16,4.6,36.73-.61,23.7-1.66,48.78-2.26,74.51-.22,8.5-.34,17.05-.31,25.63.16,34.82,3.27,70.6,13.31,103.46a210.94,210.94,0,0,0,11.51,29.7c13.82,28.84,34.05,53.14,57.11,75.26q2.45,2.34,4.93,4.65c24.24,22.58,51.23,43.37,72.52,69.23.7.85,1.39,1.71,2.08,2.57,21.57,27.16,36.2,61.79,30.85,94.41"/><path class="cls-57" d="M149.4-190.33c-.16,29.76,14.82,58.07,36.16,79.1a173.86,173.86,0,0,0,35.62,26.69,280.82,280.82,0,0,0,40.41,18.7C289.16-55.4,318-48.6,344.2-38.71c45.64,17.21,83.16,45.24,107.92,83,3.42,5.22,6.5,10.59,9.43,16.14,4.13,7.82,7.8,15.93,11.3,24.39,5.17,12.5,5.81,22.69,6,36,.28,23.35-.08,48.23-.3,73.8-.09,8.44-.12,16.92,0,25.45.43,34.58,3.34,70.12,12.81,102.9a218.57,218.57,0,0,0,10.89,29.66c13.1,28.9,32.37,53.51,54.75,75.93q2.37,2.39,4.78,4.72c23.57,22.88,50.12,43.87,70.86,69.86.68.86,1.36,1.72,2,2.59,21,27.3,34.86,62.06,28.51,94.11"/><path class="cls-58" d="M137.37-181.37c.14,29.91,15.33,58.23,36.91,79.26a173.48,173.48,0,0,0,36,26.6A274.45,274.45,0,0,0,251-57.15C278.87-47,308-40.82,334.56-31.77c45.7,15.57,83.93,41.1,110,77.07,3.6,5,6.88,10.11,10,15.45a249.27,249.27,0,0,1,12.13,23.61c5.5,12.13,6.67,22.22,7.33,35.28,1.16,23,1.5,47.67,1.66,73.08,0,8.39.11,16.81.28,25.28.72,34.35,3.42,69.64,12.33,102.33A228,228,0,0,0,498.56,350c12.38,28.94,30.69,53.87,52.39,76.6q2.29,2.4,4.64,4.77c22.9,23.19,49,44.39,69.19,70.51.67.86,1.33,1.73,2,2.6,20.41,27.43,33.5,62.33,26.17,93.82"/><path class="cls-59" d="M125.31-172.42C125.73-142.35,141.14-114,163-93a172.08,172.08,0,0,0,36.31,26.5,265.2,265.2,0,0,0,41.19,18c28.09,9.79,57.45,15.43,84.43,23.65,45.75,13.93,84.7,36.94,112.1,71.11,3.78,4.72,7.26,9.63,10.6,14.75a224.46,224.46,0,0,1,12.94,22.83c5.84,11.76,7.53,21.75,8.69,34.56,2.06,22.66,3.08,47.12,3.63,72.37.16,8.32.33,16.69.57,25.1,1,34.12,3.49,69.16,11.84,101.76a234.76,234.76,0,0,0,9.63,29.61c11.64,29,29,54.25,50,77.27q2.22,2.44,4.49,4.84c22.24,23.49,47.89,44.89,67.54,71.14.64.87,1.28,1.74,1.91,2.62,19.84,27.57,32.17,62.6,23.84,93.52"/><path class="cls-60" d="M113.21-163.46c.72,30.22,16.34,58.55,38.4,79.58a171.17,171.17,0,0,0,36.66,26.42,258.94,258.94,0,0,0,41.58,17.68c28.35,9.46,58,14.53,85.33,21.9C361-5.55,400.66,14.92,429.37,47.28c4,4.47,7.64,9.15,11.19,14.06a202,202,0,0,1,13.75,22c6.19,11.4,8.4,21.29,10.06,33.84,3,22.32,4.66,46.56,5.59,71.66.29,8.26.55,16.57.87,24.92,1.27,33.89,3.56,68.68,11.34,101.2a245.91,245.91,0,0,0,9,29.58c10.92,29,27.31,54.61,47.65,77.94,1.43,1.65,2.89,3.28,4.36,4.9,21.56,23.79,46.77,45.4,65.87,71.78.62.87,1.24,1.74,1.86,2.63,19.26,27.71,30.82,62.87,21.5,93.22"/><path class="cls-61" d="M101.08-154.51c1,30.38,16.85,58.72,39.14,79.75a170.55,170.55,0,0,0,37,26.32,251.77,251.77,0,0,0,42,17.34c28.61,9.14,58.49,13.66,86.23,20.16C351.26-.2,391.69,17.71,421.72,48.26a171.42,171.42,0,0,1,11.77,13.37,183.29,183.29,0,0,1,14.58,21.26c6.51,11,9.26,20.82,11.42,33.12,3.86,22,6.23,46,7.55,71,.42,8.2.78,16.45,1.16,24.74,1.55,33.65,3.64,68.2,10.86,100.63a258.63,258.63,0,0,0,8.37,29.55c10.2,29.1,25.64,55,45.29,78.61,1.39,1.67,2.79,3.33,4.22,5,20.89,24.09,45.65,45.91,64.2,72.41l1.81,2.64c18.68,27.86,29.47,63.15,19.17,92.93"/><path class="cls-62" d="M88.92-145.56c1.3,30.53,17.36,58.89,39.88,79.92a169.91,169.91,0,0,0,37.36,26.23,246.42,246.42,0,0,0,42.36,17c28.87,8.81,59,12.79,87.14,18.41,45.86,9.18,87,24.51,118.38,53.25A166.56,166.56,0,0,1,426.4,61.93a170.05,170.05,0,0,1,15.39,20.48c6.85,10.66,10.13,20.35,12.78,32.39,4.78,21.64,7.82,45.45,9.52,70.23.54,8.15,1,16.34,1.45,24.58,1.83,33.41,3.72,67.71,10.37,100.06a269.44,269.44,0,0,0,7.75,29.52,252.08,252.08,0,0,0,42.92,79.28c1.34,1.69,2.7,3.36,4.08,5,20.22,24.39,44.53,46.41,62.53,73.05.6.88,1.18,1.76,1.76,2.65,18.1,28,28.12,63.42,16.83,92.64"/><path class="cls-63" d="M76.73-136.6c1.58,30.68,17.86,59,40.62,80.08a169.19,169.19,0,0,0,37.7,26.13,241.57,241.57,0,0,0,42.76,16.67c29.12,8.48,59.53,11.93,88,16.66,45.89,7.63,87.8,20.36,120.47,47.3a160.16,160.16,0,0,1,12.95,12,156.46,156.46,0,0,1,16.21,19.69c7.18,10.3,11,19.88,14.15,31.67,5.68,21.3,9.39,44.9,11.47,69.52.67,8.08,1.23,16.22,1.75,24.4,2.11,33.18,3.79,67.22,9.88,99.49a287.91,287.91,0,0,0,7.12,29.49,251,251,0,0,0,40.55,79.95q2,2.56,3.94,5.09c19.55,24.69,43.42,46.93,60.87,73.69.58.89,1.15,1.77,1.7,2.67,17.53,28.13,26.78,63.69,14.5,92.34"/><path class="cls-64" d="M64.5-127.65c1.88,30.84,18.37,59.21,41.37,80.25a168.8,168.8,0,0,0,38,26A236.34,236.34,0,0,0,187.06-5C216.45,3.12,247.11,6.05,276,9.89,321.93,16,364.58,26.1,398.58,51.23a154.13,154.13,0,0,1,13.53,11.29,146.8,146.8,0,0,1,17,18.91c7.52,9.94,11.88,19.41,15.52,30.95,6.6,21,11,44.34,13.44,68.81.79,8,1.45,16.1,2,24.22,2.39,32.94,3.87,66.74,9.39,98.92,1.72,10,3.84,19.82,6.5,29.47a250.41,250.41,0,0,0,38.19,80.62q1.86,2.59,3.8,5.15c18.88,25,42.3,47.44,59.2,74.33.56.88,1.11,1.78,1.65,2.68,16.95,28.27,25.43,64,12.16,92"/><path class="cls-65" d="M52.24-118.69c2.17,31,18.88,59.37,42.12,80.41a167.92,167.92,0,0,0,38.39,25.94,231.47,231.47,0,0,0,43.54,16c29.65,7.83,60.56,10.25,89.85,13.18,46,4.59,89.35,12.06,124.66,35.38a150.85,150.85,0,0,1,14.12,10.61,139.52,139.52,0,0,1,17.84,18.12c7.85,9.58,12.75,18.94,16.88,30.23,7.52,20.6,12.54,43.79,15.4,68.1.92,8,1.67,16,2.33,24,2.67,32.71,3.94,66.26,8.9,98.36,1.54,9.93,3.45,19.77,5.87,29.43,7.29,29.29,18.89,56.46,35.82,81.29,1.2,1.76,2.42,3.49,3.66,5.22,18.21,25.29,41.19,47.94,57.54,75q.81,1.33,1.59,2.7c16.38,28.41,24.09,64.23,9.83,91.75"/><path class="cls-66" d="M40-109.74C42.42-78.59,59.34-50.2,82.81-29.16A167.76,167.76,0,0,0,121.56-3.31a228,228,0,0,0,43.92,15.65c29.91,7.5,61.09,9.43,90.76,11.43,46,3.1,90.12,7.92,126.75,29.43a146.24,146.24,0,0,1,14.71,9.91,133.17,133.17,0,0,1,18.65,17.35A100.84,100.84,0,0,1,434.6,110c8.45,20.25,14.12,43.23,17.36,67.38,1.05,7.91,1.9,15.87,2.62,23.87,2.95,32.48,4,65.78,8.41,97.79,1.37,9.9,3.07,19.74,5.24,29.41,6.57,29.34,17.22,56.82,33.47,82,1.14,1.77,2.32,3.53,3.51,5.28,17.54,25.59,40.07,48.45,55.88,75.6.52.89,1,1.79,1.54,2.7,15.8,28.56,22.74,64.51,7.49,91.46"/><path class="cls-67" d="M27.64-100.79c2.75,31.3,19.89,59.7,43.6,80.75A167.15,167.15,0,0,0,110.33,5.71,223.32,223.32,0,0,0,154.65,21c30.16,7.17,61.61,8.63,91.66,9.69,46,1.63,90.89,3.77,128.85,23.48a139.12,139.12,0,0,1,15.29,9.22A126.45,126.45,0,0,1,409.92,80a104.11,104.11,0,0,1,19.61,28.78c9.38,19.9,15.7,42.68,19.33,66.67,1.17,7.84,2.12,15.74,2.91,23.69,3.23,32.24,4.09,65.3,7.92,97.23,1.19,9.86,2.68,19.69,4.61,29.37,5.85,29.39,15.54,57.2,31.1,82.63q1.65,2.7,3.37,5.34c16.87,25.9,39,49,54.22,76.24.5.9,1,1.81,1.48,2.72,15.22,28.7,21.4,64.78,5.16,91.16"/><path class="cls-68" d="M15.29-91.83C18.34-60.38,35.69-32,59.64-10.93A166.09,166.09,0,0,0,99.08,14.74a220.17,220.17,0,0,0,44.7,15c30.43,6.84,62.16,7,92.57,7.95,46.06,1.43,91.67-.38,130.94,17.52a138.37,138.37,0,0,1,15.88,8.52,123.18,123.18,0,0,1,20.29,15.78,107.28,107.28,0,0,1,21,28.06c10.32,19.54,17.28,42.12,21.29,66,1.3,7.78,2.34,15.62,3.21,23.51,3.5,32,4.16,64.82,7.43,96.66,1,9.84,2.29,19.65,4,29.35,5.12,29.44,13.85,57.56,28.73,83.3q1.57,2.71,3.24,5.4c16.19,26.2,37.84,49.47,52.55,76.88.48.9,1,1.81,1.43,2.73,14.64,28.83,20.05,65.05,2.82,90.86"/><path class="cls-69" d="M2.92-82.88C6.25-51.27,23.82-22.85,48-1.81A165.85,165.85,0,0,0,87.79,23.76a216,216,0,0,0,45.1,14.63c30.69,6.52,62.67,7.06,93.48,6.21,46.13-1.28,92.43-4.53,133,11.56A136.71,136.71,0,0,1,375.86,64,119.84,119.84,0,0,1,397,79a110.33,110.33,0,0,1,22.34,27.34c11.26,19.17,18.86,41.57,23.26,65.24,1.42,7.73,2.56,15.51,3.49,23.34,3.79,31.78,4.25,64.34,6.95,96.09.83,9.81,1.9,19.62,3.35,29.32,4.4,29.49,12.17,57.93,26.37,84q1.5,2.76,3.09,5.47c15.53,26.5,36.73,50,50.89,77.51.47.91.92,1.83,1.37,2.75,14.07,29,18.71,65.32.49,90.57"/><path class="cls-70" d="M-9.49-73.92C-5.86-42.16,11.93-13.73,36.35,7.31A165.22,165.22,0,0,0,76.48,32.79,213,213,0,0,0,122,47.08c30.95,6.19,63.21,6.29,94.38,4.46,46.2-2.71,93.21-8.67,135.12,5.61a133.22,133.22,0,0,1,17,7.14,119.15,119.15,0,0,1,21.92,14.22,114.47,114.47,0,0,1,23.7,26.61c12.2,18.8,20.44,41,25.22,64.53,1.56,7.67,2.79,15.39,3.79,23.16,4.07,31.55,4.32,63.85,6.46,95.53.66,9.78,1.52,19.57,2.73,29.29,3.66,29.53,10.48,58.3,24,84.64,1,1.86,1.94,3.7,3,5.53,14.85,26.8,35.61,50.48,49.22,78.15q.68,1.37,1.32,2.76C543.32,517.82,547.19,554.3,528,579"/><path class="cls-71" d="M-21.92-65C-18-33,0-4.61,24.66,16.43A164.77,164.77,0,0,0,65.14,41.81a209.68,209.68,0,0,0,45.88,14c31.21,5.86,63.76,5.52,95.29,2.71,46.28-4.13,94-12.81,137.21-.34a132.54,132.54,0,0,1,17.64,6.45A116.94,116.94,0,0,1,409,103.91c13.14,18.43,22,40.46,27.18,63.82,1.68,7.61,3,15.27,4.08,23,4.35,31.31,4.4,63.37,6,95,.48,9.75,1.13,19.53,2.1,29.27,2.94,29.58,8.8,58.66,21.64,85.3.9,1.88,1.84,3.75,2.81,5.59,14.18,27.11,34.49,51,47.56,78.79.43.92.85,1.84,1.26,2.77,12.91,29.26,16,65.87-4.18,90"/><path class="cls-72" d="M-34.38-56C-28.09-8.13,9.43,31.69,53.78,50.84s94.5,20.31,142.46,14.58c52.77-6.3,108.16-20.23,157.52-.54,43.62,17.4,68.55,56.72,79.14,100.93,9.14,38.2,8.59,77.93,9.84,117.2s4.59,79.4,20.75,115.21c13.44,29.79,35.19,55.25,48.56,85.08s16.56,68.17-5.3,92.47"/><path class="cls-73" d="M-35.95-49.41C-28.7-4.82,9.37,33.49,53.11,52.92s92.35,22.29,138.51,18.52c50.76-4.31,103.73-15.88,151.32,4.65,42.05,18.13,66.57,57.24,77.87,100.47q2.19,8.41,3.84,16.89c6.27,32,7.19,64.42,9.35,96.56,1.22,18.12,2.88,36.45,6.1,54.53,3.5,19.64,8.83,39,17.39,57.3,9.41,20.09,22.46,38.33,33.95,57.39a239.78,239.78,0,0,1,14.25,26.82c13.08,29.61,16.11,67.45-5.13,91.77"/><path class="cls-74" d="M-37.52-42.8C-29.3-1.51,9.3,35.3,52.45,55S142.65,79.43,187,77.47c48.75-2.16,99.31-11.55,145.12,9.82,40.48,18.87,64.59,57.78,76.6,100q2.34,8.24,4.19,16.49c7,31.16,9.09,62.29,12.35,93.21a512.3,512.3,0,0,0,7.79,52.58c4,19,9.73,37.89,18.45,55.86,9.57,19.71,22.53,37.79,33.84,56.71a232,232,0,0,1,14,26.63c12.8,29.4,15.67,66.74-4.95,91.07"/><path class="cls-75" d="M-39.09-36.2c9.18,38,48.33,73.3,90.88,93.29s88,27,130.58,26.4c46.74-.61,94.9-7.21,138.93,15,38.91,19.61,62.61,58.31,75.33,99.59q2.49,8.05,4.53,16.08c7.76,30.34,11,60.18,15.35,89.87,2.45,16.74,5.3,33.7,9.48,50.63,4.54,18.4,10.64,36.78,19.51,54.41,9.75,19.35,22.6,37.25,33.74,56A229.27,229.27,0,0,1,493,491.55c12.5,29.18,15.22,66-4.79,90.37"/><path class="cls-76" d="M-40.66-29.59c10.14,34.7,49.83,68.5,91.78,88.76S137,87.71,177.75,89.51c44.72,2,90.48-2.86,132.73,20.18,37.33,20.35,60.63,58.84,74.06,99.15,1.76,5.24,3.37,10.47,4.88,15.68,8.5,29.5,12.91,58.06,18.35,86.52,3.06,16,6.5,32.32,11.16,48.68a278.93,278.93,0,0,0,20.58,53c9.91,19,22.67,36.71,33.63,55.35a221.09,221.09,0,0,1,13.45,26.27c12.22,29,14.78,65.3-4.61,89.66"/><path class="cls-77" d="M-42.23-23C-31.12,8.42,9.11,40.71,50.46,61.25s83.69,30.59,122.67,34.28c42.68,4,86.05,1.48,126.53,25.36,35.76,21.09,58.65,59.37,72.79,98.71q2.79,7.68,5.22,15.28c9.24,28.67,14.82,55.93,21.36,83.17,3.67,15.35,7.7,30.94,12.85,46.73a306.69,306.69,0,0,0,21.63,51.53C443.6,434.92,456.26,452.47,467,471a217.54,217.54,0,0,1,13.19,26.08c11.92,28.75,14.34,64.59-4.44,89"/><path class="cls-78" d="M-43.8-16.37C-31.73,11.73,9,42.51,49.8,63.34a387.85,387.85,0,0,0,118.71,38.21c40.63,6.1,81.63,5.83,120.33,30.54C323,153.92,345.5,192,360.36,230.36q2.92,7.5,5.57,14.88c10,27.84,16.73,53.81,24.35,79.82,4.29,14.66,8.91,29.56,14.54,44.78a346.48,346.48,0,0,0,22.7,50.09c10.25,18.24,22.81,35.62,33.43,54a211.71,211.71,0,0,1,12.91,25.89c11.63,28.54,13.9,63.87-4.26,88.26"/><path class="cls-79" d="M-45.37-9.77C-32.34,15,9,44.32,49.13,65.42s79.31,34.67,114.76,42.15c38.58,8.14,77.21,10.17,114.13,35.73,32.62,22.56,54.68,60.42,70.25,97.82q3.08,7.32,5.91,14.47c10.73,27,18.64,51.69,27.36,76.48,4.91,14,10.11,28.18,16.22,42.83a403.92,403.92,0,0,0,23.76,48.65c10.43,17.86,22.89,35.07,33.33,53.3a207.65,207.65,0,0,1,12.65,25.71c11.34,28.32,13.45,63.16-4.09,87.56"/><path class="cls-80" d="M-46.94-3.16c14,21.51,55.85,49.28,95.41,70.66s77.11,36.7,110.8,46.09c36.51,10.18,72.79,14.51,107.93,40.91,31,23.3,52.63,61,69,97.38q3.21,7.14,6.26,14.07c11.47,26.18,20.54,49.57,30.36,73.12,5.52,13.28,11.31,26.81,17.91,40.89a490.61,490.61,0,0,0,24.82,47.21c10.6,17.49,23,34.53,33.22,52.62a200.07,200.07,0,0,1,12.38,25.52c11.05,28.11,13,62.44-3.91,86.86"/><path class="cls-81" d="M-48.51,3.45c15,18.21,57.36,44.48,96.32,66.14s74.89,38.71,106.84,50c34.44,12.2,68.37,18.86,101.73,46.09,29.47,24,50.64,61.53,67.71,96.94l6.6,13.67c12.22,25.35,22.46,47.44,33.37,69.77,6.13,12.59,12.52,25.43,19.59,38.94,7.67,14.69,16.09,30.18,25.88,45.77,10.77,17.12,23,34,33.12,51.94a194.83,194.83,0,0,1,12.11,25.34c10.77,27.89,12.57,61.72-3.73,86.15"/><path class="cls-82" d="M-50.08,10.05C-34.16,25,8.78,49.73,47.14,71.67s72.69,40.71,102.89,54c32.37,14.21,63.94,23.2,95.53,51.27,27.9,24.78,48.66,62.06,66.44,96.5q3.5,6.77,6.95,13.27c13,24.51,24.36,45.32,36.36,66.42,6.75,11.89,13.73,24.05,21.28,37,8.19,14.06,17,29.07,27,44.32,10.94,16.75,23.1,33.44,33,51.26a189.65,189.65,0,0,1,11.85,25.15c10.47,27.68,12.12,61-3.56,85.45"/><path class="cls-83" d="M-51.65,16.66c16.89,11.62,60.37,34.87,98.13,57.1s70.47,42.68,98.93,57.9c30.29,16.19,59.52,27.54,89.33,56.44,26.33,25.52,46.67,62.6,65.17,96.06q3.64,6.58,7.29,12.86c13.71,23.69,26.27,43.2,39.37,63.08,7.36,11.2,14.93,22.67,23,35,8.72,13.44,17.91,28,28,42.88,11.11,16.38,23.18,32.89,32.91,50.57a185.21,185.21,0,0,1,11.58,25c10.19,27.47,11.68,60.29-3.38,84.75"/><path class="cls-84" d="M-53.22,23.27c17.85,8.32,61.87,30.07,99,52.57s68.25,44.65,95,61.84c28.22,18.15,55.1,31.88,83.13,61.62,24.76,26.26,44.69,63.13,63.9,95.62q3.8,6.4,7.64,12.46c14.45,22.86,28.17,41.08,42.37,59.73,8,10.51,16.13,21.3,24.65,33.1,9.23,12.82,18.81,26.87,29.07,41.44,11.28,16,23.25,32.35,32.81,49.89a181.93,181.93,0,0,1,11.31,24.78c9.89,27.25,11.24,59.58-3.22,84"/><path class="cls-85" d="M-54.79,29.87C-36,34.9,8.59,55.14,45.15,77.92s66.05,46.6,91,65.78c26.16,20.1,50.68,36.22,76.93,66.81,23.18,27,42.71,63.65,62.64,95.17q3.93,6.21,8,12.06c15.2,22,30.09,38.95,45.37,56.38,8.6,9.81,17.34,19.92,26.34,31.15,9.76,12.2,19.72,25.77,30.13,40,11.45,15.63,23.32,31.8,32.71,49.21a175.78,175.78,0,0,1,11,24.59c9.6,27,10.8,58.86-3,83.35"/><path class="cls-86" d="M-56.36,36.48C-36.59,38.21,8.52,57,44.49,80s63.86,48.52,87.06,69.71c24.11,22,46.25,40.57,70.73,72,21.61,27.73,40.73,64.19,61.37,94.73q4.07,6,8.32,11.66c15.94,21.19,32,36.83,48.37,53,9.21,9.13,18.54,18.55,28,29.21,10.28,11.58,20.63,24.67,31.2,38.56,11.62,15.26,23.39,31.26,32.6,48.53a171.13,171.13,0,0,1,10.78,24.41c9.31,26.82,10.35,58.14-2.87,82.64"/><path class="cls-87" d="M-57.93,43.14c20.74-1.57,66.39,15.66,101.76,39s61.69,50.44,83.1,73.65C149,179.73,168.76,200.7,191.46,233c20,28.47,38.76,64.72,60.1,94.29,2.81,3.9,5.71,7.65,8.66,11.25,16.69,20.36,33.9,34.71,51.38,49.68,9.82,8.43,19.75,17.17,29.71,27.26a457.93,457.93,0,0,1,32.25,37.11c11.79,14.9,23.47,30.72,32.5,47.85a166.54,166.54,0,0,1,10.51,24.23c9,26.61,9.91,57.43-2.69,81.94"/><path class="cls-88" d="M-59.5,50.14C-37.8,45.28,8.39,61,43.17,84.61S102.7,137,122.31,162.2c20.07,25.85,37.41,49.26,58.32,82.35,18.48,29.21,36.79,65.25,58.84,93.85q4.36,5.67,9,10.85c17.43,19.53,35.81,32.59,54.37,46.33a391.32,391.32,0,0,1,31.4,25.31,348.53,348.53,0,0,1,33.32,35.68c12,14.52,23.53,30.17,32.39,47.16a162.45,162.45,0,0,1,10.25,24c8.73,26.4,9.46,56.71-2.52,81.25"/><path class="cls-89" d="M-61.07,57.46C-38.41,49.3,8.32,63.52,42.5,87.41s57.41,54.25,75.18,81.53c18.09,27.75,33,53.6,52.13,87.53,16.9,29.94,34.82,65.78,57.57,93.4q4.51,5.49,9.35,10.46c18.18,18.69,37.72,30.46,57.38,43a334.5,334.5,0,0,1,33.08,23.36,279.47,279.47,0,0,1,34.38,34.23c12.14,14.15,23.61,29.63,32.29,46.49a157.94,157.94,0,0,1,10,23.85c8.44,26.18,9,56-2.34,80.54"/><path class="cls-90" d="M-62.64,65C-39,53.58,8.26,66.29,41.84,90.47s55.29,56.15,71.22,85.46c16.12,29.66,28.58,57.94,45.93,92.71,15.33,30.69,32.89,66.26,56.3,93,3.12,3.52,6.34,6.88,9.7,10.05,18.92,17.86,39.62,28.34,60.38,39.63,11.66,6.35,23.36,13,34.76,21.41a234.2,234.2,0,0,1,35.45,32.79c12.3,13.78,23.68,29.08,32.18,45.81A153,153,0,0,1,397.47,535c8.16,26,8.59,55.29-2.16,79.85"/><path class="cls-91" d="M-64.21,72.82c24.59-14.75,72.4-3.54,105.39,20.91s53.2,58.06,67.26,89.4c14.17,31.57,24.15,62.28,39.73,97.89,13.76,31.42,30.91,66.79,55,92.52a138.13,138.13,0,0,0,10,9.65c19.67,17,41.54,26.22,63.39,36.28,12.27,5.67,24.56,11.66,36.45,19.47a202.09,202.09,0,0,1,36.5,31.35c12.48,13.41,23.75,28.54,32.09,45.12a151.13,151.13,0,0,1,9.44,23.48c7.86,25.76,8.14,54.57-2,79.14"/><path class="cls-92" d="M-65.78,80.77c25.55-18,73.91-8.35,106.29,16.39s51.13,60,63.31,93.34,19.73,66.62,33.53,103.07c12.19,32.16,28.93,67.32,53.76,92.07a124.19,124.19,0,0,0,10.39,9.25c20.41,16.21,43.44,24.1,66.38,32.94,12.9,5,25.77,10.27,38.14,17.52a187.57,187.57,0,0,1,69.55,74.34,145.1,145.1,0,0,1,9.17,23.3c7.57,25.54,7.7,53.85-1.81,78.44"/><path class="cls-93" d="M-67.35,88.86C-40.83,67.51,8.06,75.7,39.85,100.72S88.91,162.63,99.2,198s15.31,71,27.33,108.26c10.61,32.89,26.95,67.84,52.49,91.63a116,116,0,0,0,10.73,8.84c21.16,15.38,45.35,22,69.39,29.59,13.51,4.28,27,8.9,39.82,15.57a167.55,167.55,0,0,1,70.51,72.22,142.08,142.08,0,0,1,8.91,23.12c7.28,25.32,7.25,53.13-1.65,77.73"/><path class="cls-94" d="M-68.92,97.05c27.48-24.64,76.92-18,108.11,7.33s47,63.86,55.39,101.22S105.47,280.91,115.71,319c9,33.64,25,68.38,51.22,91.19A109.78,109.78,0,0,0,178,418.67c21.9,14.54,47.25,19.85,72.39,26.23,14.12,3.59,28.18,7.53,41.51,13.63a147.06,147.06,0,0,1,39.69,27,148.84,148.84,0,0,1,31.77,43.08A137.41,137.41,0,0,1,372,551.55c7,25.11,6.81,52.42-1.47,77"/><path class="cls-95" d="M-70.49,105.33c28.44-27.94,78.42-22.76,109,2.81S83.47,174,90,213.29,96.42,293,104.89,331.91,132.16,410,166.26,430.7c35.37,21.42,80.2,19.19,118.59,34.56a136.34,136.34,0,0,1,79.5,167"/><path class="cls-96" d="M361.24,630.35a135,135,0,0,0-4.19-91.61c-1-2.4-2.08-4.77-3.22-7.11a134.87,134.87,0,0,0-58.93-59.9,131.73,131.73,0,0,0-14.19-6.26c-19.25-7.16-40-9.84-60.32-13.24-20.16-3.37-39.94-7.44-57.54-17.25a103.62,103.62,0,0,1-13.6-9.1c-19.72-15.58-33.65-38-42.64-62.53a204.65,204.65,0,0,1-7-23.33,370.24,370.24,0,0,1-6.86-40.35c-3.15-25.86-4.8-52-9.32-77.66-3.71-20.68-9.71-41.55-19.22-60-8.65-16.82-20.09-31.6-35-42.9a91.26,91.26,0,0,0-27-14C-25.75,96-58,99.77-78.68,121"/><path class="cls-97" d="M359.49,629.4A132.05,132.05,0,0,0,355,538.09c-1-2.39-2.12-4.74-3.29-7.05a131.6,131.6,0,0,0-59.6-58.5,128,128,0,0,0-14.2-5.85c-19.25-6.61-39.85-8.69-60-11.42-20-2.72-39.57-6.06-57.15-15a100.47,100.47,0,0,1-13.64-8.38c-19.87-14.44-34.43-35.74-44-59.76a190,190,0,0,1-7.44-23,343.72,343.72,0,0,1-7.38-40.09c-3.41-25.75-5.19-51.82-10.06-77.33C74.36,211,67.84,190.07,57.73,172,48.54,155.49,36.55,141.44,21.4,131a90.23,90.23,0,0,0-27.2-12.5c-27.95-7.67-59.44-2.57-79.71,19.22"/><path class="cls-98" d="M358.54,629.09a129.2,129.2,0,0,0-4.73-91q-1.56-3.54-3.35-7A128.47,128.47,0,0,0,290.19,474,125.4,125.4,0,0,0,276,468.55c-19.24-6.05-39.7-7.54-59.66-9.6-19.8-2.07-39.2-4.67-56.76-12.75a99.54,99.54,0,0,1-13.68-7.65c-20-13.32-35.2-33.5-45.3-57a174.29,174.29,0,0,1-7.9-22.64,322,322,0,0,1-7.92-39.82c-3.67-25.63-5.62-51.63-10.78-77-4.24-20.87-11.23-41.76-21.94-59.5-9.73-16.13-22.27-29.45-37.7-39a89.53,89.53,0,0,0-27.41-11c-27.87-6.22-58.61.18-78.45,22.49"/><path class="cls-99" d="M357.59,628.88a126.46,126.46,0,0,0-5-90.72q-1.59-3.52-3.42-6.93A123.93,123.93,0,0,0,274,470.5c-19.22-5.49-39.54-6.37-59.33-7.77-19.6-1.41-38.82-3.28-56.36-10.5a98.48,98.48,0,0,1-13.72-6.93c-20.18-12.18-36-31.25-46.63-54.23a163.13,163.13,0,0,1-8.37-22.29,302.92,302.92,0,0,1-8.44-39.56c-3.93-25.51-6-51.44-11.51-76.66-4.53-21-12-41.88-23.3-59.24C36.06,177.53,23,164.94,7.25,156.3a88.5,88.5,0,0,0-27.61-9.5c-27.79-4.79-57.78,2.92-77.2,25.76"/><path class="cls-100" d="M356.64,628.77a123.83,123.83,0,0,0-5.26-90.42q-1.63-3.5-3.49-6.87a122.61,122.61,0,0,0-61.6-54.28A120.51,120.51,0,0,0,272,472.57c-19.22-4.94-39.39-5.22-59-6-19.42-.75-38.45-1.89-56-8.24a100.49,100.49,0,0,1-13.76-6.21c-20.33-11.05-36.75-29-48-51.47a151.19,151.19,0,0,1-8.83-21.94,283.79,283.79,0,0,1-9-39.29c-4.19-25.4-6.49-51.25-12.24-76.33-4.82-21.06-12.75-42-24.66-59C29.82,188.71,16.18,176.84.17,169.1a87.79,87.79,0,0,0-27.81-8c-27.71-3.34-56.95,5.67-75.95,29"/><path class="cls-101" d="M355.69,628.78a121.23,121.23,0,0,0-5.53-90.12q-1.67-3.46-3.56-6.81A119.77,119.77,0,0,0,284.34,479a116.84,116.84,0,0,0-14.29-4.23c-19.21-4.39-39.24-4.07-58.67-4.14-19.24-.09-38.08-.49-55.58-6a100.66,100.66,0,0,1-13.8-5.49c-20.48-9.92-37.53-26.77-49.29-48.71a141.35,141.35,0,0,1-9.3-21.59,266.75,266.75,0,0,1-9.49-39c-4.46-25.28-6.94-51.06-13-76-5.12-21.16-13.51-42.11-26-58.72A101.16,101.16,0,0,0-6.91,182a87.52,87.52,0,0,0-28-6.52c-27.63-1.89-56.12,8.42-74.69,32.31"/><path class="cls-102" d="M354.74,628.92a118.79,118.79,0,0,0-5.8-89.83c-1.13-2.29-2.34-4.55-3.62-6.75a115.23,115.23,0,0,0-77.25-55.29c-19.2-3.83-39.08-2.91-58.33-2.31-19.06.56-37.71.89-55.19-3.74a100.34,100.34,0,0,1-13.84-4.76c-20.63-8.78-38.31-24.52-50.62-45.94a133,133,0,0,1-9.77-21.25,251.59,251.59,0,0,1-10-38.76c-4.72-25.16-7.39-50.88-13.7-75.67-5.41-21.24-14.27-42.21-27.39-58.45A97.59,97.59,0,0,0-14,195a87.4,87.4,0,0,0-28.21-5c-27.56-.45-55.29,11.17-73.44,35.57"/><path class="cls-103" d="M353.79,629.18a116.4,116.4,0,0,0-6.07-89.53Q346,536.25,344,533a112.51,112.51,0,0,0-77.93-53.47c-19.19-3.28-38.94-1.76-58-.5-18.88,1.22-37.34,2.29-54.8-1.48a102.67,102.67,0,0,1-13.88-4c-20.78-7.66-39.09-22.29-51.95-43.19a123.43,123.43,0,0,1-10.23-20.9C72.56,397.12,69.3,384,66.69,370.9c-5-25-7.83-50.69-14.42-75.33-5.71-21.35-15-42.33-28.75-58.19a94.22,94.22,0,0,0-44.58-29.17,87.37,87.37,0,0,0-28.42-3.53,91.93,91.93,0,0,0-72.19,38.85"/><path class="cls-104" d="M352.83,629.58a114.07,114.07,0,0,0-6.32-89.24c-1.18-2.25-2.43-4.47-3.76-6.63a110.08,110.08,0,0,0-78.63-51.66c-19.17-2.72-38.78-.6-57.67,1.33-18.68,1.87-37,3.67-54.4.77a104.16,104.16,0,0,1-13.92-3.31,98.55,98.55,0,0,1-53.28-40.42,116.78,116.78,0,0,1-10.7-20.56c-4.9-12.13-8.33-25.17-11.07-38.23-5.24-24.92-8.28-50.49-15.15-75-6-21.43-15.8-42.43-30.12-57.92A91.4,91.4,0,0,0-28.14,221.5a87.46,87.46,0,0,0-28.63-2c-27.39,2.43-53.62,16.66-70.93,42.12"/><path class="cls-105" d="M351.88,630.09a111.82,111.82,0,0,0-6.59-88.93c-1.2-2.24-2.48-4.44-3.83-6.58a107.48,107.48,0,0,0-79.31-49.84c-19.17-2.17-38.63.55-57.34,3.14-18.5,2.53-36.6,5.06-54,3a104.83,104.83,0,0,1-14-2.59,94.87,94.87,0,0,1-54.61-37.66,110.28,110.28,0,0,1-11.17-20.2c-5.12-12-8.71-25-11.59-38-5.51-24.81-8.74-50.3-15.89-74.67C37.27,296.3,27,275.28,12.11,260.16a88.84,88.84,0,0,0-47.33-25.24A87.72,87.72,0,0,0-64,234.38c-27.31,3.88-52.8,19.41-69.67,45.39"/><path class="cls-106" d="M350.93,630.73a109.68,109.68,0,0,0-6.86-88.64c-1.22-2.22-2.52-4.4-3.89-6.51a107.49,107.49,0,0,0-65.6-45.85,108.79,108.79,0,0,0-14.41-2.19c-19.15-1.61-38.47,1.71-57,5-18.32,3.19-36.23,6.45-53.63,5.27a107.46,107.46,0,0,1-14-1.86A91.62,91.62,0,0,1,79.61,461,104.58,104.58,0,0,1,68,441.17c-5.34-11.85-9.1-24.77-12.12-37.7-5.76-24.69-9.19-50.11-16.61-74.34-6.62-21.61-17.31-42.65-32.83-57.4A86.78,86.78,0,0,0-42.3,248.45a88.45,88.45,0,0,0-29,1c-27.23,5.32-52,22.16-68.42,48.66"/><path class="cls-107" d="M350,631.48a107.58,107.58,0,0,0-7.13-88.34q-1.86-3.32-4-6.46c-15.37-23-40-39.3-66.26-44.43a105.53,105.53,0,0,0-14.43-1.79c-19.15-1.06-38.32,2.86-56.68,6.79-18.13,3.84-35.85,7.84-53.23,7.53a110.15,110.15,0,0,1-14-1.14c-21.4-3.13-42.2-13.31-57.28-32.13A99.35,99.35,0,0,1,64.89,452c-5.57-11.7-9.5-24.57-12.65-37.43-6-24.57-9.65-49.92-17.34-74C28,318.85,16.82,297.79.7,283.42A84.93,84.93,0,0,0-49.38,262.1a89.36,89.36,0,0,0-29.23,2.45c-27.16,6.77-51.14,24.91-67.17,51.93"/><path class="cls-108" d="M349,632.34a105.57,105.57,0,0,0-7.4-88.05c-1.26-2.18-2.6-4.32-4-6.39-15.62-22.79-40.59-38.61-66.92-43a103.74,103.74,0,0,0-14.46-1.38c-19.13-.51-38.17,4-56.34,8.61-17.95,4.5-35.48,9.23-52.84,9.78a111.48,111.48,0,0,1-14.07-.42c-21.55-2-43-11.07-58.61-29.36A94.64,94.64,0,0,1,61.8,462.93c-5.79-11.56-9.89-24.37-13.17-37.17C42.34,401.3,38.51,376,30.55,352.1,23.31,330.3,11.72,309.21-5,295.22c-15.12-12.69-33.16-18.71-51.46-19.36a90.19,90.19,0,0,0-29.43,3.95C-113,288-136.2,307.47-151.81,335"/><path class="cls-109" d="M348.07,633.3a103.57,103.57,0,0,0-7.66-87.75c-1.28-2.16-2.65-4.28-4.09-6.33-15.88-22.56-41.17-37.92-67.6-41.63a103.46,103.46,0,0,0-14.47-1c-19.13.05-38,5.17-56,10.43-17.77,5.16-35.12,10.62-52.45,12a117,117,0,0,1-14.11.3c-21.71-.86-43.75-8.82-59.94-26.6a90.4,90.4,0,0,1-13-18.82c-6-11.42-10.27-24.17-13.7-36.9-6.55-24.34-10.58-49.53-18.8-73.34-7.55-21.88-19.59-43-36.92-56.61-15.66-12.35-34.24-17.64-52.83-17.4a91.59,91.59,0,0,0-29.64,5.45c-27,9.65-49.48,30.4-64.66,58.47"/><path class="cls-110" d="M347.12,634.37a101.63,101.63,0,0,0-7.93-87.45c-1.3-2.15-2.69-4.25-4.16-6.28-16.13-22.32-41.74-37.23-68.26-40.22a100.64,100.64,0,0,0-14.5-.56c-19.12.6-37.86,6.32-55.68,12.25-17.58,5.81-34.74,12-52.06,14.28a116.53,116.53,0,0,1-14.15,1c-21.85.27-44.52-6.58-61.26-23.83a86.06,86.06,0,0,1-13.5-18.48c-6.22-11.28-10.66-24-14.22-36.63-6.82-24.23-11-49.34-19.53-73-7.87-22-20.36-43.1-38.28-56.35-16.2-12-35.33-16.56-54.21-15.43a92.7,92.7,0,0,0-29.84,6.93c-26.92,11.1-48.65,33.16-63.41,61.75"/><path class="cls-111" d="M346.17,635.53a99.8,99.8,0,0,0-8.2-87.16c-1.32-2.13-2.74-4.2-4.23-6.22-16.38-22.07-42.31-36.53-68.92-38.81a100.64,100.64,0,0,0-14.52-.16c-19.11,1.16-37.72,7.48-55.35,14.07-17.4,6.47-34.37,13.4-51.67,16.54a122.46,122.46,0,0,1-14.19,1.76c-22,1.4-45.3-4.34-62.59-21.08a82.84,82.84,0,0,1-14-18.12C46.09,485.21,41.48,472.58,37.78,460c-7.07-24.11-11.52-49.14-20.26-72.67-8.19-22.06-21.11-43.22-39.64-56.09-16.74-11.66-36.42-15.49-55.58-13.48a94.41,94.41,0,0,0-30,8.44c-26.84,12.54-47.82,35.9-62.16,65"/><path class="cls-112" d="M345.22,636.77c11-28.13,7.7-61.53-8.47-86.86-1.34-2.11-2.78-4.17-4.3-6.16-16.63-21.84-42.89-35.84-69.59-37.41a99.26,99.26,0,0,0-14.54.25c-19.1,1.72-37.56,8.64-55,15.9-17.21,7.12-34,14.78-51.27,18.79a124.58,124.58,0,0,1-14.23,2.47c-22.16,2.54-46.08-2.09-63.93-18.3a80.08,80.08,0,0,1-14.43-17.78c-6.66-11-11.44-23.57-15.27-36.11-7.34-24-12-48.94-21-72.34-8.51-22.14-21.88-43.32-41-55.82-17.28-11.32-37.51-14.42-57-11.51A95.83,95.83,0,0,0-115,341.81c-26.76,14-47,38.65-60.91,68.29"/><path class="cls-113" d="M344.26,638.08c11.12-28,7.7-61.44-8.73-86.56-1.37-2.09-2.82-4.13-4.36-6.1-16.89-21.6-43.47-35.15-70.26-36a98,98,0,0,0-14.56.66c-19.09,2.27-37.41,9.79-54.69,17.71-17,7.78-33.63,16.18-50.88,21.05a131.58,131.58,0,0,1-14.27,3.2c-22.31,3.66-46.86.15-65.26-15.55a76.8,76.8,0,0,1-14.89-17.43c-6.89-10.86-11.84-23.37-15.81-35.84-7.6-23.88-12.46-48.74-21.71-72C0,389-13.8,367.78-33.53,355.65c-17.82-11-38.6-13.34-58.33-9.55a97.75,97.75,0,0,0-30.45,11.42c-26.68,15.43-46.16,41.4-59.64,71.56"/><path class="cls-114" d="M343.31,639.47c11.22-27.93,7.69-61.37-9-86.27q-2.08-3.12-4.43-6c-17.15-21.36-44-34.46-70.92-34.59a95.75,95.75,0,0,0-14.59,1.06c-19.08,2.82-37.26,10.94-54.36,19.53-16.84,8.44-33.25,17.57-50.49,23.3a131.09,131.09,0,0,1-14.3,3.92c-22.47,4.8-47.64,2.4-66.59-12.78a73.89,73.89,0,0,1-15.36-17.08C36.16,519.81,31,507.35,26.94,494.94,19.08,471.19,14,446.41,4.49,423.27-4.67,401-18.91,379.72-39.23,368c-18.36-10.63-39.69-12.27-59.71-7.59a100,100,0,0,0-30.65,12.92c-26.6,16.87-45.33,44.15-58.39,74.83"/><path class="cls-115" d="M342.36,640.91c11.32-27.83,7.68-61.28-9.27-86-1.41-2.06-2.91-4.06-4.5-6C311.19,527.83,284,515.19,257,515.77a96.19,96.19,0,0,0-14.61,1.47c-19.07,3.38-37.1,12.1-54,21.35-16.66,9.1-32.89,19-50.1,25.55a134.82,134.82,0,0,1-14.35,4.65c-22.61,5.93-48.41,4.64-67.92-10A71.76,71.76,0,0,1,40.18,542c-7.33-10.57-12.61-23-16.86-35.3C15.2,483.08,9.9,458.39.15,435.39c-9.49-22.4-24.16-43.66-45.09-55-18.9-10.29-40.77-11.2-61.08-5.63a102.06,102.06,0,0,0-30.85,14.41c-26.52,18.32-44.51,46.9-57.14,78.1"/><path class="cls-116" d="M341.4,642.4c11.43-27.72,7.68-61.2-9.53-85.67-1.43-2.05-3-4-4.57-5.92-17.65-20.89-45.19-33.08-72.25-31.79a95.19,95.19,0,0,0-14.63,1.88c-19.06,3.93-36.95,13.25-53.7,23.17-16.47,9.76-32.51,20.35-49.7,27.81a142.15,142.15,0,0,1-14.39,5.37c-22.77,7.06-49.19,6.88-69.25-7.25a70.06,70.06,0,0,1-16.29-16.4c-7.55-10.42-13-22.76-17.38-35C11.32,495,5.8,470.43-4.2,447.55c-9.81-22.47-24.91-43.77-46.44-54.77-19.44-9.95-41.87-10.12-62.47-3.67a104.51,104.51,0,0,0-31,15.91c-26.44,19.76-43.67,49.64-55.88,81.37"/><path class="cls-117" d="M340.45,643.94c11.53-27.62,7.67-61.12-9.8-85.38-1.45-2-3-4-4.63-5.86-17.91-20.65-45.77-32.38-72.93-30.38a94.64,94.64,0,0,0-14.65,2.29c-19.05,4.48-36.8,14.4-53.36,25-16.29,10.41-32.14,21.74-49.32,30.06a143.77,143.77,0,0,1-14.42,6.09c-22.92,8.2-50,9.13-70.58-4.49a68.13,68.13,0,0,1-16.76-16c-7.77-10.29-13.39-22.56-17.91-34.78C7.44,507,1.68,482.53-8.54,459.77c-10.18-22.54-25.68-43.88-47.81-54.51-20-9.61-42.95-9.05-63.84-1.71A106.6,106.6,0,0,0-151.44,421c-26.36,21.2-42.84,52.39-54.63,84.65"/><path class="cls-118" d="M339.5,645.52c11.62-27.52,7.66-61-10.07-85.08s-48.57-37.74-78.29-34.77c-24.77,2.47-47.19,15.41-67.71,29.5S143.12,585,120.05,594.3s-50.75,11.37-71.92-1.73c-17.78-11-28.18-30.68-35.65-50.21C3.57,519.07-2.4,494.65-12.88,472s-26.44-44-49.18-54.25c-31.62-14.26-70.39-3.49-96.67,19.16s-42,55.14-53.38,87.91"/></g></g></svg>