<svg xmlns="http://www.w3.org/2000/svg" xmlns:xlink="http://www.w3.org/1999/xlink" viewBox="0 0 25 17"><defs><style>.cls-1{isolation:isolate;}.cls-2{fill:#4d7dff;}.cls-3{fill:#5180ff;}.cls-4{fill:#5987ff;}.cls-5{fill:#6490ff;}.cls-6{fill:#80a7ff;}.cls-7{fill:#accaff;}.cls-8{fill:#b5d2ff;}.cls-9{fill:#9dbfff;}.cls-10{fill:#83aaff;}.cls-11{fill:#78a2ff;}.cls-12{fill:#719bff;}.cls-13{fill:#6a95ff;}.cls-14{fill:#86acff;}.cls-15{fill:#608dff;}.cls-16{fill:#5383ff;}.cls-17{fill:#4877ff;}.cls-18{fill:#3f70ff;}.cls-19{fill:#3c6dff;}.cls-20{fill:#3969ff;}.cls-21{fill:#3462ff;}.cls-22{fill:#3766ff;}.cls-23{fill:#4a7aff;}.cls-24{fill:#6692ff;}.cls-25{fill:#749dff;}.cls-26{fill:#bed7ff;}.cls-27{fill:#a9c8ff;}.cls-28{fill:#e7f7ff;}.cls-29{fill:#95b8ff;}.cls-30{fill:#b1ceff;}.cls-31{fill:#8ab0ff;}.cls-32{fill:#4474ff;}.cls-33{fill:#fff;}.cls-34{fill:#f9ffff;}.cls-35{fill:#edfbff;}.cls-36{fill:#7ba4ff;}.cls-37{fill:#6d98ff;}.cls-38{fill:#4171ff;}.cls-39{fill:#315eff;}.cls-40{fill:#8db3ff;}.cls-41{fill:#cee5ff;}.cls-42{fill:#c8e1ff;}.cls-43{fill:#d5ebff;}.cls-44{fill:#c1dbff;}.cls-45{fill:#5d8aff;}.cls-46{fill:#a5c5ff;}.cls-47{fill:#a0c1ff;}.cls-48{fill:#dbefff;}.cls-49{fill:#fdffff;}.cls-50{fill:#b8d4ff;}.cls-51{fill:#2751f9;}.cls-52{fill:#5786ff;}.cls-53{fill:#dff1ff;}.cls-54{fill:#f1ffff;}.cls-55{fill:#98bcff;}.cls-56{fill:#e3f5ff;}.cls-57{fill:#d2e7ff;}.cls-58{fill:#92b6ff;}.cls-59{fill:#c5ddff;}.cls-60{fill:#f5ffff;}.cls-61{mix-blend-mode:screen;}.cls-62{mix-blend-mode:soft-light;fill:url(#radial-gradient);}</style><radialGradient id="radial-gradient" cx="12.14" cy="-3.74" r="22.5" gradientTransform="translate(25 17) rotate(180)" gradientUnits="userSpaceOnUse"><stop offset="0" stop-color="#fff" stop-opacity="0"/><stop offset="0.13" stop-color="#c7c9dc" stop-opacity="0.21"/><stop offset="0.36" stop-color="#7075a7" stop-opacity="0.53"/><stop offset="0.59" stop-color="#323981" stop-opacity="0.76"/><stop offset="0.81" stop-color="#0d156a" stop-opacity="0.9"/><stop offset="1" stop-color="#000962" stop-opacity="0.95"/></radialGradient></defs><title>bgv1.0</title><g class="cls-1"><g id="Layer_1" data-name="Layer 1"><polygon class="cls-2" points="0 0.94 1.04 0.94 0.38 0 0 0 0 0.94"/><polygon class="cls-3" points="1.6 0 0.38 0 1.04 0.94 2.27 0.94 1.6 0"/><polygon class="cls-4" points="2.83 0 1.6 0 2.27 0.94 3.49 0.94 2.83 0"/><polygon class="cls-5" points="4.05 0 2.83 0 3.49 0.94 4.71 0.94 4.05 0"/><polygon class="cls-6" points="5.28 0 4.05 0 4.71 0.94 5.94 0.94 5.28 0"/><polygon class="cls-7" points="6.5 0 5.28 0 5.94 0.94 7.17 0.94 6.5 0"/><polygon class="cls-8" points="7.73 0 6.5 0 7.17 0.94 8.39 0.94 7.73 0"/><polygon class="cls-9" points="8.95 0 7.73 0 8.39 0.94 9.62 0.94 8.95 0"/><polygon class="cls-10" points="10.18 0 8.95 0 9.62 0.94 10.84 0.94 10.18 0"/><polygon class="cls-11" points="11.4 0 10.18 0 10.84 0.94 12.06 0.94 11.4 0"/><polygon class="cls-12" points="12.63 0 11.4 0 12.06 0.94 13.29 0.94 12.63 0"/><polygon class="cls-13" points="13.85 0 12.63 0 13.29 0.94 14.52 0.94 13.85 0"/><polygon class="cls-14" points="15.08 0 13.85 0 14.52 0.94 15.74 0.94 15.08 0"/><polygon class="cls-15" points="16.3 0 15.08 0 15.74 0.94 16.96 0.94 16.3 0"/><polygon class="cls-16" points="17.53 0 16.3 0 16.96 0.94 18.19 0.94 17.53 0"/><polygon class="cls-17" points="18.75 0 17.53 0 18.19 0.94 19.41 0.94 18.75 0"/><polygon class="cls-3" points="19.98 0 18.75 0 19.41 0.94 20.64 0.94 19.98 0"/><polygon class="cls-18" points="21.2 0 19.98 0 20.64 0.94 21.86 0.94 21.2 0"/><polygon class="cls-19" points="22.43 0 21.2 0 21.86 0.94 23.09 0.94 22.43 0"/><polygon class="cls-2" points="23.65 0 22.43 0 23.09 0.94 24.32 0.94 23.65 0"/><polygon class="cls-20" points="24.32 0.94 25 0.94 25 0.17 24.88 0 23.65 0 24.32 0.94"/><polygon class="cls-21" points="0 1.89 0.48 1.89 0 1.21 0 1.89"/><polygon class="cls-22" points="0 1.21 0.48 1.89 1.7 1.89 1.04 0.94 0 0.94 0 1.21"/><polygon class="cls-22" points="2.27 0.94 1.04 0.94 1.7 1.89 2.93 1.89 2.27 0.94"/><polygon class="cls-23" points="3.49 0.94 2.27 0.94 2.93 1.89 4.15 1.89 3.49 0.94"/><polygon class="cls-24" points="4.71 0.94 3.49 0.94 4.15 1.89 5.38 1.89 4.71 0.94"/><polygon class="cls-25" points="5.94 0.94 4.71 0.94 5.38 1.89 6.6 1.89 5.94 0.94"/><polygon class="cls-9" points="7.17 0.94 5.94 0.94 6.6 1.89 7.83 1.89 7.17 0.94"/><polygon class="cls-26" points="8.39 0.94 7.17 0.94 7.83 1.89 9.05 1.89 8.39 0.94"/><polygon class="cls-27" points="9.62 0.94 8.39 0.94 9.05 1.89 10.28 1.89 9.62 0.94"/><polygon class="cls-28" points="10.84 0.94 9.62 0.94 10.28 1.89 11.5 1.89 10.84 0.94"/><polygon class="cls-6" points="12.06 0.94 10.84 0.94 11.5 1.89 12.73 1.89 12.06 0.94"/><polygon class="cls-14" points="13.29 0.94 12.06 0.94 12.73 1.89 13.95 1.89 13.29 0.94"/><polygon class="cls-29" points="14.52 0.94 13.29 0.94 13.95 1.89 15.18 1.89 14.52 0.94"/><polygon class="cls-30" points="15.74 0.94 14.52 0.94 15.18 1.89 16.4 1.89 15.74 0.94"/><polygon class="cls-25" points="16.96 0.94 15.74 0.94 16.4 1.89 17.63 1.89 16.96 0.94"/><polygon class="cls-6" points="18.19 0.94 16.96 0.94 17.63 1.89 18.85 1.89 18.19 0.94"/><polygon class="cls-24" points="19.41 0.94 18.19 0.94 18.85 1.89 20.08 1.89 19.41 0.94"/><polygon class="cls-27" points="20.64 0.94 19.41 0.94 20.08 1.89 21.3 1.89 20.64 0.94"/><polygon class="cls-12" points="21.86 0.94 20.64 0.94 21.3 1.89 22.53 1.89 21.86 0.94"/><polygon class="cls-31" points="23.09 0.94 21.86 0.94 22.53 1.89 23.75 1.89 23.09 0.94"/><polygon class="cls-32" points="24.32 0.94 23.09 0.94 23.75 1.89 24.98 1.89 24.32 0.94"/><polygon class="cls-22" points="25 0.94 24.32 0.94 24.98 1.89 25 1.89 25 0.94"/><polygon class="cls-21" points="0 2.83 1.14 2.83 0.48 1.89 0 1.89 0 2.83"/><polygon class="cls-18" points="1.7 1.89 0.48 1.89 1.14 2.83 2.36 2.83 1.7 1.89"/><polygon class="cls-3" points="2.93 1.89 1.7 1.89 2.36 2.83 3.59 2.83 2.93 1.89"/><polygon class="cls-23" points="4.15 1.89 2.93 1.89 3.59 2.83 4.81 2.83 4.15 1.89"/><polygon class="cls-3" points="5.38 1.89 4.15 1.89 4.81 2.83 6.04 2.83 5.38 1.89"/><polygon class="cls-4" points="6.6 1.89 5.38 1.89 6.04 2.83 7.26 2.83 6.6 1.89"/><polygon class="cls-6" points="7.83 1.89 6.6 1.89 7.26 2.83 8.49 2.83 7.83 1.89"/><polygon class="cls-28" points="9.05 1.89 7.83 1.89 8.49 2.83 9.71 2.83 9.05 1.89"/><polygon class="cls-27" points="10.28 1.89 9.05 1.89 9.71 2.83 10.94 2.83 10.28 1.89"/><polygon class="cls-33" points="11.5 1.89 10.28 1.89 10.94 2.83 12.16 2.83 11.5 1.89"/><polygon class="cls-30" points="12.73 1.89 11.5 1.89 12.16 2.83 13.39 2.83 12.73 1.89"/><polygon class="cls-33" points="13.95 1.89 12.73 1.89 13.39 2.83 14.61 2.83 13.95 1.89"/><polygon class="cls-34" points="15.18 1.89 13.95 1.89 14.61 2.83 15.84 2.83 15.18 1.89"/><polygon class="cls-35" points="16.4 1.89 15.18 1.89 15.84 2.83 17.06 2.83 16.4 1.89"/><polygon class="cls-31" points="17.63 1.89 16.4 1.89 17.06 2.83 18.29 2.83 17.63 1.89"/><polygon class="cls-36" points="18.85 1.89 17.63 1.89 18.29 2.83 19.51 2.83 18.85 1.89"/><polygon class="cls-36" points="20.08 1.89 18.85 1.89 19.51 2.83 20.74 2.83 20.08 1.89"/><polygon class="cls-13" points="21.3 1.89 20.08 1.89 20.74 2.83 21.96 2.83 21.3 1.89"/><polygon class="cls-5" points="22.53 1.89 21.3 1.89 21.96 2.83 23.19 2.83 22.53 1.89"/><polygon class="cls-37" points="23.75 1.89 22.53 1.89 23.19 2.83 24.41 2.83 23.75 1.89"/><polygon class="cls-38" points="24.41 2.83 25 2.83 25 1.92 24.98 1.89 23.75 1.89 24.41 2.83"/><polygon class="cls-39" points="0 3.78 0.58 3.78 0 2.96 0 3.78"/><polygon class="cls-18" points="0 2.96 0.58 3.78 1.8 3.78 1.14 2.83 0 2.83 0 2.96"/><polygon class="cls-19" points="2.36 2.83 1.14 2.83 1.8 3.78 3.03 3.78 2.36 2.83"/><polygon class="cls-32" points="3.59 2.83 2.36 2.83 3.03 3.78 4.25 3.78 3.59 2.83"/><polygon class="cls-38" points="4.81 2.83 3.59 2.83 4.25 3.78 5.48 3.78 4.81 2.83"/><polygon class="cls-13" points="6.04 2.83 4.81 2.83 5.48 3.78 6.7 3.78 6.04 2.83"/><polygon class="cls-40" points="7.26 2.83 6.04 2.83 6.7 3.78 7.93 3.78 7.26 2.83"/><polygon class="cls-6" points="8.49 2.83 7.26 2.83 7.93 3.78 9.15 3.78 8.49 2.83"/><polygon class="cls-41" points="9.71 2.83 8.49 2.83 9.15 3.78 10.38 3.78 9.71 2.83"/><polygon class="cls-42" points="10.94 2.83 9.71 2.83 10.38 3.78 11.6 3.78 10.94 2.83"/><polygon class="cls-8" points="12.16 2.83 10.94 2.83 11.6 3.78 12.83 3.78 12.16 2.83"/><polygon class="cls-28" points="13.39 2.83 12.16 2.83 12.83 3.78 14.05 3.78 13.39 2.83"/><polygon class="cls-35" points="14.61 2.83 13.39 2.83 14.05 3.78 15.28 3.78 14.61 2.83"/><polygon class="cls-33" points="15.84 2.83 14.61 2.83 15.28 3.78 16.5 3.78 15.84 2.83"/><polygon class="cls-43" points="17.06 2.83 15.84 2.83 16.5 3.78 17.73 3.78 17.06 2.83"/><polygon class="cls-44" points="18.29 2.83 17.06 2.83 17.73 3.78 18.95 3.78 18.29 2.83"/><polygon class="cls-45" points="19.51 2.83 18.29 2.83 18.95 3.78 20.18 3.78 19.51 2.83"/><polygon class="cls-27" points="20.74 2.83 19.51 2.83 20.18 3.78 21.4 3.78 20.74 2.83"/><polygon class="cls-43" points="21.96 2.83 20.74 2.83 21.4 3.78 22.63 3.78 21.96 2.83"/><polygon class="cls-46" points="23.19 2.83 21.96 2.83 22.63 3.78 23.85 3.78 23.19 2.83"/><polygon class="cls-13" points="23.85 3.78 25 3.78 25 3.67 24.41 2.83 23.19 2.83 23.85 3.78"/><polygon class="cls-17" points="25 3.67 25 2.83 24.41 2.83 25 3.67"/><polygon class="cls-39" points="0 4.7 0.01 4.72 1.24 4.72 0.58 3.78 0 3.78 0 4.7"/><polygon class="cls-21" points="1.8 3.78 0.58 3.78 1.24 4.72 2.46 4.72 1.8 3.78"/><polygon class="cls-21" points="3.03 3.78 1.8 3.78 2.46 4.72 3.69 4.72 3.03 3.78"/><polygon class="cls-3" points="4.25 3.78 3.03 3.78 3.69 4.72 4.91 4.72 4.25 3.78"/><polygon class="cls-4" points="5.48 3.78 4.25 3.78 4.91 4.72 6.14 4.72 5.48 3.78"/><polygon class="cls-9" points="6.7 3.78 5.48 3.78 6.14 4.72 7.36 4.72 6.7 3.78"/><polygon class="cls-46" points="7.93 3.78 6.7 3.78 7.36 4.72 8.59 4.72 7.93 3.78"/><polygon class="cls-14" points="9.15 3.78 7.93 3.78 8.59 4.72 9.81 4.72 9.15 3.78"/><polygon class="cls-47" points="10.38 3.78 9.15 3.78 9.81 4.72 11.04 4.72 10.38 3.78"/><polygon class="cls-9" points="11.6 3.78 10.38 3.78 11.04 4.72 12.26 4.72 11.6 3.78"/><polygon class="cls-8" points="12.83 3.78 11.6 3.78 12.26 4.72 13.49 4.72 12.83 3.78"/><polygon class="cls-42" points="14.05 3.78 12.83 3.78 13.49 4.72 14.71 4.72 14.05 3.78"/><polygon class="cls-48" points="15.28 3.78 14.05 3.78 14.71 4.72 15.94 4.72 15.28 3.78"/><polygon class="cls-49" points="16.5 3.78 15.28 3.78 15.94 4.72 17.16 4.72 16.5 3.78"/><polygon class="cls-33" points="17.73 3.78 16.5 3.78 17.16 4.72 18.39 4.72 17.73 3.78"/><polygon class="cls-27" points="18.95 3.78 17.73 3.78 18.39 4.72 19.61 4.72 18.95 3.78"/><polygon class="cls-10" points="20.18 3.78 18.95 3.78 19.61 4.72 20.84 4.72 20.18 3.78"/><polygon class="cls-50" points="21.4 3.78 20.18 3.78 20.84 4.72 22.06 4.72 21.4 3.78"/><polygon class="cls-34" points="22.63 3.78 21.4 3.78 22.06 4.72 23.29 4.72 22.63 3.78"/><polygon class="cls-33" points="23.85 3.78 22.63 3.78 23.29 4.72 24.51 4.72 23.85 3.78"/><polygon class="cls-41" points="25 3.78 23.85 3.78 24.51 4.72 25 4.72 25 3.78"/><polygon class="cls-51" points="0 5.67 0.68 5.67 0.01 4.72 0 4.72 0 5.67"/><polygon class="cls-19" points="1.24 4.72 0.01 4.72 0.68 5.67 1.9 5.67 1.24 4.72"/><polygon class="cls-32" points="2.46 4.72 1.24 4.72 1.9 5.67 3.13 5.67 2.46 4.72"/><polygon class="cls-23" points="3.69 4.72 2.46 4.72 3.13 5.67 4.35 5.67 3.69 4.72"/><polygon class="cls-24" points="4.91 4.72 3.69 4.72 4.35 5.67 5.58 5.67 4.91 4.72"/><polygon class="cls-52" points="6.14 4.72 4.91 4.72 5.58 5.67 6.8 5.67 6.14 4.72"/><polygon class="cls-15" points="7.36 4.72 6.14 4.72 6.8 5.67 8.03 5.67 7.36 4.72"/><polygon class="cls-10" points="8.59 4.72 7.36 4.72 8.03 5.67 9.25 5.67 8.59 4.72"/><polygon class="cls-14" points="9.81 4.72 8.59 4.72 9.25 5.67 10.47 5.67 9.81 4.72"/><polygon class="cls-7" points="11.04 4.72 9.81 4.72 10.47 5.67 11.7 5.67 11.04 4.72"/><polygon class="cls-43" points="12.26 4.72 11.04 4.72 11.7 5.67 12.93 5.67 12.26 4.72"/><polygon class="cls-40" points="13.49 4.72 12.26 4.72 12.93 5.67 14.15 5.67 13.49 4.72"/><polygon class="cls-53" points="14.71 4.72 13.49 4.72 14.15 5.67 15.38 5.67 14.71 4.72"/><polygon class="cls-53" points="15.94 4.72 14.71 4.72 15.38 5.67 16.6 5.67 15.94 4.72"/><polygon class="cls-33" points="17.16 4.72 15.94 4.72 16.6 5.67 17.82 5.67 17.16 4.72"/><polygon class="cls-54" points="18.39 4.72 17.16 4.72 17.82 5.67 19.05 5.67 18.39 4.72"/><polygon class="cls-49" points="19.61 4.72 18.39 4.72 19.05 5.67 20.27 5.67 19.61 4.72"/><polygon class="cls-53" points="20.84 4.72 19.61 4.72 20.27 5.67 21.5 5.67 20.84 4.72"/><polygon class="cls-28" points="22.06 4.72 20.84 4.72 21.5 5.67 22.73 5.67 22.06 4.72"/><polygon class="cls-33" points="23.29 4.72 22.06 4.72 22.73 5.67 23.95 5.67 23.29 4.72"/><polygon class="cls-35" points="23.95 5.67 25 5.67 25 5.42 24.51 4.72 23.29 4.72 23.95 5.67"/><polygon class="cls-33" points="25 5.42 25 4.72 24.51 4.72 25 5.42"/><polygon class="cls-17" points="0 6.61 0.11 6.61 0 6.45 0 6.61"/><polygon class="cls-17" points="0 6.45 0.11 6.61 1.34 6.61 0.68 5.67 0 5.67 0 6.45"/><polygon class="cls-18" points="1.9 5.67 0.68 5.67 1.34 6.61 2.56 6.61 1.9 5.67"/><polygon class="cls-38" points="3.13 5.67 1.9 5.67 2.56 6.61 3.79 6.61 3.13 5.67"/><polygon class="cls-2" points="4.35 5.67 3.13 5.67 3.79 6.61 5.01 6.61 4.35 5.67"/><polygon class="cls-15" points="5.58 5.67 4.35 5.67 5.01 6.61 6.24 6.61 5.58 5.67"/><polygon class="cls-52" points="6.8 5.67 5.58 5.67 6.24 6.61 7.46 6.61 6.8 5.67"/><polygon class="cls-10" points="8.03 5.67 6.8 5.67 7.46 6.61 8.69 6.61 8.03 5.67"/><polygon class="cls-31" points="9.25 5.67 8.03 5.67 8.69 6.61 9.91 6.61 9.25 5.67"/><polygon class="cls-12" points="10.47 5.67 9.25 5.67 9.91 6.61 11.14 6.61 10.47 5.67"/><polygon class="cls-55" points="11.7 5.67 10.47 5.67 11.14 6.61 12.36 6.61 11.7 5.67"/><polygon class="cls-44" points="12.93 5.67 11.7 5.67 12.36 6.61 13.59 6.61 12.93 5.67"/><polygon class="cls-26" points="14.15 5.67 12.93 5.67 13.59 6.61 14.81 6.61 14.15 5.67"/><polygon class="cls-44" points="15.38 5.67 14.15 5.67 14.81 6.61 16.04 6.61 15.38 5.67"/><polygon class="cls-33" points="16.6 5.67 15.38 5.67 16.04 6.61 17.26 6.61 16.6 5.67"/><polygon class="cls-43" points="17.82 5.67 16.6 5.67 17.26 6.61 18.49 6.61 17.82 5.67"/><polygon class="cls-33" points="19.05 5.67 17.82 5.67 18.49 6.61 19.71 6.61 19.05 5.67"/><polygon class="cls-33" points="20.27 5.67 19.05 5.67 19.71 6.61 20.94 6.61 20.27 5.67"/><polygon class="cls-35" points="21.5 5.67 20.27 5.67 20.94 6.61 22.16 6.61 21.5 5.67"/><polygon class="cls-33" points="22.73 5.67 21.5 5.67 22.16 6.61 23.39 6.61 22.73 5.67"/><polygon class="cls-33" points="23.95 5.67 22.73 5.67 23.39 6.61 24.61 6.61 23.95 5.67"/><polygon class="cls-56" points="25 5.67 23.95 5.67 24.61 6.61 25 6.61 25 5.67"/><polygon class="cls-3" points="0 7.56 0.77 7.56 0.11 6.61 0 6.61 0 7.56"/><polygon class="cls-38" points="1.34 6.61 0.11 6.61 0.77 7.56 2 7.56 1.34 6.61"/><polygon class="cls-2" points="2.56 6.61 1.34 6.61 2 7.56 3.22 7.56 2.56 6.61"/><polygon class="cls-3" points="3.79 6.61 2.56 6.61 3.22 7.56 4.45 7.56 3.79 6.61"/><polygon class="cls-13" points="5.01 6.61 3.79 6.61 4.45 7.56 5.67 7.56 5.01 6.61"/><polygon class="cls-36" points="6.24 6.61 5.01 6.61 5.67 7.56 6.9 7.56 6.24 6.61"/><polygon class="cls-4" points="7.46 6.61 6.24 6.61 6.9 7.56 8.12 7.56 7.46 6.61"/><polygon class="cls-6" points="8.69 6.61 7.46 6.61 8.12 7.56 9.35 7.56 8.69 6.61"/><polygon class="cls-47" points="9.91 6.61 8.69 6.61 9.35 7.56 10.57 7.56 9.91 6.61"/><polygon class="cls-10" points="11.14 6.61 9.91 6.61 10.57 7.56 11.8 7.56 11.14 6.61"/><polygon class="cls-8" points="12.36 6.61 11.14 6.61 11.8 7.56 13.02 7.56 12.36 6.61"/><polygon class="cls-57" points="13.59 6.61 12.36 6.61 13.02 7.56 14.25 7.56 13.59 6.61"/><polygon class="cls-47" points="14.81 6.61 13.59 6.61 14.25 7.56 15.47 7.56 14.81 6.61"/><polygon class="cls-56" points="16.04 6.61 14.81 6.61 15.47 7.56 16.7 7.56 16.04 6.61"/><polygon class="cls-33" points="17.26 6.61 16.04 6.61 16.7 7.56 17.92 7.56 17.26 6.61"/><polygon class="cls-33" points="18.49 6.61 17.26 6.61 17.92 7.56 19.15 7.56 18.49 6.61"/><polygon class="cls-33" points="19.71 6.61 18.49 6.61 19.15 7.56 20.37 7.56 19.71 6.61"/><polygon class="cls-33" points="20.94 6.61 19.71 6.61 20.37 7.56 21.6 7.56 20.94 6.61"/><polygon class="cls-33" points="22.16 6.61 20.94 6.61 21.6 7.56 22.82 7.56 22.16 6.61"/><polygon class="cls-33" points="23.39 6.61 22.16 6.61 22.82 7.56 24.05 7.56 23.39 6.61"/><polygon class="cls-33" points="24.05 7.56 25 7.56 25 7.17 24.61 6.61 23.39 6.61 24.05 7.56"/><polygon class="cls-33" points="25 7.17 25 6.61 24.61 6.61 25 7.17"/><polygon class="cls-17" points="0 8.5 0.21 8.5 0 8.2 0 8.5"/><polygon class="cls-17" points="0 8.2 0.21 8.5 1.44 8.5 0.77 7.56 0 7.56 0 8.2"/><polygon class="cls-15" points="2 7.56 0.77 7.56 1.44 8.5 2.66 8.5 2 7.56"/><polygon class="cls-17" points="3.22 7.56 2 7.56 2.66 8.5 3.89 8.5 3.22 7.56"/><polygon class="cls-45" points="4.45 7.56 3.22 7.56 3.89 8.5 5.11 8.5 4.45 7.56"/><polygon class="cls-15" points="5.67 7.56 4.45 7.56 5.11 8.5 6.34 8.5 5.67 7.56"/><polygon class="cls-36" points="6.9 7.56 5.67 7.56 6.34 8.5 7.56 8.5 6.9 7.56"/><polygon class="cls-36" points="8.12 7.56 6.9 7.56 7.56 8.5 8.79 8.5 8.12 7.56"/><polygon class="cls-55" points="9.35 7.56 8.12 7.56 8.79 8.5 10.01 8.5 9.35 7.56"/><polygon class="cls-13" points="10.57 7.56 9.35 7.56 10.01 8.5 11.24 8.5 10.57 7.56"/><polygon class="cls-31" points="11.8 7.56 10.57 7.56 11.24 8.5 12.46 8.5 11.8 7.56"/><polygon class="cls-42" points="13.02 7.56 11.8 7.56 12.46 8.5 13.69 8.5 13.02 7.56"/><polygon class="cls-41" points="14.25 7.56 13.02 7.56 13.69 8.5 14.91 8.5 14.25 7.56"/><polygon class="cls-33" points="15.47 7.56 14.25 7.56 14.91 8.5 16.14 8.5 15.47 7.56"/><polygon class="cls-34" points="16.7 7.56 15.47 7.56 16.14 8.5 17.36 8.5 16.7 7.56"/><polygon class="cls-33" points="17.92 7.56 16.7 7.56 17.36 8.5 18.59 8.5 17.92 7.56"/><polygon class="cls-49" points="19.15 7.56 17.92 7.56 18.59 8.5 19.81 8.5 19.15 7.56"/><polygon class="cls-33" points="20.37 7.56 19.15 7.56 19.81 8.5 21.04 8.5 20.37 7.56"/><polygon class="cls-33" points="21.6 7.56 20.37 7.56 21.04 8.5 22.26 8.5 21.6 7.56"/><polygon class="cls-33" points="22.82 7.56 21.6 7.56 22.26 8.5 23.49 8.5 22.82 7.56"/><polygon class="cls-33" points="24.05 7.56 22.82 7.56 23.49 8.5 24.71 8.5 24.05 7.56"/><polygon class="cls-33" points="25 7.56 24.05 7.56 24.71 8.5 25 8.5 25 7.56"/><polygon class="cls-45" points="0 9.44 0.87 9.44 0.21 8.5 0 8.5 0 9.44"/><polygon class="cls-15" points="1.44 8.5 0.21 8.5 0.87 9.44 2.1 9.44 1.44 8.5"/><polygon class="cls-23" points="2.66 8.5 1.44 8.5 2.1 9.44 3.32 9.44 2.66 8.5"/><polygon class="cls-52" points="3.89 8.5 2.66 8.5 3.32 9.44 4.55 9.44 3.89 8.5"/><polygon class="cls-4" points="5.11 8.5 3.89 8.5 4.55 9.44 5.77 9.44 5.11 8.5"/><polygon class="cls-47" points="6.34 8.5 5.11 8.5 5.77 9.44 7 9.44 6.34 8.5"/><polygon class="cls-40" points="7.56 8.5 6.34 8.5 7 9.44 8.22 9.44 7.56 8.5"/><polygon class="cls-12" points="8.79 8.5 7.56 8.5 8.22 9.44 9.45 9.44 8.79 8.5"/><polygon class="cls-58" points="10.01 8.5 8.79 8.5 9.45 9.44 10.67 9.44 10.01 8.5"/><polygon class="cls-25" points="11.24 8.5 10.01 8.5 10.67 9.44 11.9 9.44 11.24 8.5"/><polygon class="cls-40" points="12.46 8.5 11.24 8.5 11.9 9.44 13.12 9.44 12.46 8.5"/><polygon class="cls-42" points="13.69 8.5 12.46 8.5 13.12 9.44 14.35 9.44 13.69 8.5"/><polygon class="cls-43" points="14.91 8.5 13.69 8.5 14.35 9.44 15.57 9.44 14.91 8.5"/><polygon class="cls-56" points="16.14 8.5 14.91 8.5 15.57 9.44 16.8 9.44 16.14 8.5"/><polygon class="cls-58" points="17.36 8.5 16.14 8.5 16.8 9.44 18.02 9.44 17.36 8.5"/><polygon class="cls-33" points="18.59 8.5 17.36 8.5 18.02 9.44 19.25 9.44 18.59 8.5"/><polygon class="cls-33" points="19.81 8.5 18.59 8.5 19.25 9.44 20.47 9.44 19.81 8.5"/><polygon class="cls-33" points="21.04 8.5 19.81 8.5 20.47 9.44 21.7 9.44 21.04 8.5"/><polygon class="cls-33" points="22.26 8.5 21.04 8.5 21.7 9.44 22.92 9.44 22.26 8.5"/><polygon class="cls-33" points="23.49 8.5 22.26 8.5 22.92 9.44 24.15 9.44 23.49 8.5"/><polygon class="cls-33" points="24.15 9.44 25 9.44 25 8.91 24.71 8.5 23.49 8.5 24.15 9.44"/><polygon class="cls-33" points="25 8.91 25 8.5 24.71 8.5 25 8.91"/><polygon class="cls-38" points="0 10.39 0.31 10.39 0 9.95 0 10.39"/><polygon class="cls-52" points="0 9.95 0.31 10.39 1.53 10.39 0.87 9.44 0 9.44 0 9.95"/><polygon class="cls-24" points="2.1 9.44 0.87 9.44 1.53 10.39 2.76 10.39 2.1 9.44"/><polygon class="cls-5" points="3.32 9.44 2.1 9.44 2.76 10.39 3.98 10.39 3.32 9.44"/><polygon class="cls-17" points="4.55 9.44 3.32 9.44 3.98 10.39 5.21 10.39 4.55 9.44"/><polygon class="cls-15" points="5.77 9.44 4.55 9.44 5.21 10.39 6.43 10.39 5.77 9.44"/><polygon class="cls-13" points="7 9.44 5.77 9.44 6.43 10.39 7.66 10.39 7 9.44"/><polygon class="cls-14" points="8.22 9.44 7 9.44 7.66 10.39 8.88 10.39 8.22 9.44"/><polygon class="cls-58" points="9.45 9.44 8.22 9.44 8.88 10.39 10.11 10.39 9.45 9.44"/><polygon class="cls-7" points="10.67 9.44 9.45 9.44 10.11 10.39 11.34 10.39 10.67 9.44"/><polygon class="cls-25" points="11.9 9.44 10.67 9.44 11.34 10.39 12.56 10.39 11.9 9.44"/><polygon class="cls-47" points="13.12 9.44 11.9 9.44 12.56 10.39 13.79 10.39 13.12 9.44"/><polygon class="cls-44" points="14.35 9.44 13.12 9.44 13.79 10.39 15.01 10.39 14.35 9.44"/><polygon class="cls-48" points="15.57 9.44 14.35 9.44 15.01 10.39 16.23 10.39 15.57 9.44"/><polygon class="cls-43" points="16.8 9.44 15.57 9.44 16.23 10.39 17.46 10.39 16.8 9.44"/><polygon class="cls-43" points="18.02 9.44 16.8 9.44 17.46 10.39 18.68 10.39 18.02 9.44"/><polygon class="cls-33" points="19.25 9.44 18.02 9.44 18.68 10.39 19.91 10.39 19.25 9.44"/><polygon class="cls-33" points="20.47 9.44 19.25 9.44 19.91 10.39 21.14 10.39 20.47 9.44"/><polygon class="cls-33" points="21.7 9.44 20.47 9.44 21.14 10.39 22.36 10.39 21.7 9.44"/><polygon class="cls-33" points="22.92 9.44 21.7 9.44 22.36 10.39 23.59 10.39 22.92 9.44"/><polygon class="cls-33" points="24.15 9.44 22.92 9.44 23.59 10.39 24.81 10.39 24.15 9.44"/><polygon class="cls-33" points="25 9.44 24.15 9.44 24.81 10.39 25 10.39 25 9.44"/><polygon class="cls-17" points="0 11.33 0.97 11.33 0.31 10.39 0 10.39 0 11.33"/><polygon class="cls-52" points="1.53 10.39 0.31 10.39 0.97 11.33 2.2 11.33 1.53 10.39"/><polygon class="cls-15" points="2.76 10.39 1.53 10.39 2.2 11.33 3.42 11.33 2.76 10.39"/><polygon class="cls-45" points="3.98 10.39 2.76 10.39 3.42 11.33 4.65 11.33 3.98 10.39"/><polygon class="cls-45" points="5.21 10.39 3.98 10.39 4.65 11.33 5.87 11.33 5.21 10.39"/><polygon class="cls-14" points="6.43 10.39 5.21 10.39 5.87 11.33 7.1 11.33 6.43 10.39"/><polygon class="cls-37" points="7.66 10.39 6.43 10.39 7.1 11.33 8.32 11.33 7.66 10.39"/><polygon class="cls-48" points="8.88 10.39 7.66 10.39 8.32 11.33 9.55 11.33 8.88 10.39"/><polygon class="cls-7" points="10.11 10.39 8.88 10.39 9.55 11.33 10.77 11.33 10.11 10.39"/><polygon class="cls-55" points="11.34 10.39 10.11 10.39 10.77 11.33 12 11.33 11.34 10.39"/><polygon class="cls-50" points="12.56 10.39 11.34 10.39 12 11.33 13.22 11.33 12.56 10.39"/><polygon class="cls-26" points="13.79 10.39 12.56 10.39 13.22 11.33 14.45 11.33 13.79 10.39"/><polygon class="cls-50" points="15.01 10.39 13.79 10.39 14.45 11.33 15.67 11.33 15.01 10.39"/><polygon class="cls-50" points="16.23 10.39 15.01 10.39 15.67 11.33 16.9 11.33 16.23 10.39"/><polygon class="cls-33" points="17.46 10.39 16.23 10.39 16.9 11.33 18.12 11.33 17.46 10.39"/><polygon class="cls-57" points="18.68 10.39 17.46 10.39 18.12 11.33 19.35 11.33 18.68 10.39"/><polygon class="cls-33" points="19.91 10.39 18.68 10.39 19.35 11.33 20.57 11.33 19.91 10.39"/><polygon class="cls-33" points="21.14 10.39 19.91 10.39 20.57 11.33 21.8 11.33 21.14 10.39"/><polygon class="cls-33" points="22.36 10.39 21.14 10.39 21.8 11.33 23.02 11.33 22.36 10.39"/><polygon class="cls-33" points="23.59 10.39 22.36 10.39 23.02 11.33 24.25 11.33 23.59 10.39"/><polygon class="cls-33" points="24.25 11.33 25 11.33 25 10.66 24.81 10.39 23.59 10.39 24.25 11.33"/><polygon class="cls-33" points="25 10.66 25 10.39 24.81 10.39 25 10.66"/><polygon class="cls-16" points="0 12.28 0.41 12.28 0 11.69 0 12.28"/><polygon class="cls-17" points="0 11.69 0.41 12.28 1.63 12.28 0.97 11.33 0 11.33 0 11.69"/><polygon class="cls-16" points="2.2 11.33 0.97 11.33 1.63 12.28 2.86 12.28 2.2 11.33"/><polygon class="cls-13" points="3.42 11.33 2.2 11.33 2.86 12.28 4.08 12.28 3.42 11.33"/><polygon class="cls-24" points="4.65 11.33 3.42 11.33 4.08 12.28 5.31 12.28 4.65 11.33"/><polygon class="cls-15" points="5.87 11.33 4.65 11.33 5.31 12.28 6.53 12.28 5.87 11.33"/><polygon class="cls-15" points="7.1 11.33 5.87 11.33 6.53 12.28 7.76 12.28 7.1 11.33"/><polygon class="cls-40" points="8.32 11.33 7.1 11.33 7.76 12.28 8.98 12.28 8.32 11.33"/><polygon class="cls-33" points="9.55 11.33 8.32 11.33 8.98 12.28 10.21 12.28 9.55 11.33"/><polygon class="cls-47" points="10.77 11.33 9.55 11.33 10.21 12.28 11.43 12.28 10.77 11.33"/><polygon class="cls-8" points="12 11.33 10.77 11.33 11.43 12.28 12.66 12.28 12 11.33"/><polygon class="cls-55" points="13.22 11.33 12 11.33 12.66 12.28 13.88 12.28 13.22 11.33"/><polygon class="cls-43" points="14.45 11.33 13.22 11.33 13.88 12.28 15.11 12.28 14.45 11.33"/><polygon class="cls-59" points="15.67 11.33 14.45 11.33 15.11 12.28 16.33 12.28 15.67 11.33"/><polygon class="cls-26" points="16.9 11.33 15.67 11.33 16.33 12.28 17.56 12.28 16.9 11.33"/><polygon class="cls-56" points="18.12 11.33 16.9 11.33 17.56 12.28 18.78 12.28 18.12 11.33"/><polygon class="cls-33" points="19.35 11.33 18.12 11.33 18.78 12.28 20.01 12.28 19.35 11.33"/><polygon class="cls-33" points="20.57 11.33 19.35 11.33 20.01 12.28 21.23 12.28 20.57 11.33"/><polygon class="cls-33" points="21.8 11.33 20.57 11.33 21.23 12.28 22.46 12.28 21.8 11.33"/><polygon class="cls-33" points="23.02 11.33 21.8 11.33 22.46 12.28 23.68 12.28 23.02 11.33"/><polygon class="cls-33" points="24.25 11.33 23.02 11.33 23.68 12.28 24.91 12.28 24.25 11.33"/><polygon class="cls-33" points="25 11.33 24.25 11.33 24.91 12.28 25 12.28 25 11.33"/><polygon class="cls-52" points="0 13.22 1.07 13.22 0.41 12.28 0 12.28 0 13.22"/><polygon class="cls-23" points="1.63 12.28 0.41 12.28 1.07 13.22 2.3 13.22 1.63 12.28"/><polygon class="cls-23" points="2.86 12.28 1.63 12.28 2.3 13.22 3.52 13.22 2.86 12.28"/><polygon class="cls-4" points="4.08 12.28 2.86 12.28 3.52 13.22 4.75 13.22 4.08 12.28"/><polygon class="cls-25" points="5.31 12.28 4.08 12.28 4.75 13.22 5.97 13.22 5.31 12.28"/><polygon class="cls-12" points="6.53 12.28 5.31 12.28 5.97 13.22 7.2 13.22 6.53 12.28"/><polygon class="cls-30" points="7.76 12.28 6.53 12.28 7.2 13.22 8.42 13.22 7.76 12.28"/><polygon class="cls-30" points="8.98 12.28 7.76 12.28 8.42 13.22 9.65 13.22 8.98 12.28"/><polygon class="cls-7" points="10.21 12.28 8.98 12.28 9.65 13.22 10.87 13.22 10.21 12.28"/><polygon class="cls-41" points="11.43 12.28 10.21 12.28 10.87 13.22 12.1 13.22 11.43 12.28"/><polygon class="cls-54" points="12.66 12.28 11.43 12.28 12.1 13.22 13.32 13.22 12.66 12.28"/><polygon class="cls-35" points="13.88 12.28 12.66 12.28 13.32 13.22 14.55 13.22 13.88 12.28"/><polygon class="cls-49" points="15.11 12.28 13.88 12.28 14.55 13.22 15.77 13.22 15.11 12.28"/><polygon class="cls-44" points="16.33 12.28 15.11 12.28 15.77 13.22 17 13.22 16.33 12.28"/><polygon class="cls-48" points="17.56 12.28 16.33 12.28 17 13.22 18.22 13.22 17.56 12.28"/><polygon class="cls-28" points="18.78 12.28 17.56 12.28 18.22 13.22 19.45 13.22 18.78 12.28"/><polygon class="cls-33" points="20.01 12.28 18.78 12.28 19.45 13.22 20.67 13.22 20.01 12.28"/><polygon class="cls-33" points="21.23 12.28 20.01 12.28 20.67 13.22 21.9 13.22 21.23 12.28"/><polygon class="cls-33" points="22.46 12.28 21.23 12.28 21.9 13.22 23.12 13.22 22.46 12.28"/><polygon class="cls-33" points="23.68 12.28 22.46 12.28 23.12 13.22 24.35 13.22 23.68 12.28"/><polygon class="cls-33" points="24.35 13.22 25 13.22 25 12.41 24.91 12.28 23.68 12.28 24.35 13.22"/><polygon class="cls-33" points="25 12.41 25 12.28 24.91 12.28 25 12.41"/><polygon class="cls-23" points="0 14.17 0.51 14.17 0 13.44 0 14.17"/><polygon class="cls-16" points="0 13.44 0.51 14.17 1.73 14.17 1.07 13.22 0 13.22 0 13.44"/><polygon class="cls-23" points="2.3 13.22 1.07 13.22 1.73 14.17 2.96 14.17 2.3 13.22"/><polygon class="cls-19" points="3.52 13.22 2.3 13.22 2.96 14.17 4.18 14.17 3.52 13.22"/><polygon class="cls-45" points="4.75 13.22 3.52 13.22 4.18 14.17 5.41 14.17 4.75 13.22"/><polygon class="cls-10" points="5.97 13.22 4.75 13.22 5.41 14.17 6.63 14.17 5.97 13.22"/><polygon class="cls-47" points="7.2 13.22 5.97 13.22 6.63 14.17 7.86 14.17 7.2 13.22"/><polygon class="cls-57" points="8.42 13.22 7.2 13.22 7.86 14.17 9.08 14.17 8.42 13.22"/><polygon class="cls-57" points="9.65 13.22 8.42 13.22 9.08 14.17 10.31 14.17 9.65 13.22"/><polygon class="cls-59" points="10.87 13.22 9.65 13.22 10.31 14.17 11.53 14.17 10.87 13.22"/><polygon class="cls-33" points="12.1 13.22 10.87 13.22 11.53 14.17 12.76 14.17 12.1 13.22"/><polygon class="cls-30" points="13.32 13.22 12.1 13.22 12.76 14.17 13.98 14.17 13.32 13.22"/><polygon class="cls-33" points="14.55 13.22 13.32 13.22 13.98 14.17 15.21 14.17 14.55 13.22"/><polygon class="cls-33" points="15.77 13.22 14.55 13.22 15.21 14.17 16.43 14.17 15.77 13.22"/><polygon class="cls-33" points="17 13.22 15.77 13.22 16.43 14.17 17.66 14.17 17 13.22"/><polygon class="cls-33" points="18.22 13.22 17 13.22 17.66 14.17 18.88 14.17 18.22 13.22"/><polygon class="cls-33" points="19.45 13.22 18.22 13.22 18.88 14.17 20.11 14.17 19.45 13.22"/><polygon class="cls-33" points="20.67 13.22 19.45 13.22 20.11 14.17 21.33 14.17 20.67 13.22"/><polygon class="cls-33" points="21.9 13.22 20.67 13.22 21.33 14.17 22.56 14.17 21.9 13.22"/><polygon class="cls-33" points="23.12 13.22 21.9 13.22 22.56 14.17 23.78 14.17 23.12 13.22"/><polygon class="cls-33" points="23.78 14.17 25 14.17 25 14.16 24.35 13.22 23.12 13.22 23.78 14.17"/><polygon class="cls-33" points="25 14.16 25 13.22 24.35 13.22 25 14.16"/><polygon class="cls-25" points="0 15.11 1.17 15.11 0.51 14.17 0 14.17 0 15.11"/><polygon class="cls-52" points="1.73 14.17 0.51 14.17 1.17 15.11 2.4 15.11 1.73 14.17"/><polygon class="cls-17" points="2.96 14.17 1.73 14.17 2.4 15.11 3.62 15.11 2.96 14.17"/><polygon class="cls-22" points="4.18 14.17 2.96 14.17 3.62 15.11 4.84 15.11 4.18 14.17"/><polygon class="cls-52" points="5.41 14.17 4.18 14.17 4.84 15.11 6.07 15.11 5.41 14.17"/><polygon class="cls-45" points="6.63 14.17 5.41 14.17 6.07 15.11 7.29 15.11 6.63 14.17"/><polygon class="cls-58" points="7.86 14.17 6.63 14.17 7.29 15.11 8.52 15.11 7.86 14.17"/><polygon class="cls-9" points="9.08 14.17 7.86 14.17 8.52 15.11 9.74 15.11 9.08 14.17"/><polygon class="cls-60" points="10.31 14.17 9.08 14.17 9.74 15.11 10.97 15.11 10.31 14.17"/><polygon class="cls-54" points="11.53 14.17 10.31 14.17 10.97 15.11 12.2 15.11 11.53 14.17"/><polygon class="cls-33" points="12.76 14.17 11.53 14.17 12.2 15.11 13.42 15.11 12.76 14.17"/><polygon class="cls-33" points="13.98 14.17 12.76 14.17 13.42 15.11 14.64 15.11 13.98 14.17"/><polygon class="cls-33" points="15.21 14.17 13.98 14.17 14.64 15.11 15.87 15.11 15.21 14.17"/><polygon class="cls-33" points="16.43 14.17 15.21 14.17 15.87 15.11 17.09 15.11 16.43 14.17"/><polygon class="cls-33" points="17.66 14.17 16.43 14.17 17.09 15.11 18.32 15.11 17.66 14.17"/><polygon class="cls-33" points="18.88 14.17 17.66 14.17 18.32 15.11 19.55 15.11 18.88 14.17"/><polygon class="cls-33" points="20.11 14.17 18.88 14.17 19.55 15.11 20.77 15.11 20.11 14.17"/><polygon class="cls-33" points="21.33 14.17 20.11 14.17 20.77 15.11 22 15.11 21.33 14.17"/><polygon class="cls-33" points="22.56 14.17 21.33 14.17 22 15.11 23.22 15.11 22.56 14.17"/><polygon class="cls-33" points="23.78 14.17 22.56 14.17 23.22 15.11 24.44 15.11 23.78 14.17"/><polygon class="cls-33" points="25 14.17 23.78 14.17 24.44 15.11 25 15.11 25 14.17"/><polygon class="cls-25" points="0 16.06 0.61 16.06 0 15.19 0 16.06"/><polygon class="cls-12" points="0 15.19 0.61 16.06 1.83 16.06 1.17 15.11 0 15.11 0 15.19"/><polygon class="cls-38" points="2.4 15.11 1.17 15.11 1.83 16.06 3.06 16.06 2.4 15.11"/><polygon class="cls-3" points="3.62 15.11 2.4 15.11 3.06 16.06 4.28 16.06 3.62 15.11"/><polygon class="cls-32" points="4.84 15.11 3.62 15.11 4.28 16.06 5.51 16.06 4.84 15.11"/><polygon class="cls-24" points="6.07 15.11 4.84 15.11 5.51 16.06 6.73 16.06 6.07 15.11"/><polygon class="cls-3" points="7.29 15.11 6.07 15.11 6.73 16.06 7.96 16.06 7.29 15.11"/><polygon class="cls-58" points="8.52 15.11 7.29 15.11 7.96 16.06 9.18 16.06 8.52 15.11"/><polygon class="cls-28" points="9.74 15.11 8.52 15.11 9.18 16.06 10.41 16.06 9.74 15.11"/><polygon class="cls-56" points="10.97 15.11 9.74 15.11 10.41 16.06 11.63 16.06 10.97 15.11"/><polygon class="cls-33" points="12.2 15.11 10.97 15.11 11.63 16.06 12.86 16.06 12.2 15.11"/><polygon class="cls-33" points="13.42 15.11 12.2 15.11 12.86 16.06 14.08 16.06 13.42 15.11"/><polygon class="cls-33" points="14.64 15.11 13.42 15.11 14.08 16.06 15.31 16.06 14.64 15.11"/><polygon class="cls-33" points="15.87 15.11 14.64 15.11 15.31 16.06 16.53 16.06 15.87 15.11"/><polygon class="cls-33" points="17.09 15.11 15.87 15.11 16.53 16.06 17.76 16.06 17.09 15.11"/><polygon class="cls-56" points="18.32 15.11 17.09 15.11 17.76 16.06 18.98 16.06 18.32 15.11"/><polygon class="cls-28" points="19.55 15.11 18.32 15.11 18.98 16.06 20.21 16.06 19.55 15.11"/><polygon class="cls-33" points="20.77 15.11 19.55 15.11 20.21 16.06 21.43 16.06 20.77 15.11"/><polygon class="cls-33" points="22 15.11 20.77 15.11 21.43 16.06 22.66 16.06 22 15.11"/><polygon class="cls-33" points="23.22 15.11 22 15.11 22.66 16.06 23.88 16.06 23.22 15.11"/><polygon class="cls-33" points="23.88 16.06 25 16.06 25 15.9 24.44 15.11 23.22 15.11 23.88 16.06"/><polygon class="cls-33" points="25 15.9 25 15.11 24.44 15.11 25 15.9"/><polygon class="cls-47" points="0 16.94 0.04 17 1.27 17 0.61 16.06 0 16.06 0 16.94"/><polygon class="cls-10" points="1.83 16.06 0.61 16.06 1.27 17 2.49 17 1.83 16.06"/><polygon class="cls-15" points="3.06 16.06 1.83 16.06 2.49 17 3.72 17 3.06 16.06"/><polygon class="cls-23" points="4.28 16.06 3.06 16.06 3.72 17 4.94 17 4.28 16.06"/><polygon class="cls-13" points="5.51 16.06 4.28 16.06 4.94 17 6.17 17 5.51 16.06"/><polygon class="cls-16" points="6.73 16.06 5.51 16.06 6.17 17 7.39 17 6.73 16.06"/><polygon class="cls-2" points="7.96 16.06 6.73 16.06 7.39 17 8.62 17 7.96 16.06"/><polygon class="cls-59" points="9.18 16.06 7.96 16.06 8.62 17 9.84 17 9.18 16.06"/><polygon class="cls-33" points="10.41 16.06 9.18 16.06 9.84 17 11.07 17 10.41 16.06"/><polygon class="cls-33" points="11.63 16.06 10.41 16.06 11.07 17 12.29 17 11.63 16.06"/><polygon class="cls-33" points="12.86 16.06 11.63 16.06 12.29 17 13.52 17 12.86 16.06"/><polygon class="cls-33" points="14.08 16.06 12.86 16.06 13.52 17 14.74 17 14.08 16.06"/><polygon class="cls-33" points="15.31 16.06 14.08 16.06 14.74 17 15.97 17 15.31 16.06"/><polygon class="cls-33" points="16.53 16.06 15.31 16.06 15.97 17 17.19 17 16.53 16.06"/><polygon class="cls-33" points="17.76 16.06 16.53 16.06 17.19 17 18.42 17 17.76 16.06"/><polygon class="cls-60" points="18.98 16.06 17.76 16.06 18.42 17 19.64 17 18.98 16.06"/><polygon class="cls-60" points="20.21 16.06 18.98 16.06 19.64 17 20.87 17 20.21 16.06"/><polygon class="cls-33" points="21.43 16.06 20.21 16.06 20.87 17 22.09 17 21.43 16.06"/><polygon class="cls-33" points="22.66 16.06 21.43 16.06 22.09 17 23.32 17 22.66 16.06"/><polygon class="cls-33" points="23.88 16.06 22.66 16.06 23.32 17 24.54 17 23.88 16.06"/><polygon class="cls-33" points="25 16.06 23.88 16.06 24.54 17 25 17 25 16.06"/><g class="cls-61"><polygon class="cls-2" points="0 17 0.38 17 1.04 16.06 0 16.06 0 17"/><polygon class="cls-3" points="1.6 17 0.38 17 1.04 16.06 2.27 16.06 1.6 17"/><polygon class="cls-4" points="2.83 17 1.6 17 2.27 16.06 3.49 16.06 2.83 17"/><polygon class="cls-5" points="4.05 17 2.83 17 3.49 16.06 4.71 16.06 4.05 17"/><polygon class="cls-6" points="5.28 17 4.05 17 4.71 16.06 5.94 16.06 5.28 17"/><polygon class="cls-7" points="6.5 17 5.28 17 5.94 16.06 7.17 16.06 6.5 17"/><polygon class="cls-8" points="7.73 17 6.5 17 7.17 16.06 8.39 16.06 7.73 17"/><polygon class="cls-9" points="8.95 17 7.73 17 8.39 16.06 9.62 16.06 8.95 17"/><polygon class="cls-10" points="10.18 17 8.95 17 9.62 16.06 10.84 16.06 10.18 17"/><polygon class="cls-11" points="11.4 17 10.18 17 10.84 16.06 12.06 16.06 11.4 17"/><polygon class="cls-12" points="12.63 17 11.4 17 12.06 16.06 13.29 16.06 12.63 17"/><polygon class="cls-13" points="13.85 17 12.63 17 13.29 16.06 14.52 16.06 13.85 17"/><polygon class="cls-14" points="15.08 17 13.85 17 14.52 16.06 15.74 16.06 15.08 17"/><polygon class="cls-15" points="16.3 17 15.08 17 15.74 16.06 16.96 16.06 16.3 17"/><polygon class="cls-16" points="17.53 17 16.3 17 16.96 16.06 18.19 16.06 17.53 17"/><polygon class="cls-17" points="18.75 17 17.53 17 18.19 16.06 19.41 16.06 18.75 17"/><polygon class="cls-3" points="19.98 17 18.75 17 19.41 16.06 20.64 16.06 19.98 17"/><polygon class="cls-18" points="21.2 17 19.98 17 20.64 16.06 21.86 16.06 21.2 17"/><polygon class="cls-19" points="22.43 17 21.2 17 21.86 16.06 23.09 16.06 22.43 17"/><polygon class="cls-2" points="23.65 17 22.43 17 23.09 16.06 24.32 16.06 23.65 17"/><polygon class="cls-20" points="24.88 17 25 16.83 25 16.06 24.32 16.06 23.65 17 24.88 17"/><polygon class="cls-21" points="0 15.79 0.48 15.11 0 15.11 0 15.79"/><polygon class="cls-22" points="0 16.06 1.04 16.06 1.7 15.11 0.48 15.11 0 15.79 0 16.06"/><polygon class="cls-22" points="2.27 16.06 1.04 16.06 1.7 15.11 2.93 15.11 2.27 16.06"/><polygon class="cls-23" points="3.49 16.06 2.27 16.06 2.93 15.11 4.15 15.11 3.49 16.06"/><polygon class="cls-24" points="4.71 16.06 3.49 16.06 4.15 15.11 5.38 15.11 4.71 16.06"/><polygon class="cls-25" points="5.94 16.06 4.71 16.06 5.38 15.11 6.6 15.11 5.94 16.06"/><polygon class="cls-9" points="7.17 16.06 5.94 16.06 6.6 15.11 7.83 15.11 7.17 16.06"/><polygon class="cls-26" points="8.39 16.06 7.17 16.06 7.83 15.11 9.05 15.11 8.39 16.06"/><polygon class="cls-27" points="9.62 16.06 8.39 16.06 9.05 15.11 10.28 15.11 9.62 16.06"/><polygon class="cls-28" points="10.84 16.06 9.62 16.06 10.28 15.11 11.5 15.11 10.84 16.06"/><polygon class="cls-6" points="12.06 16.06 10.84 16.06 11.5 15.11 12.73 15.11 12.06 16.06"/><polygon class="cls-14" points="13.29 16.06 12.06 16.06 12.73 15.11 13.95 15.11 13.29 16.06"/><polygon class="cls-29" points="14.52 16.06 13.29 16.06 13.95 15.11 15.18 15.11 14.52 16.06"/><polygon class="cls-30" points="15.74 16.06 14.52 16.06 15.18 15.11 16.4 15.11 15.74 16.06"/><polygon class="cls-25" points="16.96 16.06 15.74 16.06 16.4 15.11 17.63 15.11 16.96 16.06"/><polygon class="cls-6" points="18.19 16.06 16.96 16.06 17.63 15.11 18.85 15.11 18.19 16.06"/><polygon class="cls-24" points="19.41 16.06 18.19 16.06 18.85 15.11 20.08 15.11 19.41 16.06"/><polygon class="cls-27" points="20.64 16.06 19.41 16.06 20.08 15.11 21.3 15.11 20.64 16.06"/><polygon class="cls-12" points="21.86 16.06 20.64 16.06 21.3 15.11 22.53 15.11 21.86 16.06"/><polygon class="cls-31" points="23.09 16.06 21.86 16.06 22.53 15.11 23.75 15.11 23.09 16.06"/><polygon class="cls-32" points="24.32 16.06 23.09 16.06 23.75 15.11 24.98 15.11 24.32 16.06"/><polygon class="cls-22" points="25 16.06 25 15.11 24.98 15.11 24.32 16.06 25 16.06"/><polygon class="cls-21" points="0 15.11 0.48 15.11 1.14 14.17 0 14.17 0 15.11"/><polygon class="cls-18" points="1.7 15.11 0.48 15.11 1.14 14.17 2.36 14.17 1.7 15.11"/><polygon class="cls-3" points="2.93 15.11 1.7 15.11 2.36 14.17 3.59 14.17 2.93 15.11"/><polygon class="cls-23" points="4.15 15.11 2.93 15.11 3.59 14.17 4.81 14.17 4.15 15.11"/><polygon class="cls-3" points="5.38 15.11 4.15 15.11 4.81 14.17 6.04 14.17 5.38 15.11"/><polygon class="cls-4" points="6.6 15.11 5.38 15.11 6.04 14.17 7.26 14.17 6.6 15.11"/><polygon class="cls-6" points="7.83 15.11 6.6 15.11 7.26 14.17 8.49 14.17 7.83 15.11"/><polygon class="cls-28" points="9.05 15.11 7.83 15.11 8.49 14.17 9.71 14.17 9.05 15.11"/><polygon class="cls-27" points="10.28 15.11 9.05 15.11 9.71 14.17 10.94 14.17 10.28 15.11"/><polygon class="cls-33" points="11.5 15.11 10.28 15.11 10.94 14.17 12.16 14.17 11.5 15.11"/><polygon class="cls-30" points="12.73 15.11 11.5 15.11 12.16 14.17 13.39 14.17 12.73 15.11"/><polygon class="cls-33" points="13.95 15.11 12.73 15.11 13.39 14.17 14.61 14.17 13.95 15.11"/><polygon class="cls-34" points="15.18 15.11 13.95 15.11 14.61 14.17 15.84 14.17 15.18 15.11"/><polygon class="cls-35" points="16.4 15.11 15.18 15.11 15.84 14.17 17.06 14.17 16.4 15.11"/><polygon class="cls-31" points="17.63 15.11 16.4 15.11 17.06 14.17 18.29 14.17 17.63 15.11"/><polygon class="cls-36" points="18.85 15.11 17.63 15.11 18.29 14.17 19.51 14.17 18.85 15.11"/><polygon class="cls-36" points="20.08 15.11 18.85 15.11 19.51 14.17 20.74 14.17 20.08 15.11"/><polygon class="cls-13" points="21.3 15.11 20.08 15.11 20.74 14.17 21.96 14.17 21.3 15.11"/><polygon class="cls-5" points="22.53 15.11 21.3 15.11 21.96 14.17 23.19 14.17 22.53 15.11"/><polygon class="cls-37" points="23.75 15.11 22.53 15.11 23.19 14.17 24.41 14.17 23.75 15.11"/><polygon class="cls-38" points="24.98 15.11 25 15.08 25 14.17 24.41 14.17 23.75 15.11 24.98 15.11"/><polygon class="cls-39" points="0 14.04 0.58 13.22 0 13.22 0 14.04"/><polygon class="cls-18" points="0 14.17 1.14 14.17 1.8 13.22 0.58 13.22 0 14.04 0 14.17"/><polygon class="cls-19" points="2.36 14.17 1.14 14.17 1.8 13.22 3.03 13.22 2.36 14.17"/><polygon class="cls-32" points="3.59 14.17 2.36 14.17 3.03 13.22 4.25 13.22 3.59 14.17"/><polygon class="cls-38" points="4.81 14.17 3.59 14.17 4.25 13.22 5.48 13.22 4.81 14.17"/><polygon class="cls-13" points="6.04 14.17 4.81 14.17 5.48 13.22 6.7 13.22 6.04 14.17"/><polygon class="cls-40" points="7.26 14.17 6.04 14.17 6.7 13.22 7.93 13.22 7.26 14.17"/><polygon class="cls-6" points="8.49 14.17 7.26 14.17 7.93 13.22 9.15 13.22 8.49 14.17"/><polygon class="cls-41" points="9.71 14.17 8.49 14.17 9.15 13.22 10.38 13.22 9.71 14.17"/><polygon class="cls-42" points="10.94 14.17 9.71 14.17 10.38 13.22 11.6 13.22 10.94 14.17"/><polygon class="cls-8" points="12.16 14.17 10.94 14.17 11.6 13.22 12.83 13.22 12.16 14.17"/><polygon class="cls-28" points="13.39 14.17 12.16 14.17 12.83 13.22 14.05 13.22 13.39 14.17"/><polygon class="cls-35" points="14.61 14.17 13.39 14.17 14.05 13.22 15.28 13.22 14.61 14.17"/><polygon class="cls-33" points="15.84 14.17 14.61 14.17 15.28 13.22 16.5 13.22 15.84 14.17"/><polygon class="cls-43" points="17.06 14.17 15.84 14.17 16.5 13.22 17.73 13.22 17.06 14.17"/><polygon class="cls-44" points="18.29 14.17 17.06 14.17 17.73 13.22 18.95 13.22 18.29 14.17"/><polygon class="cls-45" points="19.51 14.17 18.29 14.17 18.95 13.22 20.18 13.22 19.51 14.17"/><polygon class="cls-27" points="20.74 14.17 19.51 14.17 20.18 13.22 21.4 13.22 20.74 14.17"/><polygon class="cls-43" points="21.96 14.17 20.74 14.17 21.4 13.22 22.63 13.22 21.96 14.17"/><polygon class="cls-46" points="23.19 14.17 21.96 14.17 22.63 13.22 23.85 13.22 23.19 14.17"/><polygon class="cls-13" points="24.41 14.17 25 13.33 25 13.22 23.85 13.22 23.19 14.17 24.41 14.17"/><polygon class="cls-17" points="25 14.17 25 13.33 24.41 14.17 25 14.17"/><polygon class="cls-39" points="0 13.22 0.58 13.22 1.24 12.28 0.01 12.28 0 12.3 0 13.22"/><polygon class="cls-21" points="1.8 13.22 0.58 13.22 1.24 12.28 2.46 12.28 1.8 13.22"/><polygon class="cls-21" points="3.03 13.22 1.8 13.22 2.46 12.28 3.69 12.28 3.03 13.22"/><polygon class="cls-3" points="4.25 13.22 3.03 13.22 3.69 12.28 4.91 12.28 4.25 13.22"/><polygon class="cls-4" points="5.48 13.22 4.25 13.22 4.91 12.28 6.14 12.28 5.48 13.22"/><polygon class="cls-9" points="6.7 13.22 5.48 13.22 6.14 12.28 7.36 12.28 6.7 13.22"/><polygon class="cls-46" points="7.93 13.22 6.7 13.22 7.36 12.28 8.59 12.28 7.93 13.22"/><polygon class="cls-14" points="9.15 13.22 7.93 13.22 8.59 12.28 9.81 12.28 9.15 13.22"/><polygon class="cls-47" points="10.38 13.22 9.15 13.22 9.81 12.28 11.04 12.28 10.38 13.22"/><polygon class="cls-9" points="11.6 13.22 10.38 13.22 11.04 12.28 12.26 12.28 11.6 13.22"/><polygon class="cls-8" points="12.83 13.22 11.6 13.22 12.26 12.28 13.49 12.28 12.83 13.22"/><polygon class="cls-42" points="14.05 13.22 12.83 13.22 13.49 12.28 14.71 12.28 14.05 13.22"/><polygon class="cls-48" points="15.28 13.22 14.05 13.22 14.71 12.28 15.94 12.28 15.28 13.22"/><polygon class="cls-49" points="16.5 13.22 15.28 13.22 15.94 12.28 17.16 12.28 16.5 13.22"/><polygon class="cls-33" points="17.73 13.22 16.5 13.22 17.16 12.28 18.39 12.28 17.73 13.22"/><polygon class="cls-27" points="18.95 13.22 17.73 13.22 18.39 12.28 19.61 12.28 18.95 13.22"/><polygon class="cls-10" points="20.18 13.22 18.95 13.22 19.61 12.28 20.84 12.28 20.18 13.22"/><polygon class="cls-50" points="21.4 13.22 20.18 13.22 20.84 12.28 22.06 12.28 21.4 13.22"/><polygon class="cls-34" points="22.63 13.22 21.4 13.22 22.06 12.28 23.29 12.28 22.63 13.22"/><polygon class="cls-33" points="23.85 13.22 22.63 13.22 23.29 12.28 24.51 12.28 23.85 13.22"/><polygon class="cls-41" points="25 13.22 25 12.28 24.51 12.28 23.85 13.22 25 13.22"/><polygon class="cls-51" points="0 12.28 0.01 12.28 0.68 11.33 0 11.33 0 12.28"/><polygon class="cls-19" points="1.24 12.28 0.01 12.28 0.68 11.33 1.9 11.33 1.24 12.28"/><polygon class="cls-32" points="2.46 12.28 1.24 12.28 1.9 11.33 3.13 11.33 2.46 12.28"/><polygon class="cls-23" points="3.69 12.28 2.46 12.28 3.13 11.33 4.35 11.33 3.69 12.28"/><polygon class="cls-24" points="4.91 12.28 3.69 12.28 4.35 11.33 5.58 11.33 4.91 12.28"/><polygon class="cls-52" points="6.14 12.28 4.91 12.28 5.58 11.33 6.8 11.33 6.14 12.28"/><polygon class="cls-15" points="7.36 12.28 6.14 12.28 6.8 11.33 8.03 11.33 7.36 12.28"/><polygon class="cls-10" points="8.59 12.28 7.36 12.28 8.03 11.33 9.25 11.33 8.59 12.28"/><polygon class="cls-14" points="9.81 12.28 8.59 12.28 9.25 11.33 10.47 11.33 9.81 12.28"/><polygon class="cls-7" points="11.04 12.28 9.81 12.28 10.47 11.33 11.7 11.33 11.04 12.28"/><polygon class="cls-43" points="12.26 12.28 11.04 12.28 11.7 11.33 12.93 11.33 12.26 12.28"/><polygon class="cls-40" points="13.49 12.28 12.26 12.28 12.93 11.33 14.15 11.33 13.49 12.28"/><polygon class="cls-53" points="14.71 12.28 13.49 12.28 14.15 11.33 15.38 11.33 14.71 12.28"/><polygon class="cls-53" points="15.94 12.28 14.71 12.28 15.38 11.33 16.6 11.33 15.94 12.28"/><polygon class="cls-33" points="17.16 12.28 15.94 12.28 16.6 11.33 17.82 11.33 17.16 12.28"/><polygon class="cls-54" points="18.39 12.28 17.16 12.28 17.82 11.33 19.05 11.33 18.39 12.28"/><polygon class="cls-49" points="19.61 12.28 18.39 12.28 19.05 11.33 20.27 11.33 19.61 12.28"/><polygon class="cls-53" points="20.84 12.28 19.61 12.28 20.27 11.33 21.5 11.33 20.84 12.28"/><polygon class="cls-28" points="22.06 12.28 20.84 12.28 21.5 11.33 22.73 11.33 22.06 12.28"/><polygon class="cls-33" points="23.29 12.28 22.06 12.28 22.73 11.33 23.95 11.33 23.29 12.28"/><polygon class="cls-35" points="24.51 12.28 25 11.58 25 11.33 23.95 11.33 23.29 12.28 24.51 12.28"/><polygon class="cls-33" points="25 12.28 25 11.58 24.51 12.28 25 12.28"/><polygon class="cls-17" points="0 10.55 0.11 10.39 0 10.39 0 10.55"/><polygon class="cls-17" points="0 11.33 0.68 11.33 1.34 10.39 0.11 10.39 0 10.55 0 11.33"/><polygon class="cls-18" points="1.9 11.33 0.68 11.33 1.34 10.39 2.56 10.39 1.9 11.33"/><polygon class="cls-38" points="3.13 11.33 1.9 11.33 2.56 10.39 3.79 10.39 3.13 11.33"/><polygon class="cls-2" points="4.35 11.33 3.13 11.33 3.79 10.39 5.01 10.39 4.35 11.33"/><polygon class="cls-15" points="5.58 11.33 4.35 11.33 5.01 10.39 6.24 10.39 5.58 11.33"/><polygon class="cls-52" points="6.8 11.33 5.58 11.33 6.24 10.39 7.46 10.39 6.8 11.33"/><polygon class="cls-10" points="8.03 11.33 6.8 11.33 7.46 10.39 8.69 10.39 8.03 11.33"/><polygon class="cls-31" points="9.25 11.33 8.03 11.33 8.69 10.39 9.91 10.39 9.25 11.33"/><polygon class="cls-12" points="10.47 11.33 9.25 11.33 9.91 10.39 11.14 10.39 10.47 11.33"/><polygon class="cls-55" points="11.7 11.33 10.47 11.33 11.14 10.39 12.36 10.39 11.7 11.33"/><polygon class="cls-44" points="12.93 11.33 11.7 11.33 12.36 10.39 13.59 10.39 12.93 11.33"/><polygon class="cls-26" points="14.15 11.33 12.93 11.33 13.59 10.39 14.81 10.39 14.15 11.33"/><polygon class="cls-44" points="15.38 11.33 14.15 11.33 14.81 10.39 16.04 10.39 15.38 11.33"/><polygon class="cls-33" points="16.6 11.33 15.38 11.33 16.04 10.39 17.26 10.39 16.6 11.33"/><polygon class="cls-43" points="17.82 11.33 16.6 11.33 17.26 10.39 18.49 10.39 17.82 11.33"/><polygon class="cls-33" points="19.05 11.33 17.82 11.33 18.49 10.39 19.71 10.39 19.05 11.33"/><polygon class="cls-33" points="20.27 11.33 19.05 11.33 19.71 10.39 20.94 10.39 20.27 11.33"/><polygon class="cls-35" points="21.5 11.33 20.27 11.33 20.94 10.39 22.16 10.39 21.5 11.33"/><polygon class="cls-33" points="22.73 11.33 21.5 11.33 22.16 10.39 23.39 10.39 22.73 11.33"/><polygon class="cls-33" points="23.95 11.33 22.73 11.33 23.39 10.39 24.61 10.39 23.95 11.33"/><polygon class="cls-56" points="25 11.33 25 10.39 24.61 10.39 23.95 11.33 25 11.33"/><polygon class="cls-3" points="0 10.39 0.11 10.39 0.77 9.44 0 9.44 0 10.39"/><polygon class="cls-38" points="1.34 10.39 0.11 10.39 0.77 9.44 2 9.44 1.34 10.39"/><polygon class="cls-2" points="2.56 10.39 1.34 10.39 2 9.44 3.22 9.44 2.56 10.39"/><polygon class="cls-3" points="3.79 10.39 2.56 10.39 3.22 9.44 4.45 9.44 3.79 10.39"/><polygon class="cls-13" points="5.01 10.39 3.79 10.39 4.45 9.44 5.67 9.44 5.01 10.39"/><polygon class="cls-36" points="6.24 10.39 5.01 10.39 5.67 9.44 6.9 9.44 6.24 10.39"/><polygon class="cls-4" points="7.46 10.39 6.24 10.39 6.9 9.44 8.12 9.44 7.46 10.39"/><polygon class="cls-6" points="8.69 10.39 7.46 10.39 8.12 9.44 9.35 9.44 8.69 10.39"/><polygon class="cls-47" points="9.91 10.39 8.69 10.39 9.35 9.44 10.57 9.44 9.91 10.39"/><polygon class="cls-10" points="11.14 10.39 9.91 10.39 10.57 9.44 11.8 9.44 11.14 10.39"/><polygon class="cls-8" points="12.36 10.39 11.14 10.39 11.8 9.44 13.02 9.44 12.36 10.39"/><polygon class="cls-57" points="13.59 10.39 12.36 10.39 13.02 9.44 14.25 9.44 13.59 10.39"/><polygon class="cls-47" points="14.81 10.39 13.59 10.39 14.25 9.44 15.47 9.44 14.81 10.39"/><polygon class="cls-56" points="16.04 10.39 14.81 10.39 15.47 9.44 16.7 9.44 16.04 10.39"/><polygon class="cls-33" points="17.26 10.39 16.04 10.39 16.7 9.44 17.92 9.44 17.26 10.39"/><polygon class="cls-33" points="18.49 10.39 17.26 10.39 17.92 9.44 19.15 9.44 18.49 10.39"/><polygon class="cls-33" points="19.71 10.39 18.49 10.39 19.15 9.44 20.37 9.44 19.71 10.39"/><polygon class="cls-33" points="20.94 10.39 19.71 10.39 20.37 9.44 21.6 9.44 20.94 10.39"/><polygon class="cls-33" points="22.16 10.39 20.94 10.39 21.6 9.44 22.82 9.44 22.16 10.39"/><polygon class="cls-33" points="23.39 10.39 22.16 10.39 22.82 9.44 24.05 9.44 23.39 10.39"/><polygon class="cls-33" points="24.61 10.39 25 9.84 25 9.44 24.05 9.44 23.39 10.39 24.61 10.39"/><polygon class="cls-33" points="25 10.39 25 9.84 24.61 10.39 25 10.39"/><polygon class="cls-17" points="0 8.8 0.21 8.5 0 8.5 0 8.8"/><polygon class="cls-17" points="0 9.44 0.77 9.44 1.44 8.5 0.21 8.5 0 8.8 0 9.44"/><polygon class="cls-15" points="2 9.44 0.77 9.44 1.44 8.5 2.66 8.5 2 9.44"/><polygon class="cls-17" points="3.22 9.44 2 9.44 2.66 8.5 3.89 8.5 3.22 9.44"/><polygon class="cls-45" points="4.45 9.44 3.22 9.44 3.89 8.5 5.11 8.5 4.45 9.44"/><polygon class="cls-15" points="5.67 9.44 4.45 9.44 5.11 8.5 6.34 8.5 5.67 9.44"/><polygon class="cls-36" points="6.9 9.44 5.67 9.44 6.34 8.5 7.56 8.5 6.9 9.44"/><polygon class="cls-36" points="8.12 9.44 6.9 9.44 7.56 8.5 8.79 8.5 8.12 9.44"/><polygon class="cls-55" points="9.35 9.44 8.12 9.44 8.79 8.5 10.01 8.5 9.35 9.44"/><polygon class="cls-13" points="10.57 9.44 9.35 9.44 10.01 8.5 11.24 8.5 10.57 9.44"/><polygon class="cls-31" points="11.8 9.44 10.57 9.44 11.24 8.5 12.46 8.5 11.8 9.44"/><polygon class="cls-42" points="13.02 9.44 11.8 9.44 12.46 8.5 13.69 8.5 13.02 9.44"/><polygon class="cls-41" points="14.25 9.44 13.02 9.44 13.69 8.5 14.91 8.5 14.25 9.44"/><polygon class="cls-33" points="15.47 9.44 14.25 9.44 14.91 8.5 16.14 8.5 15.47 9.44"/><polygon class="cls-34" points="16.7 9.44 15.47 9.44 16.14 8.5 17.36 8.5 16.7 9.44"/><polygon class="cls-33" points="17.92 9.44 16.7 9.44 17.36 8.5 18.59 8.5 17.92 9.44"/><polygon class="cls-49" points="19.15 9.44 17.92 9.44 18.59 8.5 19.81 8.5 19.15 9.44"/><polygon class="cls-33" points="20.37 9.44 19.15 9.44 19.81 8.5 21.04 8.5 20.37 9.44"/><polygon class="cls-33" points="21.6 9.44 20.37 9.44 21.04 8.5 22.26 8.5 21.6 9.44"/><polygon class="cls-33" points="22.82 9.44 21.6 9.44 22.26 8.5 23.49 8.5 22.82 9.44"/><polygon class="cls-33" points="24.05 9.44 22.82 9.44 23.49 8.5 24.71 8.5 24.05 9.44"/><polygon class="cls-33" points="25 9.44 25 8.5 24.71 8.5 24.05 9.44 25 9.44"/><polygon class="cls-45" points="0 8.5 0.21 8.5 0.87 7.56 0 7.56 0 8.5"/><polygon class="cls-15" points="1.44 8.5 0.21 8.5 0.87 7.56 2.1 7.56 1.44 8.5"/><polygon class="cls-23" points="2.66 8.5 1.44 8.5 2.1 7.56 3.32 7.56 2.66 8.5"/><polygon class="cls-52" points="3.89 8.5 2.66 8.5 3.32 7.56 4.55 7.56 3.89 8.5"/><polygon class="cls-4" points="5.11 8.5 3.89 8.5 4.55 7.56 5.77 7.56 5.11 8.5"/><polygon class="cls-47" points="6.34 8.5 5.11 8.5 5.77 7.56 7 7.56 6.34 8.5"/><polygon class="cls-40" points="7.56 8.5 6.34 8.5 7 7.56 8.22 7.56 7.56 8.5"/><polygon class="cls-12" points="8.79 8.5 7.56 8.5 8.22 7.56 9.45 7.56 8.79 8.5"/><polygon class="cls-58" points="10.01 8.5 8.79 8.5 9.45 7.56 10.67 7.56 10.01 8.5"/><polygon class="cls-25" points="11.24 8.5 10.01 8.5 10.67 7.56 11.9 7.56 11.24 8.5"/><polygon class="cls-40" points="12.46 8.5 11.24 8.5 11.9 7.56 13.12 7.56 12.46 8.5"/><polygon class="cls-42" points="13.69 8.5 12.46 8.5 13.12 7.56 14.35 7.56 13.69 8.5"/><polygon class="cls-43" points="14.91 8.5 13.69 8.5 14.35 7.56 15.57 7.56 14.91 8.5"/><polygon class="cls-56" points="16.14 8.5 14.91 8.5 15.57 7.56 16.8 7.56 16.14 8.5"/><polygon class="cls-58" points="17.36 8.5 16.14 8.5 16.8 7.56 18.02 7.56 17.36 8.5"/><polygon class="cls-33" points="18.59 8.5 17.36 8.5 18.02 7.56 19.25 7.56 18.59 8.5"/><polygon class="cls-33" points="19.81 8.5 18.59 8.5 19.25 7.56 20.47 7.56 19.81 8.5"/><polygon class="cls-33" points="21.04 8.5 19.81 8.5 20.47 7.56 21.7 7.56 21.04 8.5"/><polygon class="cls-33" points="22.26 8.5 21.04 8.5 21.7 7.56 22.92 7.56 22.26 8.5"/><polygon class="cls-33" points="23.49 8.5 22.26 8.5 22.92 7.56 24.15 7.56 23.49 8.5"/><polygon class="cls-33" points="24.71 8.5 25 8.09 25 7.56 24.15 7.56 23.49 8.5 24.71 8.5"/><polygon class="cls-33" points="25 8.5 25 8.09 24.71 8.5 25 8.5"/><polygon class="cls-38" points="0 7.05 0.31 6.61 0 6.61 0 7.05"/><polygon class="cls-52" points="0 7.56 0.87 7.56 1.53 6.61 0.31 6.61 0 7.05 0 7.56"/><polygon class="cls-24" points="2.1 7.56 0.87 7.56 1.53 6.61 2.76 6.61 2.1 7.56"/><polygon class="cls-5" points="3.32 7.56 2.1 7.56 2.76 6.61 3.98 6.61 3.32 7.56"/><polygon class="cls-17" points="4.55 7.56 3.32 7.56 3.98 6.61 5.21 6.61 4.55 7.56"/><polygon class="cls-15" points="5.77 7.56 4.55 7.56 5.21 6.61 6.43 6.61 5.77 7.56"/><polygon class="cls-13" points="7 7.56 5.77 7.56 6.43 6.61 7.66 6.61 7 7.56"/><polygon class="cls-14" points="8.22 7.56 7 7.56 7.66 6.61 8.88 6.61 8.22 7.56"/><polygon class="cls-58" points="9.45 7.56 8.22 7.56 8.88 6.61 10.11 6.61 9.45 7.56"/><polygon class="cls-7" points="10.67 7.56 9.45 7.56 10.11 6.61 11.34 6.61 10.67 7.56"/><polygon class="cls-25" points="11.9 7.56 10.67 7.56 11.34 6.61 12.56 6.61 11.9 7.56"/><polygon class="cls-47" points="13.12 7.56 11.9 7.56 12.56 6.61 13.79 6.61 13.12 7.56"/><polygon class="cls-44" points="14.35 7.56 13.12 7.56 13.79 6.61 15.01 6.61 14.35 7.56"/><polygon class="cls-48" points="15.57 7.56 14.35 7.56 15.01 6.61 16.23 6.61 15.57 7.56"/><polygon class="cls-43" points="16.8 7.56 15.57 7.56 16.23 6.61 17.46 6.61 16.8 7.56"/><polygon class="cls-43" points="18.02 7.56 16.8 7.56 17.46 6.61 18.68 6.61 18.02 7.56"/><polygon class="cls-33" points="19.25 7.56 18.02 7.56 18.68 6.61 19.91 6.61 19.25 7.56"/><polygon class="cls-33" points="20.47 7.56 19.25 7.56 19.91 6.61 21.14 6.61 20.47 7.56"/><polygon class="cls-33" points="21.7 7.56 20.47 7.56 21.14 6.61 22.36 6.61 21.7 7.56"/><polygon class="cls-33" points="22.92 7.56 21.7 7.56 22.36 6.61 23.59 6.61 22.92 7.56"/><polygon class="cls-33" points="24.15 7.56 22.92 7.56 23.59 6.61 24.81 6.61 24.15 7.56"/><polygon class="cls-33" points="25 7.56 25 6.61 24.81 6.61 24.15 7.56 25 7.56"/><polygon class="cls-17" points="0 6.61 0.31 6.61 0.97 5.67 0 5.67 0 6.61"/><polygon class="cls-52" points="1.53 6.61 0.31 6.61 0.97 5.67 2.2 5.67 1.53 6.61"/><polygon class="cls-15" points="2.76 6.61 1.53 6.61 2.2 5.67 3.42 5.67 2.76 6.61"/><polygon class="cls-45" points="3.98 6.61 2.76 6.61 3.42 5.67 4.65 5.67 3.98 6.61"/><polygon class="cls-45" points="5.21 6.61 3.98 6.61 4.65 5.67 5.87 5.67 5.21 6.61"/><polygon class="cls-14" points="6.43 6.61 5.21 6.61 5.87 5.67 7.1 5.67 6.43 6.61"/><polygon class="cls-37" points="7.66 6.61 6.43 6.61 7.1 5.67 8.32 5.67 7.66 6.61"/><polygon class="cls-48" points="8.88 6.61 7.66 6.61 8.32 5.67 9.55 5.67 8.88 6.61"/><polygon class="cls-7" points="10.11 6.61 8.88 6.61 9.55 5.67 10.77 5.67 10.11 6.61"/><polygon class="cls-55" points="11.34 6.61 10.11 6.61 10.77 5.67 12 5.67 11.34 6.61"/><polygon class="cls-50" points="12.56 6.61 11.34 6.61 12 5.67 13.22 5.67 12.56 6.61"/><polygon class="cls-26" points="13.79 6.61 12.56 6.61 13.22 5.67 14.45 5.67 13.79 6.61"/><polygon class="cls-50" points="15.01 6.61 13.79 6.61 14.45 5.67 15.67 5.67 15.01 6.61"/><polygon class="cls-50" points="16.23 6.61 15.01 6.61 15.67 5.67 16.9 5.67 16.23 6.61"/><polygon class="cls-33" points="17.46 6.61 16.23 6.61 16.9 5.67 18.12 5.67 17.46 6.61"/><polygon class="cls-57" points="18.68 6.61 17.46 6.61 18.12 5.67 19.35 5.67 18.68 6.61"/><polygon class="cls-33" points="19.91 6.61 18.68 6.61 19.35 5.67 20.57 5.67 19.91 6.61"/><polygon class="cls-33" points="21.14 6.61 19.91 6.61 20.57 5.67 21.8 5.67 21.14 6.61"/><polygon class="cls-33" points="22.36 6.61 21.14 6.61 21.8 5.67 23.02 5.67 22.36 6.61"/><polygon class="cls-33" points="23.59 6.61 22.36 6.61 23.02 5.67 24.25 5.67 23.59 6.61"/><polygon class="cls-33" points="24.81 6.61 25 6.34 25 5.67 24.25 5.67 23.59 6.61 24.81 6.61"/><polygon class="cls-33" points="25 6.61 25 6.34 24.81 6.61 25 6.61"/><polygon class="cls-16" points="0 5.31 0.41 4.72 0 4.72 0 5.31"/><polygon class="cls-17" points="0 5.67 0.97 5.67 1.63 4.72 0.41 4.72 0 5.31 0 5.67"/><polygon class="cls-16" points="2.2 5.67 0.97 5.67 1.63 4.72 2.86 4.72 2.2 5.67"/><polygon class="cls-13" points="3.42 5.67 2.2 5.67 2.86 4.72 4.08 4.72 3.42 5.67"/><polygon class="cls-24" points="4.65 5.67 3.42 5.67 4.08 4.72 5.31 4.72 4.65 5.67"/><polygon class="cls-15" points="5.87 5.67 4.65 5.67 5.31 4.72 6.53 4.72 5.87 5.67"/><polygon class="cls-15" points="7.1 5.67 5.87 5.67 6.53 4.72 7.76 4.72 7.1 5.67"/><polygon class="cls-40" points="8.32 5.67 7.1 5.67 7.76 4.72 8.98 4.72 8.32 5.67"/><polygon class="cls-33" points="9.55 5.67 8.32 5.67 8.98 4.72 10.21 4.72 9.55 5.67"/><polygon class="cls-47" points="10.77 5.67 9.55 5.67 10.21 4.72 11.43 4.72 10.77 5.67"/><polygon class="cls-8" points="12 5.67 10.77 5.67 11.43 4.72 12.66 4.72 12 5.67"/><polygon class="cls-55" points="13.22 5.67 12 5.67 12.66 4.72 13.88 4.72 13.22 5.67"/><polygon class="cls-43" points="14.45 5.67 13.22 5.67 13.88 4.72 15.11 4.72 14.45 5.67"/><polygon class="cls-59" points="15.67 5.67 14.45 5.67 15.11 4.72 16.33 4.72 15.67 5.67"/><polygon class="cls-26" points="16.9 5.67 15.67 5.67 16.33 4.72 17.56 4.72 16.9 5.67"/><polygon class="cls-56" points="18.12 5.67 16.9 5.67 17.56 4.72 18.78 4.72 18.12 5.67"/><polygon class="cls-33" points="19.35 5.67 18.12 5.67 18.78 4.72 20.01 4.72 19.35 5.67"/><polygon class="cls-33" points="20.57 5.67 19.35 5.67 20.01 4.72 21.23 4.72 20.57 5.67"/><polygon class="cls-33" points="21.8 5.67 20.57 5.67 21.23 4.72 22.46 4.72 21.8 5.67"/><polygon class="cls-33" points="23.02 5.67 21.8 5.67 22.46 4.72 23.68 4.72 23.02 5.67"/><polygon class="cls-33" points="24.25 5.67 23.02 5.67 23.68 4.72 24.91 4.72 24.25 5.67"/><polygon class="cls-33" points="25 5.67 25 4.72 24.91 4.72 24.25 5.67 25 5.67"/><polygon class="cls-52" points="0 4.72 0.41 4.72 1.07 3.78 0 3.78 0 4.72"/><polygon class="cls-23" points="1.63 4.72 0.41 4.72 1.07 3.78 2.3 3.78 1.63 4.72"/><polygon class="cls-23" points="2.86 4.72 1.63 4.72 2.3 3.78 3.52 3.78 2.86 4.72"/><polygon class="cls-4" points="4.08 4.72 2.86 4.72 3.52 3.78 4.75 3.78 4.08 4.72"/><polygon class="cls-25" points="5.31 4.72 4.08 4.72 4.75 3.78 5.97 3.78 5.31 4.72"/><polygon class="cls-12" points="6.53 4.72 5.31 4.72 5.97 3.78 7.2 3.78 6.53 4.72"/><polygon class="cls-30" points="7.76 4.72 6.53 4.72 7.2 3.78 8.42 3.78 7.76 4.72"/><polygon class="cls-30" points="8.98 4.72 7.76 4.72 8.42 3.78 9.65 3.78 8.98 4.72"/><polygon class="cls-7" points="10.21 4.72 8.98 4.72 9.65 3.78 10.87 3.78 10.21 4.72"/><polygon class="cls-41" points="11.43 4.72 10.21 4.72 10.87 3.78 12.1 3.78 11.43 4.72"/><polygon class="cls-54" points="12.66 4.72 11.43 4.72 12.1 3.78 13.32 3.78 12.66 4.72"/><polygon class="cls-35" points="13.88 4.72 12.66 4.72 13.32 3.78 14.55 3.78 13.88 4.72"/><polygon class="cls-49" points="15.11 4.72 13.88 4.72 14.55 3.78 15.77 3.78 15.11 4.72"/><polygon class="cls-44" points="16.33 4.72 15.11 4.72 15.77 3.78 17 3.78 16.33 4.72"/><polygon class="cls-48" points="17.56 4.72 16.33 4.72 17 3.78 18.22 3.78 17.56 4.72"/><polygon class="cls-28" points="18.78 4.72 17.56 4.72 18.22 3.78 19.45 3.78 18.78 4.72"/><polygon class="cls-33" points="20.01 4.72 18.78 4.72 19.45 3.78 20.67 3.78 20.01 4.72"/><polygon class="cls-33" points="21.23 4.72 20.01 4.72 20.67 3.78 21.9 3.78 21.23 4.72"/><polygon class="cls-33" points="22.46 4.72 21.23 4.72 21.9 3.78 23.12 3.78 22.46 4.72"/><polygon class="cls-33" points="23.68 4.72 22.46 4.72 23.12 3.78 24.35 3.78 23.68 4.72"/><polygon class="cls-33" points="24.91 4.72 25 4.59 25 3.78 24.35 3.78 23.68 4.72 24.91 4.72"/><polygon class="cls-33" points="25 4.72 25 4.59 24.91 4.72 25 4.72"/><polygon class="cls-23" points="0 3.56 0.51 2.83 0 2.83 0 3.56"/><polygon class="cls-16" points="0 3.78 1.07 3.78 1.73 2.83 0.51 2.83 0 3.56 0 3.78"/><polygon class="cls-23" points="2.3 3.78 1.07 3.78 1.73 2.83 2.96 2.83 2.3 3.78"/><polygon class="cls-19" points="3.52 3.78 2.3 3.78 2.96 2.83 4.18 2.83 3.52 3.78"/><polygon class="cls-45" points="4.75 3.78 3.52 3.78 4.18 2.83 5.41 2.83 4.75 3.78"/><polygon class="cls-10" points="5.97 3.78 4.75 3.78 5.41 2.83 6.63 2.83 5.97 3.78"/><polygon class="cls-47" points="7.2 3.78 5.97 3.78 6.63 2.83 7.86 2.83 7.2 3.78"/><polygon class="cls-57" points="8.42 3.78 7.2 3.78 7.86 2.83 9.08 2.83 8.42 3.78"/><polygon class="cls-57" points="9.65 3.78 8.42 3.78 9.08 2.83 10.31 2.83 9.65 3.78"/><polygon class="cls-59" points="10.87 3.78 9.65 3.78 10.31 2.83 11.53 2.83 10.87 3.78"/><polygon class="cls-33" points="12.1 3.78 10.87 3.78 11.53 2.83 12.76 2.83 12.1 3.78"/><polygon class="cls-30" points="13.32 3.78 12.1 3.78 12.76 2.83 13.98 2.83 13.32 3.78"/><polygon class="cls-33" points="14.55 3.78 13.32 3.78 13.98 2.83 15.21 2.83 14.55 3.78"/><polygon class="cls-33" points="15.77 3.78 14.55 3.78 15.21 2.83 16.43 2.83 15.77 3.78"/><polygon class="cls-33" points="17 3.78 15.77 3.78 16.43 2.83 17.66 2.83 17 3.78"/><polygon class="cls-33" points="18.22 3.78 17 3.78 17.66 2.83 18.88 2.83 18.22 3.78"/><polygon class="cls-33" points="19.45 3.78 18.22 3.78 18.88 2.83 20.11 2.83 19.45 3.78"/><polygon class="cls-33" points="20.67 3.78 19.45 3.78 20.11 2.83 21.33 2.83 20.67 3.78"/><polygon class="cls-33" points="21.9 3.78 20.67 3.78 21.33 2.83 22.56 2.83 21.9 3.78"/><polygon class="cls-33" points="23.12 3.78 21.9 3.78 22.56 2.83 23.78 2.83 23.12 3.78"/><polygon class="cls-33" points="24.35 3.78 25 2.84 25 2.83 23.78 2.83 23.12 3.78 24.35 3.78"/><polygon class="cls-33" points="25 3.78 25 2.84 24.35 3.78 25 3.78"/><polygon class="cls-25" points="0 2.83 0.51 2.83 1.17 1.89 0 1.89 0 2.83"/><polygon class="cls-52" points="1.73 2.83 0.51 2.83 1.17 1.89 2.4 1.89 1.73 2.83"/><polygon class="cls-17" points="2.96 2.83 1.73 2.83 2.4 1.89 3.62 1.89 2.96 2.83"/><polygon class="cls-22" points="4.18 2.83 2.96 2.83 3.62 1.89 4.84 1.89 4.18 2.83"/><polygon class="cls-52" points="5.41 2.83 4.18 2.83 4.84 1.89 6.07 1.89 5.41 2.83"/><polygon class="cls-45" points="6.63 2.83 5.41 2.83 6.07 1.89 7.29 1.89 6.63 2.83"/><polygon class="cls-58" points="7.86 2.83 6.63 2.83 7.29 1.89 8.52 1.89 7.86 2.83"/><polygon class="cls-9" points="9.08 2.83 7.86 2.83 8.52 1.89 9.74 1.89 9.08 2.83"/><polygon class="cls-60" points="10.31 2.83 9.08 2.83 9.74 1.89 10.97 1.89 10.31 2.83"/><polygon class="cls-54" points="11.53 2.83 10.31 2.83 10.97 1.89 12.2 1.89 11.53 2.83"/><polygon class="cls-33" points="12.76 2.83 11.53 2.83 12.2 1.89 13.42 1.89 12.76 2.83"/><polygon class="cls-33" points="13.98 2.83 12.76 2.83 13.42 1.89 14.64 1.89 13.98 2.83"/><polygon class="cls-33" points="15.21 2.83 13.98 2.83 14.64 1.89 15.87 1.89 15.21 2.83"/><polygon class="cls-33" points="16.43 2.83 15.21 2.83 15.87 1.89 17.09 1.89 16.43 2.83"/><polygon class="cls-33" points="17.66 2.83 16.43 2.83 17.09 1.89 18.32 1.89 17.66 2.83"/><polygon class="cls-33" points="18.88 2.83 17.66 2.83 18.32 1.89 19.55 1.89 18.88 2.83"/><polygon class="cls-33" points="20.11 2.83 18.88 2.83 19.55 1.89 20.77 1.89 20.11 2.83"/><polygon class="cls-33" points="21.33 2.83 20.11 2.83 20.77 1.89 22 1.89 21.33 2.83"/><polygon class="cls-33" points="22.56 2.83 21.33 2.83 22 1.89 23.22 1.89 22.56 2.83"/><polygon class="cls-33" points="23.78 2.83 22.56 2.83 23.22 1.89 24.44 1.89 23.78 2.83"/><polygon class="cls-33" points="25 2.83 25 1.89 24.44 1.89 23.78 2.83 25 2.83"/><polygon class="cls-25" points="0 1.81 0.61 0.94 0 0.94 0 1.81"/><polygon class="cls-12" points="0 1.89 1.17 1.89 1.83 0.94 0.61 0.94 0 1.81 0 1.89"/><polygon class="cls-38" points="2.4 1.89 1.17 1.89 1.83 0.94 3.06 0.94 2.4 1.89"/><polygon class="cls-3" points="3.62 1.89 2.4 1.89 3.06 0.94 4.28 0.94 3.62 1.89"/><polygon class="cls-32" points="4.84 1.89 3.62 1.89 4.28 0.94 5.51 0.94 4.84 1.89"/><polygon class="cls-24" points="6.07 1.89 4.84 1.89 5.51 0.94 6.73 0.94 6.07 1.89"/><polygon class="cls-3" points="7.29 1.89 6.07 1.89 6.73 0.94 7.96 0.94 7.29 1.89"/><polygon class="cls-58" points="8.52 1.89 7.29 1.89 7.96 0.94 9.18 0.94 8.52 1.89"/><polygon class="cls-28" points="9.74 1.89 8.52 1.89 9.18 0.94 10.41 0.94 9.74 1.89"/><polygon class="cls-56" points="10.97 1.89 9.74 1.89 10.41 0.94 11.63 0.94 10.97 1.89"/><polygon class="cls-33" points="12.2 1.89 10.97 1.89 11.63 0.94 12.86 0.94 12.2 1.89"/><polygon class="cls-33" points="13.42 1.89 12.2 1.89 12.86 0.94 14.08 0.94 13.42 1.89"/><polygon class="cls-33" points="14.64 1.89 13.42 1.89 14.08 0.94 15.31 0.94 14.64 1.89"/><polygon class="cls-33" points="15.87 1.89 14.64 1.89 15.31 0.94 16.53 0.94 15.87 1.89"/><polygon class="cls-33" points="17.09 1.89 15.87 1.89 16.53 0.94 17.76 0.94 17.09 1.89"/><polygon class="cls-56" points="18.32 1.89 17.09 1.89 17.76 0.94 18.98 0.94 18.32 1.89"/><polygon class="cls-28" points="19.55 1.89 18.32 1.89 18.98 0.94 20.21 0.94 19.55 1.89"/><polygon class="cls-33" points="20.77 1.89 19.55 1.89 20.21 0.94 21.43 0.94 20.77 1.89"/><polygon class="cls-33" points="22 1.89 20.77 1.89 21.43 0.94 22.66 0.94 22 1.89"/><polygon class="cls-33" points="23.22 1.89 22 1.89 22.66 0.94 23.88 0.94 23.22 1.89"/><polygon class="cls-33" points="24.44 1.89 25 1.1 25 0.94 23.88 0.94 23.22 1.89 24.44 1.89"/><polygon class="cls-33" points="25 1.89 25 1.1 24.44 1.89 25 1.89"/><polygon class="cls-47" points="0 0.94 0.61 0.94 1.27 0 0.04 0 0 0.06 0 0.94"/><polygon class="cls-10" points="1.83 0.94 0.61 0.94 1.27 0 2.49 0 1.83 0.94"/><polygon class="cls-15" points="3.06 0.94 1.83 0.94 2.49 0 3.72 0 3.06 0.94"/><polygon class="cls-23" points="4.28 0.94 3.06 0.94 3.72 0 4.94 0 4.28 0.94"/><polygon class="cls-13" points="5.51 0.94 4.28 0.94 4.94 0 6.17 0 5.51 0.94"/><polygon class="cls-16" points="6.73 0.94 5.51 0.94 6.17 0 7.39 0 6.73 0.94"/><polygon class="cls-2" points="7.96 0.94 6.73 0.94 7.39 0 8.62 0 7.96 0.94"/><polygon class="cls-59" points="9.18 0.94 7.96 0.94 8.62 0 9.84 0 9.18 0.94"/><polygon class="cls-33" points="10.41 0.94 9.18 0.94 9.84 0 11.07 0 10.41 0.94"/><polygon class="cls-33" points="11.63 0.94 10.41 0.94 11.07 0 12.29 0 11.63 0.94"/><polygon class="cls-33" points="12.86 0.94 11.63 0.94 12.29 0 13.52 0 12.86 0.94"/><polygon class="cls-33" points="14.08 0.94 12.86 0.94 13.52 0 14.74 0 14.08 0.94"/><polygon class="cls-33" points="15.31 0.94 14.08 0.94 14.74 0 15.97 0 15.31 0.94"/><polygon class="cls-33" points="16.53 0.94 15.31 0.94 15.97 0 17.19 0 16.53 0.94"/><polygon class="cls-33" points="17.76 0.94 16.53 0.94 17.19 0 18.42 0 17.76 0.94"/><polygon class="cls-60" points="18.98 0.94 17.76 0.94 18.42 0 19.64 0 18.98 0.94"/><polygon class="cls-60" points="20.21 0.94 18.98 0.94 19.64 0 20.87 0 20.21 0.94"/><polygon class="cls-33" points="21.43 0.94 20.21 0.94 20.87 0 22.09 0 21.43 0.94"/><polygon class="cls-33" points="22.66 0.94 21.43 0.94 22.09 0 23.32 0 22.66 0.94"/><polygon class="cls-33" points="23.88 0.94 22.66 0.94 23.32 0 24.54 0 23.88 0.94"/><polygon class="cls-33" points="25 0.94 25 0 24.54 0 23.88 0.94 25 0.94"/></g><rect class="cls-62" width="25" height="17"/></g></g></svg>